<?xml version="1.0" encoding="UTF-8"?>
<svg width="16px" height="16px" viewBox="0 0 16 16" version="1.1" xmlns="http://www.w3.org/2000/svg" xmlns:xlink="http://www.w3.org/1999/xlink">
    <!-- Generator: Sketch 53.2 (72643) - https://sketchapp.com -->
    <title>icon/normal/atm</title>
    <desc>Created with Sketch.</desc>
    <g id="icon/normal/atm" stroke="none" stroke-width="1" fill="none" fill-rule="evenodd">
        <path d="M2,2 L10,2 L10,11 L2,11 L2,2 Z M4,7 L3,7 L3,8 L4,8 L4,9 L5,9 L5,8 L7,8 L7,7 L5,7 L5,6 L7,6 L7,5 L5,5 L5,4 L4,4 L4,5 L3,5 L3,6 L4,6 L4,7 Z M5,3 L5,4 L8,4 L8,3 L5,3 Z M5,9 L5,10 L8,10 L8,9 L5,9 Z M2,12 L4,12 L4,14 L2,14 L2,12 Z M11,9 L14,9 L14,10 L11,10 L11,9 Z M11,7 L14,7 L14,8 L11,8 L11,7 Z M1,1 L1,15 L15,15 L15,1 L1,1 Z M0,0 L16,0 L16,16 L0,16 L0,0 Z M5,12 L7,12 L7,14 L5,14 L5,12 Z" id="icon" fill="#7C7CF0" fill-rule="nonzero"></path>
    </g>
</svg>