<?xml version="1.0" encoding="UTF-8"?>
<svg width="16px" height="16px" viewBox="0 0 16 16" version="1.1" xmlns="http://www.w3.org/2000/svg" xmlns:xlink="http://www.w3.org/1999/xlink">
    <!-- Generator: Sketch 53.2 (72643) - https://sketchapp.com -->
    <title>icon/normal/bicycle</title>
    <desc>Created with Sketch.</desc>
    <g id="icon/normal/bicycle" stroke="none" stroke-width="1" fill="none" fill-rule="evenodd">
        <path d="M10.6666667,3.42091503 C11.3333333,3.42091503 11.8666667,2.8875817 11.8666667,2.22091503 C11.8666667,1.55424837 11.3333333,1.02091503 10.6666667,1.02091503 C10,1.02091503 9.46666667,1.55424837 9.46666667,2.22091503 C9.46666667,2.8875817 10,3.42091503 10.6666667,3.42091503 Z M12.6666667,8.22091503 C10.8,8.22091503 9.33333333,9.6875817 9.33333333,11.5542484 C9.33333333,13.420915 10.8,14.8875817 12.6666667,14.8875817 C14.5333333,14.8875817 16,13.4209412 16,11.5542484 C16,9.68755556 14.5333333,8.22091503 12.6666667,8.22091503 Z M12.6666667,13.5542484 C11.5809524,13.5542484 10.6666667,12.6399402 10.6666667,11.5542484 C10.6666667,10.4685117 11.5809524,9.55424837 12.6666667,9.55424837 C13.752381,9.55424837 14.6666667,10.4685117 14.6666667,11.5542484 C14.6666667,12.6399402 13.752381,13.5542484 12.6666667,13.5542484 Z M9.86666667,6.8875817 L12.6666667,6.8875817 L12.6666667,5.6875817 L10.5333333,5.6875817 L9.26666667,3.4875817 C9.06666667,3.15424837 8.73333333,2.95424837 8.26666667,2.95424837 C7.93333333,2.95424837 7.66666667,3.0875817 7.46666667,3.2875817 L5,5.75424837 C4.8,5.95424837 4.66666667,6.22091503 4.66666667,6.55424837 C4.66666667,6.95424837 4.86666667,7.35424837 5.2,7.55424837 L7.46666667,8.8875817 L7.46666667,12.220915 L8.66666667,12.220915 L8.66666667,7.8875817 L7.2,6.75424837 L8.73333333,5.22091503 L9.86666667,6.8875817 Z M3.33333333,8.22091503 C1.46666667,8.22091503 0,9.6875817 0,11.5542484 C0,13.420915 1.46666667,14.8875817 3.33333333,14.8875817 C5.2,14.8875817 6.66666667,13.4209412 6.66666667,11.5542484 C6.66666667,9.68755556 5.2,8.22091503 3.33333333,8.22091503 Z M3.33333333,13.5542484 C2.24761905,13.5542484 1.33333333,12.6399402 1.33333333,11.5542484 C1.33333333,10.4685117 2.24761905,9.55424837 3.33333333,9.55424837 C4.41904762,9.55424837 5.33333333,10.4685117 5.33333333,11.5542484 C5.33333333,12.6399402 4.41904762,13.5542484 3.33333333,13.5542484 Z" id="icon" fill="#7C7CF0" fill-rule="nonzero"></path>
    </g>
</svg>