<?xml version="1.0" encoding="UTF-8"?>
<svg width="16px" height="16px" viewBox="0 0 16 16" version="1.1" xmlns="http://www.w3.org/2000/svg" xmlns:xlink="http://www.w3.org/1999/xlink">
    <!-- Generator: Sketch 53.2 (72643) - https://sketchapp.com -->
    <title>icon/normal/bus-station</title>
    <desc>Created with Sketch.</desc>
    <g id="icon/normal/bus-station" stroke="none" stroke-width="1" fill="none" fill-rule="evenodd">
        <path d="M4,13 L4,14 C4,14.5522847 3.55228475,15 3,15 C2.44771525,15 2,14.5522847 2,14 L2,13 C1.44771525,13 1,12.5522847 1,12 L1,2 C1,1.44771525 1.44771525,1 2,1 L14,1 C14.5522847,1 15,1.44771525 15,2 L15,12 C15,12.5522847 14.5522847,13 14,13 L14,14 C14,14.5522847 13.5522847,15 13,15 C12.4477153,15 12,14.5522847 12,14 L12,13 L4,13 Z M2,4 L2,8 L14,8 L14,4 L2,4 Z M6,2 L6,3 L10,3 L10,2 L6,2 Z M3,12 L5,12 L5,10 L3,10 L3,12 Z M11,12 L13,12 L13,10 L11,10 L11,12 Z" id="icon" fill="#7C7CF0" fill-rule="nonzero"></path>
    </g>
</svg>