<?xml version="1.0" encoding="UTF-8"?>
<svg width="16px" height="16px" viewBox="0 0 16 16" version="1.1" xmlns="http://www.w3.org/2000/svg" xmlns:xlink="http://www.w3.org/1999/xlink">
    <!-- Generator: Sketch 53.2 (72643) - https://sketchapp.com -->
    <title>icon/normal/cafe</title>
    <desc>Created with Sketch.</desc>
    <g id="icon/normal/cafe" stroke="none" stroke-width="1" fill="none" fill-rule="evenodd">
        <path d="M12.9041693,8.1071746 C14.0477884,8.1071746 14.9782434,9.03762963 14.9782434,10.1812487 C14.9782434,11.3248677 14.0477884,12.2553228 12.9041693,12.2553228 L11.5320635,12.2553228 C11.2950265,13.1360847 10.6706032,13.6274442 9.85502646,13.9897722 L3.67318519,13.9897722 C2.66704762,13.5428727 1.9509418,12.7828995 1.8952381,11.6137989 L1.66971429,6.88287831 C1.66311111,6.74412698 1.71365079,6.6087619 1.80948148,6.50819048 C1.90531217,6.4077037 2.03813757,6.35081481 2.1770582,6.35081481 L11.3510688,6.35081481 C11.4899048,6.35081481 11.6228148,6.4077037 11.7186455,6.50819048 C11.8144762,6.60867725 11.8650159,6.74412698 11.8584127,6.88287831 L11.8000847,8.1071746 L12.9041693,8.1071746 Z M-5.34017275e-14,15 L16,15 L16,16 L-5.34017275e-14,16 L-5.34017275e-14,15 Z M12.9041693,11.2394497 C13.4877037,11.2394497 13.9623704,10.7647831 13.9623704,10.1812487 C13.9623704,9.59771429 13.4877037,9.12304762 12.9041693,9.12304762 L11.7743492,9.12304762 C11.7667302,9.12304762 11.7592804,9.12228571 11.751746,9.12194709 L11.650836,11.2394497 L12.9041693,11.2394497 Z M5.27153439,5.51822222 C4.72677249,5.19619048 4.3541164,4.62670899 4.24931217,3.95572487 C4.14289947,3.27568254 4.33362963,2.58285714 4.75953439,2.10133333 C4.81557672,2.03597884 4.87161905,1.97155556 4.9272381,1.90772487 C5.3397672,1.43398942 5.69608466,1.02484656 5.78742857,0.493544974 C5.83492063,0.217058201 6.09760847,0.0315767196 6.37409524,0.0790687831 C6.65049735,0.126560847 6.83614815,0.389248677 6.78857143,0.66573545 C6.6490582,1.4775873 6.16313228,2.03538624 5.69329101,2.57498413 C5.63851852,2.6378836 5.5832381,2.70129101 5.52795767,2.76579894 C5.52601058,2.76816931 5.52397884,2.77045503 5.52194709,2.77274074 C5.29329101,3.03001058 5.19263492,3.41367196 5.25291005,3.79885714 C5.31081481,4.16880423 5.50603175,4.47678307 5.78844444,4.64372487 C6.02996825,4.78645503 6.11005291,5.09790476 5.9672381,5.33942857 C5.87242328,5.4997672 5.70319577,5.58899471 5.52948148,5.58899471 C5.44160847,5.58899471 5.35263492,5.56613757 5.27153439,5.51822222 Z M6.84791534,4.37121693 C6.33413757,3.04812698 7.34764021,1.96579894 7.6807619,1.61015873 C7.99822222,1.27111111 8.19132275,0.89752381 8.25473016,0.499724868 C8.29892063,0.222645503 8.55932275,0.0338624339 8.83631746,0.0780529101 C9.11339683,0.122243386 9.30209524,0.382645503 9.25798942,0.659640212 C9.16342857,1.25291005 8.8744127,1.82162963 8.42226455,2.30450794 C7.78446561,2.98556614 7.59686772,3.49367196 7.79487831,4.00355556 C7.89426455,4.25964021 8.08067725,4.5050582 8.30620106,4.67699471 C8.5293545,4.84706878 8.57235979,5.16579894 8.40228571,5.38886772 C8.30239153,5.52 8.15102646,5.58891005 7.99796825,5.58891005 C7.89053968,5.58891005 7.78234921,5.55496296 7.6904127,5.48486772 C7.31479365,5.19856085 7.01561905,4.80304762 6.84791534,4.37121693 Z" id="icon" fill="#7C7CF0" fill-rule="nonzero"></path>
    </g>
</svg>