<?xml version="1.0" encoding="UTF-8"?>
<svg width="16px" height="16px" viewBox="0 0 16 16" version="1.1" xmlns="http://www.w3.org/2000/svg" xmlns:xlink="http://www.w3.org/1999/xlink">
    <!-- Generator: Sketch 53.2 (72643) - https://sketchapp.com -->
    <title>icon/normal/cave-entrance</title>
    <desc>Created with Sketch.</desc>
    <g id="icon/normal/cave-entrance" stroke="none" stroke-width="1" fill="none" fill-rule="evenodd">
        <path d="M10.1041875,8.26003125 L15.3529375,4.6593125 L12.2420938,11.685125 L10.1041875,8.26003125 Z M12.7814375,12.7826563 L16,5.51375 L16,16 L12.7814375,16 L12.7814375,12.7826563 Z M5.32146875,0.40228125 L7.39084375,3.8871875 L6.60125,7.89684375 L4.4465625,10.0514688 L1.59071875,4.30896875 L5.32146875,0.40228125 Z M6.17296875,-3.33066907e-15 L11.21975,-3.33066907e-15 L7.989,3.05828125 L6.17296875,-3.33066907e-15 Z M14.2188125,1.15434375 L15.6577813,3.31325 L9.32346875,7.658625 L7.60371875,7.658625 L8.31640625,4.03940625 L12.2484375,0.31715625 L14.2188125,1.15434375 Z M0.96103125,5.14828125 L3.848375,10.954 L3.848375,16 L-2.10942375e-13,16 L-2.10942375e-13,7.9210625 L0.96103125,5.14828125 Z" id="icon" fill="#7C7CF0" fill-rule="nonzero"></path>
    </g>
</svg>