<?xml version="1.0" encoding="UTF-8"?>
<svg width="16px" height="16px" viewBox="0 0 16 16" version="1.1" xmlns="http://www.w3.org/2000/svg" xmlns:xlink="http://www.w3.org/1999/xlink">
    <!-- Generator: Sketch 53.2 (72643) - https://sketchapp.com -->
    <title>icon/normal/city</title>
    <desc>Created with Sketch.</desc>
    <g id="icon/normal/city" stroke="none" stroke-width="1" fill="none" fill-rule="evenodd">
        <path d="M10,15 L10,1 L15,1 L15,15 L16,15 L16,16 L0,16 L0,15 L1,15 L1,8 L4,8 L4,15 L5,15 L5,3 L9,5 L9,15 L10,15 Z M11,15 L12,15 L12,13 L11,13 L11,15 Z M13,15 L14,15 L14,13 L13,13 L13,15 Z M7,15 L7,13 L6,13 L6,15 L7,15 Z M2,15 L3,15 L3,13 L2,13 L2,15 Z M2,9 L2,11 L3,11 L3,9 L2,9 Z M6,6 L6,8 L8,8 L8,6 L6,6 Z M6,9 L6,11 L8,11 L8,9 L6,9 Z M11,2 L11,4 L14,4 L14,2 L11,2 Z M11,5 L11,7 L14,7 L14,5 L11,5 Z M11,8 L11,10 L14,10 L14,8 L11,8 Z M11,11 L11,12 L14,12 L14,11 L11,11 Z" id="icon" fill="#7C7CF0" fill-rule="nonzero"></path>
    </g>
</svg>