<?xml version="1.0" encoding="UTF-8"?>
<svg width="16px" height="16px" viewBox="0 0 16 16" version="1.1" xmlns="http://www.w3.org/2000/svg" xmlns:xlink="http://www.w3.org/1999/xlink">
    <!-- Generator: Sketch 53.2 (72643) - https://sketchapp.com -->
    <title>icon/normal/drinking-water</title>
    <desc>Created with Sketch.</desc>
    <g id="icon/normal/drinking-water" stroke="none" stroke-width="1" fill="none" fill-rule="evenodd">
        <path d="M5,5 L8,5 L8,3 L7,3 C6.44771525,3 6,2.55228475 6,2 C6,1.44771525 6.44771525,1 7,1 L11,1 C11.5522847,1 12,1.44771525 12,2 C12,2.55228475 11.5522847,3 11,3 L10,3 L10,5 L12,5 C12.5522847,5 13,5.44771525 13,6 L13,7 L13,8 C13.5522847,8 14,8.44771525 14,9 C14,9.55228475 13.5522847,10 13,10 L11,10 C10.4477153,10 10,9.55228475 10,9 C10,8.44771525 10.4477153,8 11,8 L11,7 L5,7 L5,16 L2,16 L2,0 L5,0 L5,5 Z M13.9148653,13.5047246 C13.971212,13.6136516 13.9998976,13.7254356 14,13.8379935 C14,14.4786982 13.1027559,15 12,15 C10.8972441,15 10,14.4787578 10,13.8379935 C10,13.7206143 10.0309395,13.6041279 10.0924086,13.4909153 C10.0967114,13.4800821 10.1017314,13.4693085 10.1075709,13.4585944 L11.2668784,11.3127334 C11.3672779,11.1266053 11.6642762,11 11.9998976,11 C12.3355189,11 12.6325172,11.1266053 12.7329167,11.3127334 L13.8752177,13.4270472 C13.8923266,13.4519278 13.9056449,13.4778798 13.9148653,13.5047246 Z" id="icon" fill="#7C7CF0" fill-rule="nonzero"></path>
    </g>
</svg>