<?xml version="1.0" encoding="UTF-8"?>
<svg width="16px" height="16px" viewBox="0 0 16 16" version="1.1" xmlns="http://www.w3.org/2000/svg" xmlns:xlink="http://www.w3.org/1999/xlink">
    <!-- Generator: Sketch 53.2 (72643) - https://sketchapp.com -->
    <title>icon/normal/hiking</title>
    <desc>Created with Sketch.</desc>
    <g id="icon/normal/hiking" stroke="none" stroke-width="1" fill="none" fill-rule="evenodd">
        <path d="M9.91263617,9.58646965 L10.8378564,14.8336543 C10.9337596,15.3775486 10.5705911,15.896207 10.0266968,15.9921102 C9.48280252,16.0880134 8.96414413,15.7248449 8.86824089,15.1809506 L8.13029016,10.9958241 C8.08721702,10.9985938 8.04377273,11 8,11 C7.96007972,11 7.9204326,10.9988304 7.88109106,10.9965236 L7.14326368,15.1809506 C7.04736044,15.7248449 6.52870206,16.0880134 5.98480775,15.9921102 C5.44091345,15.896207 5.07774494,15.3775486 5.17364818,14.8336543 L6.09472327,9.60997787 C6.03320826,9.41767579 6,9.212716 6,9 L6,7 C6,5.8954305 6.8954305,5 8,5 C8.93319868,5 9.71711889,5.63913708 9.93790219,6.50355281 L12.5298248,8 L13,8 L13,7 L14,7 L14,8 C14.5522847,8 15,8.44771525 15,9 C15,9.55228475 14.5522847,10 14,10 L14,16 L13,16 L13,10 L12,10 L12,9.95480358 L11.978911,9.99133085 L10,8.84880607 L10,9 C10,9.20407109 9.9694361,9.40100359 9.91263617,9.58646965 Z M8,4 C6.8954305,4 6,3.1045695 6,2 C6,0.8954305 6.8954305,1.24344979e-14 8,1.24344979e-14 C9.1045695,1.24344979e-14 10,0.8954305 10,2 C10,3.1045695 9.1045695,4 8,4 Z M3.5,4 C4.32842712,4 5,4.67157288 5,5.5 L5,7.5 C5,8.32842712 4.32842712,9 3.5,9 C2.67157288,9 2,8.32842712 2,7.5 L2,5.5 C2,4.67157288 2.67157288,4 3.5,4 Z" id="icon" fill="#7C7CF0" fill-rule="nonzero"></path>
    </g>
</svg>