<?xml version="1.0" encoding="UTF-8"?>
<svg width="16px" height="16px" viewBox="0 0 16 16" version="1.1" xmlns="http://www.w3.org/2000/svg" xmlns:xlink="http://www.w3.org/1999/xlink">
    <!-- Generator: Sketch 53.2 (72643) - https://sketchapp.com -->
    <title>icon/normal/hunting-stand</title>
    <desc>Created with Sketch.</desc>
    <g id="icon/normal/hunting-stand" stroke="none" stroke-width="1" fill="none" fill-rule="evenodd">
        <path d="M13,5 L13,9 L12,9 L12,16 L10,16 L10,14.8 L8,12.8 L6,14.8 L6,16 L4,16 L4,9 L3,9 L3,5 L3,2 L1,2 L1,0 L15,0 L15,2 L13,2 L13,5 Z M11,5 L11,2 L5,2 L5,5 L11,5 Z M10,10.8 L8.8,12 L10,13.2 L10,10.8 Z M10,9 L6,9 L6,9.2 L8,11.2 L10,9.2 L10,9 Z M6,10.8 L6,13.2 L7.2,12 L6,10.8 Z" id="icon" fill="#7C7CF0" fill-rule="nonzero"></path>
    </g>
</svg>