<?xml version="1.0" encoding="UTF-8"?>
<svg width="16px" height="16px" viewBox="0 0 16 16" version="1.1" xmlns="http://www.w3.org/2000/svg" xmlns:xlink="http://www.w3.org/1999/xlink">
    <!-- Generator: Sketch 53.2 (72643) - https://sketchapp.com -->
    <title>icon/normal/marketplace</title>
    <desc>Created with Sketch.</desc>
    <g id="icon/normal/marketplace" stroke="none" stroke-width="1" fill="none" fill-rule="evenodd">
        <path d="M13,11 L13,4.81532327 C12.4022004,4.57664231 12,4.13053176 12,3.6195889 C12,4.38196407 11.1045625,5 10,5 C8.8954375,5 8,4.38196407 8,3.6195889 C8,4.38196407 7.1045625,5 6,5 C4.8954375,5 4,4.38196407 4,3.6195889 C4,4.13053176 3.59779962,4.57664231 3,4.81532327 L3,11 L4,11 L4,8 L7,8 L7,11 L9,11 L9,6 L12,6 L12,11 L13,11 Z M13,13 L3,13 L3,16 L1,16 L1,4.81532327 C0.402200378,4.57664231 0,4.13053176 0,3.6195889 L1.53146875,0 L14.4685313,0 L16,3.6195889 C16,4.13053176 15.5977996,4.57664231 15,4.81532327 L15,16 L13,16 L13,13 Z" id="icon" fill="#7C7CF0" fill-rule="nonzero"></path>
    </g>
</svg>