<?xml version="1.0" encoding="UTF-8"?>
<svg width="16px" height="16px" viewBox="0 0 16 16" version="1.1" xmlns="http://www.w3.org/2000/svg" xmlns:xlink="http://www.w3.org/1999/xlink">
    <!-- Generator: Sketch 53.2 (72643) - https://sketchapp.com -->
    <title>icon/normal/peak</title>
    <desc>Created with Sketch.</desc>
    <g id="icon/normal/peak" stroke="none" stroke-width="1" fill="none" fill-rule="evenodd">
        <path d="M15.9382552,15.0450788 L9.28108089,0.789008267 C9.05715864,0.30924331 8.55467516,0 7.99999194,0 C7.44530872,0 6.94282524,0.30924331 6.71890299,0.789008267 L0.0612408142,15.0450788 C-0.0373044895,15.2561569 -0.0158391759,15.4981133 0.117831187,15.6916784 C0.250525853,15.8843218 0.478350887,16 0.722274906,16 L7.99950409,16 L15.2767333,16 C15.5206573,16 15.7479945,15.8847827 15.8816648,15.6916784 C16.0163109,15.4981133 16.0372884,15.2561569 15.9382552,15.0450788 Z M10.7978004,7.75320448 C10.6699843,7.84952617 10.4772843,7.86657833 10.356298,7.761961 C10.0128529,7.46239594 9.2152214,6.58536164 8.96202827,6.58536164 C8.59321516,6.58536164 8.37953772,7.12181352 7.99950409,7.12181352 C7.76045855,7.12181352 7.23943685,6.36690958 7.23943685,6.36690958 C7.11357206,6.242014 6.90916373,6.22496183 6.76232147,6.32727482 L6.11543497,6.7766224 C5.98322815,6.8683354 5.80174868,6.86464844 5.67393249,6.76740502 C5.54611631,6.67062246 5.50269783,6.50424864 5.56904517,6.36230089 L7.63752085,1.91998157 C7.70581957,1.77342512 7.8350993,1.62871216 7.99950409,1.62871216 C8.16342103,1.62871216 8.29367646,1.77342512 8.36148734,1.91998157 L10.9026878,7.34856122 C10.9685473,7.48958723 10.9261045,7.65550019 10.7978004,7.75320448 Z" id="icon" fill="#7C7CF0" fill-rule="nonzero"></path>
    </g>
</svg>