<?xml version="1.0" encoding="UTF-8"?>
<svg width="16px" height="16px" viewBox="0 0 16 16" version="1.1" xmlns="http://www.w3.org/2000/svg" xmlns:xlink="http://www.w3.org/1999/xlink">
    <!-- Generator: Sketch 53.2 (72643) - https://sketchapp.com -->
    <title>icon/normal/store</title>
    <desc>Created with Sketch.</desc>
    <g id="icon/normal/store" stroke="none" stroke-width="1" fill="none" fill-rule="evenodd">
        <path d="M11,6.97665103 C10.7058259,7.14682302 10.3642861,7.24421875 10,7.24421875 C9.63571388,7.24421875 9.29417405,7.14682302 9,6.97665103 L9,7.99360578e-15 L11,1.59872116e-14 L11,6.97665103 Z M13,6.97665103 L13,7.99360578e-15 L14.4685313,1.59872116e-14 L16,5.24421875 C16,6.34878125 15.1045625,7.24421875 14,7.24421875 C13.6357139,7.24421875 13.2941741,7.14682302 13,6.97665103 Z M7,6.97665103 C6.70582595,7.14682302 6.36428612,7.24421875 6,7.24421875 C5.63571388,7.24421875 5.29417405,7.14682302 5,6.97665103 L5,7.99360578e-15 L7,1.59872116e-14 L7,6.97665103 Z M3,6.97665103 C2.70582595,7.14682302 2.36428612,7.24421875 2,7.24421875 C0.8954375,7.24421875 0,6.34878125 0,5.24421875 L1.53146875,1.59872116e-14 L3,1.59872116e-14 L3,6.97665103 Z M14,8.28765625 C14.5189687,8.28765625 14.5759884,8.15696875 15.0039571,7.927 L15.0039571,16 L6,16 L6,9.99824524 L3,9.99824524 L3,16 L0.990717777,16 L0.990717777,7.927 C1.41871778,8.15696875 1.48103125,8.28765625 2,8.28765625 C2.76484375,8.28765625 3.46475,8.004 4,7.53646875 C4.53525,8.00396875 5.23515625,8.28765625 6,8.28765625 C6.76484375,8.28765625 7.46475,8.004 8,7.53646875 C8.53525,8.00396875 9.23515625,8.28765625 10,8.28765625 C10.7648437,8.28765625 11.46475,8.004 12,7.53646875 C12.53525,8.00396875 13.2351562,8.28765625 14,8.28765625 Z M8,13.0044765 L13.0068359,13.0044765 L13.0068359,9.99880386 L8,9.99880386 L8,13.0044765 Z" id="icon" fill="#7C7CF0" fill-rule="nonzero"></path>
    </g>
</svg>