<?xml version="1.0" encoding="UTF-8"?>
<svg width="16px" height="16px" viewBox="0 0 16 16" version="1.1" xmlns="http://www.w3.org/2000/svg" xmlns:xlink="http://www.w3.org/1999/xlink">
    <!-- Generator: Sketch 53.2 (72643) - https://sketchapp.com -->
    <title>icon/normal/train-station</title>
    <desc>Created with Sketch.</desc>
    <g id="icon/normal/train-station" stroke="none" stroke-width="1" fill="none" fill-rule="evenodd">
        <path d="M9,1 L9,3 L12,3 C12.5522847,3 13,3.44771525 13,4 L13,10 C13,10.5522847 12.5522847,11 12,11 L4,11 C3.44771525,11 3,10.5522847 3,10 L3,4 C3,3.44771525 3.44771525,3 4,3 L7,3 L7,1 L6,1 L6,0 L10,0 L10,1 L9,1 Z M4,4 L4,7 L12,7 L12,4 L4,4 Z M4,10 L6,10 L6,8 L4,8 L4,10 Z M10,10 L12,10 L12,8 L10,8 L10,10 Z M5,12 L11,12 L11,13 L5,13 L5,12 Z M4.92290374,9.98985009 L5.88882957,10.2486691 L4.3359153,16.0442241 L3.36998947,15.785405 L4.92290374,9.98985009 Z M11.3842857,15 L4,15 L4,14 L11.1163365,14 L10.1111704,10.2486691 L11.0770963,9.98985009 L12.6300105,15.785405 L11.6640847,16.0442241 L11.3842857,15 Z" id="icon" fill="#7C7CF0" fill-rule="nonzero"></path>
    </g>
</svg>