<svg id="Layer_1" data-name="Layer 1" xmlns="http://www.w3.org/2000/svg" viewBox="0 0 453.54 226.77"><defs><style>.cls-1{fill:#8dc63f;}</style></defs><title>gtrack_logo_final_versions</title><path class="cls-1" d="M252.88,107.36v23.75c0,4.64,2.43,7,7.2,7a10.83,10.83,0,0,0,3.48-.55,2.62,2.62,0,0,1,.75-.18,1.91,1.91,0,0,1,1.84,1.84,1.84,1.84,0,0,1-1.31,1.75,15.7,15.7,0,0,1-5.34,1c-6.68,0-10.66-3.9-10.66-10.44V107.36h-3.78a2,2,0,0,1-1.91-1.92,1.92,1.92,0,0,1,1.91-1.84h3.78V93.48a2,2,0,0,1,2-2,2,2,0,0,1,2.06,2V103.6h11.43a2,2,0,0,1,1.92,1.92,1.93,1.93,0,0,1-1.92,1.84Zm-15.46-2v29.9c0,5.22-1.66,9.64-4.81,12.78s-8.09,5-13.66,5a28.1,28.1,0,0,1-16.39-5.15,2.15,2.15,0,0,1-.91-1.79,2.13,2.13,0,0,1,2.06-1.92,2.36,2.36,0,0,1,1.13.32A23.69,23.69,0,0,0,219,149.26c9,0,14.35-5.31,14.35-14.21v-4.66c-3.94,5.31-9.21,8.11-15.3,8.11-8.9,0-18.1-6.64-18.1-17.74v-.15c0-11,9.39-17.88,18.1-17.88a18.56,18.56,0,0,1,15.3,7.82v-5.18a2,2,0,0,1,2-2.06A2,2,0,0,1,237.42,105.37Zm-19,1.26c-8.18,0-14.13,5.82-14.13,13.84v.14a13.91,13.91,0,0,0,14.13,14c7.29,0,15.16-5.32,15.16-13.91v-.15C233.6,111.83,225.89,106.63,218.44,106.63ZM364,132.41a1.91,1.91,0,0,0-1.34.65c-3.48,3.49-7.35,5.26-11.5,5.26-8.46,0-15.08-7-15.08-15.88v-.15c0-8.82,6.5-15.74,14.79-15.74,5.21,0,8.66,2.63,11.36,5.19a2.07,2.07,0,0,0,1.4.5,2,2,0,0,0,2.06-2.06,2.18,2.18,0,0,0-.59-1.48c-3-2.78-7.26-6-14.16-6-10.58,0-19.19,8.84-19.19,19.71v.14A19.4,19.4,0,0,0,351,142.14c5.65,0,10.14-2,14.54-6.48a1.87,1.87,0,0,0,.5-1.26A2.11,2.11,0,0,0,364,132.41Zm-42.28-25.24c2.6,2.6,3.86,6.09,3.86,10.67V139.5a2,2,0,1,1-4,0v-4a17.17,17.17,0,0,1-14,6.6c-7.25,0-14.6-4.09-14.6-11.9v-.15c0-7.61,6.32-12.34,16.5-12.34a44.77,44.77,0,0,1,12.09,1.54V118c0-7.19-4.27-11.14-12-11.14a24,24,0,0,0-10.47,2.45,2.06,2.06,0,0,1-.9.24,2,2,0,0,1-1.92-1.91,2.07,2.07,0,0,1,1.17-1.82A29,29,0,0,1,309.82,103C314.89,103,319,104.46,321.73,107.17ZM297.29,130c0,5.45,5.32,8.3,10.56,8.3,7.89,0,13.84-4.82,13.84-11.22v-4a48.77,48.77,0,0,0-12.38-1.63c-7.41,0-12,3.24-12,8.44Zm105.11,8.17L388,120.34l13.49-13.71a1.76,1.76,0,0,0,.65-1.41,1.89,1.89,0,0,0-1.91-1.91,1.84,1.84,0,0,0-1.41.59l-22.42,23.2V89.33a2,2,0,0,0-2.06-2.06,2,2,0,0,0-2,2.06V139.5a2,2,0,0,0,2.06,2.06,1.94,1.94,0,0,0,2-2.06v-7.41l8.79-8.86,14.13,17.45a2,2,0,0,0,1.71.88,1.87,1.87,0,0,0,2-1.91A2.09,2.09,0,0,0,402.4,138.19ZM291.15,103c-4.68,0-11.15,3.25-14.71,10.35v-8a2,2,0,1,0-4.05,0V139.5a2,2,0,1,0,4.05,0V125.79c0-12.53,7.61-17.7,14.73-18.36a2.18,2.18,0,0,0,2.11-2.21A2.14,2.14,0,0,0,291.15,103Z"/><path class="cls-1" d="M180.15,130.25l-4.7,3.34-16.82-14.86-4.7.58L141.34,106.2l-9.41,4.93-19.29-15.4-26.11,25-4.71-.53-12,9.76-4.71-.38-14.54,13H194.2Zm-78.26-14.07-3.84,10.2-5-2.61-3.37,2.92-3.26,0-3.59,4.1-.94-3.19L74.26,136l-7.84-1.72-1.1,5.64-2.39-2.34-3.75,2.34,6.74-7.95,7.42,1.94,8.46-10.33,6.14.6L113.4,98.83l.3,17.45-3.58-5.18-3.41,6.18Zm39.86.21-.76,5.08-2,.84v7.39l-4.89-2.23-5.14,8.42-2-6.41-9,7.38-10.35.53,5.15-2.93,7.38-6.19,5.88-5.88,3.23-1.17,2.65-3.24,2.76-.59,4-4.7L142,109.9Zm10.13,19-4.11.39,2.37-5.17-2.81-7,7.69,8.82.62,5.06ZM171,139.6l11.63-4.72-2.39,3.93.39,1.09ZM87.5,103.89a5.68,5.68,0,0,0-11.35,0c0,3.14,5.67,11.35,5.67,11.35S87.5,107,87.5,103.89Zm-8.19,0a2.52,2.52,0,1,1,2.51,2.52A2.51,2.51,0,0,1,79.31,103.89Zm39-24.53a5.67,5.67,0,0,0-11.34,0c0,3.14,5.67,11.35,5.67,11.35S118.31,82.5,118.31,79.36Zm-8.19,0a2.52,2.52,0,1,1,2.52,2.52A2.51,2.51,0,0,1,110.12,79.36ZM147,89.84a5.68,5.68,0,0,0-11.35,0c0,3.14,5.68,11.35,5.68,11.35S147,93,147,89.84Zm-8.19,0a2.52,2.52,0,1,1,2.52,2.52A2.51,2.51,0,0,1,138.82,89.84Z"/></svg>