<?xml version="1.0" encoding="utf-8"?>
<svg id="Layer_1" data-name="Layer 1" viewBox="0 0 354.9460754394531 81.68162536621094" xmlns="http://www.w3.org/2000/svg">
  <defs>
    <style>.cls-1{fill:url(#linear-gradient);}.cls-2{fill:#339933;}</style>
  </defs>
  <title>gtrack_logo_final_versions</title>
  <path class="cls-2" d="M 203.006 34.887 L 203.006 58.637 C 203.006 63.277 205.436 65.637 210.206 65.637 C 211.388 65.645 212.564 65.459 213.686 65.087 C 213.926 64.991 214.178 64.93 214.436 64.907 C 215.437 64.943 216.24 65.746 216.276 66.747 C 216.271 67.555 215.739 68.265 214.966 68.497 C 213.258 69.138 211.451 69.477 209.626 69.497 C 202.946 69.497 198.966 65.597 198.966 59.057 L 198.966 34.887 L 195.186 34.887 C 194.147 34.841 193.317 34.006 193.276 32.967 C 193.319 31.942 194.16 31.132 195.186 31.127 L 198.966 31.127 L 198.966 21.007 C 198.966 19.903 199.861 19.007 200.966 19.007 C 202.094 18.973 203.026 19.879 203.026 21.007 L 203.026 31.127 L 214.456 31.127 C 215.499 31.168 216.335 32.004 216.376 33.047 C 216.328 34.074 215.484 34.883 214.456 34.887 Z M 187.546 32.887 L 187.546 62.787 C 187.546 68.007 185.886 72.427 182.736 75.567 C 179.586 78.707 174.646 80.567 169.076 80.567 C 163.209 80.604 157.478 78.803 152.686 75.417 C 152.105 75.008 151.765 74.338 151.776 73.627 C 151.881 72.56 152.764 71.737 153.836 71.707 C 154.234 71.717 154.622 71.827 154.966 72.027 C 159.049 75.099 164.016 76.769 169.126 76.787 C 178.126 76.787 183.476 71.477 183.476 62.577 L 183.476 57.917 C 179.536 63.227 174.266 66.027 168.176 66.027 C 159.276 66.027 150.076 59.387 150.076 48.287 L 150.076 48.137 C 150.076 37.137 159.466 30.257 168.176 30.257 C 174.248 30.204 179.962 33.125 183.476 38.077 L 183.476 32.897 C 183.442 31.769 184.348 30.837 185.476 30.837 C 186.632 30.796 187.581 31.741 187.546 32.897 Z M 168.546 34.147 C 160.366 34.147 154.416 39.967 154.416 47.987 L 154.416 48.127 C 154.364 55.931 160.742 62.251 168.546 62.127 C 175.836 62.127 183.706 56.807 183.706 48.217 L 183.706 48.067 C 183.726 39.357 176.016 34.157 168.566 34.157 Z M 314.126 59.937 C 313.61 59.964 313.126 60.198 312.786 60.587 C 309.306 64.077 305.436 65.847 301.286 65.847 C 292.826 65.847 286.206 58.847 286.206 49.967 L 286.206 49.817 C 286.206 40.997 292.706 34.077 300.996 34.077 C 306.206 34.077 309.656 36.707 312.356 39.267 C 312.745 39.601 313.243 39.78 313.756 39.767 C 314.908 39.802 315.851 38.859 315.816 37.707 C 315.813 37.157 315.602 36.628 315.226 36.227 C 312.226 33.447 307.966 30.227 301.066 30.227 C 290.486 30.227 281.876 39.067 281.876 49.937 L 281.876 50.077 C 281.771 60.807 290.396 69.585 301.126 69.667 C 306.776 69.667 311.266 67.667 315.666 63.187 C 315.984 62.845 316.163 62.395 316.166 61.927 C 316.104 60.835 315.219 59.972 314.126 59.937 Z M 271.846 34.697 C 274.446 37.297 275.706 40.787 275.706 45.367 L 275.706 67.027 C 275.706 68.567 274.039 69.529 272.706 68.759 C 272.087 68.402 271.706 67.742 271.706 67.027 L 271.706 63.027 C 268.352 67.325 263.156 69.775 257.706 69.627 C 250.456 69.627 243.106 65.537 243.106 57.727 L 243.106 57.577 C 243.106 49.967 249.426 45.237 259.606 45.237 C 263.687 45.197 267.755 45.715 271.696 46.777 L 271.696 45.527 C 271.696 38.337 267.426 34.387 259.696 34.387 C 256.066 34.401 252.486 35.239 249.226 36.837 C 248.948 36.985 248.64 37.067 248.326 37.077 C 247.287 37.037 246.452 36.206 246.406 35.167 C 246.423 34.389 246.875 33.686 247.576 33.347 C 251.441 31.506 255.665 30.543 259.946 30.527 C 265.016 30.527 269.126 31.987 271.856 34.697 Z M 247.416 57.527 C 247.416 62.977 252.736 65.827 257.976 65.827 C 265.866 65.827 271.816 61.007 271.816 54.607 L 271.816 50.607 C 267.776 49.536 263.615 48.988 259.436 48.977 C 252.026 48.977 247.436 52.217 247.436 57.417 Z M 352.526 65.697 L 338.126 47.867 L 351.616 34.157 C 352.039 33.813 352.279 33.293 352.266 32.747 C 352.277 31.688 351.415 30.826 350.356 30.837 C 349.823 30.82 349.308 31.035 348.946 31.427 L 326.526 54.627 L 326.526 16.857 C 326.561 15.705 325.618 14.762 324.466 14.797 C 323.338 14.797 322.432 15.729 322.466 16.857 L 322.466 67.027 C 322.431 68.179 323.374 69.122 324.526 69.087 C 325.67 69.125 326.597 68.169 326.526 67.027 L 326.526 59.617 L 335.316 50.757 L 349.446 68.207 C 349.828 68.773 350.473 69.105 351.156 69.087 C 352.255 69.164 353.182 68.279 353.156 67.177 C 353.147 66.627 352.92 66.102 352.526 65.717 Z M 241.276 30.527 C 236.596 30.527 230.126 33.777 226.566 40.877 L 226.566 32.877 C 226.566 31.318 224.878 30.344 223.528 31.123 C 222.902 31.485 222.516 32.154 222.516 32.877 L 222.516 67.027 C 222.516 68.586 224.203 69.56 225.553 68.781 C 226.18 68.419 226.566 67.751 226.566 67.027 L 226.566 53.317 C 226.566 40.787 234.176 35.617 241.296 34.957 C 242.484 34.919 243.423 33.936 243.406 32.747 C 243.451 31.538 242.486 30.532 241.276 30.527 Z"/>
  <path class="cls-2" d="M 130.276 57.777 L 125.576 61.117 L 108.756 46.257 L 104.056 46.837 L 91.466 33.727 L 82.056 38.657 L 62.766 23.257 L 36.656 48.257 L 31.946 47.727 L 19.946 57.487 L 15.236 57.107 L 0.696 70.107 L 144.326 70.107 Z M 52.016 43.707 L 48.176 53.907 L 43.176 51.297 L 39.806 54.217 L 36.546 54.217 L 32.956 58.317 L 32.016 55.127 L 24.386 63.527 L 16.546 61.807 L 15.446 67.447 L 13.056 65.107 L 9.306 67.447 L 16.046 59.497 L 23.466 61.437 L 31.926 51.107 L 38.066 51.707 L 63.526 26.357 L 63.826 43.807 L 60.246 38.627 L 56.836 44.807 Z M 91.876 43.917 L 91.116 48.997 L 89.116 49.837 L 89.116 57.227 L 84.226 54.997 L 79.086 63.417 L 77.086 57.007 L 68.086 64.387 L 57.736 64.917 L 62.886 61.987 L 70.266 55.797 L 76.146 49.917 L 79.376 48.747 L 82.026 45.507 L 84.786 44.917 L 88.786 40.217 L 92.126 37.427 Z M 102.006 62.917 L 97.896 63.307 L 100.266 58.137 L 97.456 51.137 L 105.146 59.957 L 105.766 65.017 Z M 121.126 67.127 L 132.756 62.407 L 130.366 66.337 L 130.756 67.427 Z M 37.626 31.417 C 37.443 27.049 32.599 24.517 28.907 26.86 C 27.337 27.857 26.354 29.559 26.276 31.417 C 26.276 34.557 31.946 42.767 31.946 42.767 C 31.946 42.767 37.626 34.527 37.626 31.417 Z M 29.436 31.417 C 29.436 29.477 31.536 28.265 33.216 29.235 C 34.896 30.205 34.896 32.63 33.216 33.6 C 32.83 33.822 32.392 33.939 31.946 33.937 C 30.556 33.937 29.43 32.807 29.436 31.417 Z M 68.436 6.887 C 68.436 2.522 63.711 -0.206 59.931 1.977 C 58.177 2.99 57.096 4.861 57.096 6.887 C 57.096 10.027 62.766 18.237 62.766 18.237 C 62.766 18.237 68.436 10.027 68.436 6.887 Z M 60.246 6.887 C 60.246 4.947 62.346 3.735 64.026 4.705 C 65.706 5.675 65.706 8.1 64.026 9.07 C 63.643 9.291 63.208 9.407 62.766 9.407 C 61.372 9.413 60.24 8.281 60.246 6.887 Z M 97.126 17.367 C 96.943 12.999 92.099 10.467 88.407 12.81 C 86.837 13.807 85.854 15.509 85.776 17.367 C 85.776 20.507 91.456 28.717 91.456 28.717 C 91.456 28.717 97.126 20.527 97.126 17.367 Z M 88.936 17.367 C 88.936 15.427 91.036 14.215 92.716 15.185 C 94.396 16.155 94.396 18.58 92.716 19.55 C 92.333 19.771 91.898 19.887 91.456 19.887 C 90.066 19.887 88.94 18.757 88.946 17.367 Z"/>
</svg>
