<?xml version="1.0" encoding="UTF-8" standalone="no"?>
<!DOCTYPE svg PUBLIC "-//W3C//DTD SVG 1.1//EN"
 "http://www.w3.org/Graphics/SVG/1.1/DTD/svg11.dtd">
<!-- Generated by graphviz version 2.40.1 (20161225.0304)
 -->
<!-- Title: dependencies Pages: 1 -->
<svg width="574pt" height="284pt"
 viewBox="0.00 0.00 574.00 284.00" xmlns="http://www.w3.org/2000/svg" xmlns:xlink="http://www.w3.org/1999/xlink">
<g id="graph0" class="graph" transform="scale(1 1) rotate(0) translate(4 280)">
<title>dependencies</title>
<polygon fill="#ffffff" stroke="transparent" points="-4,4 -4,-280 570,-280 570,4 -4,4"/>
<text text-anchor="start" x="262.0091" y="-42.4" font-family="sans-serif" font-weight="bold" font-size="14.00" fill="#000000">Legend</text>
<polygon fill="#ffffb3" stroke="transparent" points="49,-10 49,-30 69,-30 69,-10 49,-10"/>
<text text-anchor="start" x="72.629" y="-15.4" font-family="sans-serif" font-size="14.00" fill="#000000"> &#160;Declarations</text>
<polygon fill="#8dd3c7" stroke="transparent" points="162,-10 162,-30 182,-30 182,-10 162,-10"/>
<text text-anchor="start" x="185.7251" y="-15.4" font-family="sans-serif" font-size="14.00" fill="#000000"> &#160;Module</text>
<polygon fill="#80b1d3" stroke="transparent" points="248,-10 248,-30 268,-30 268,-10 248,-10"/>
<text text-anchor="start" x="271.7812" y="-15.4" font-family="sans-serif" font-size="14.00" fill="#000000"> &#160;Bootstrap</text>
<polygon fill="#fdb462" stroke="transparent" points="345,-10 345,-30 365,-30 365,-10 345,-10"/>
<text text-anchor="start" x="368.6732" y="-15.4" font-family="sans-serif" font-size="14.00" fill="#000000"> &#160;Providers</text>
<polygon fill="#fb8072" stroke="transparent" points="441,-10 441,-30 461,-30 461,-10 441,-10"/>
<text text-anchor="start" x="464.7258" y="-15.4" font-family="sans-serif" font-size="14.00" fill="#000000"> &#160;Exports</text>
<g id="clust1" class="cluster">
<title>cluster_PasswordlessModule</title>
<polygon fill="none" stroke="#000000" stroke-dasharray="1,5" points="8,-70 8,-268 558,-268 558,-70 8,-70"/>
</g>
<g id="clust2" class="cluster">
<title>cluster_PasswordlessModule_declarations</title>
<polygon fill="none" stroke="#000000" points="334,-78 334,-130 550,-130 550,-78 334,-78"/>
</g>
<g id="clust4" class="cluster">
<title>cluster_PasswordlessModule_imports</title>
<polygon fill="none" stroke="#000000" points="222,-78 222,-130 326,-130 326,-78 222,-78"/>
</g>
<g id="clust5" class="cluster">
<title>cluster_PasswordlessModule_exports</title>
<polygon fill="none" stroke="#000000" points="164,-208 164,-260 384,-260 384,-208 164,-208"/>
</g>
<g id="clust7" class="cluster">
<title>cluster_PasswordlessModule_providers</title>
<polygon fill="none" stroke="#000000" points="16,-78 16,-130 214,-130 214,-78 16,-78"/>
</g>
<!-- PasswordlessSuccessComponent -->
<g id="node1" class="node">
<title>PasswordlessSuccessComponent</title>
<polygon fill="#ffffb3" stroke="#000000" points="542.2962,-122 341.7038,-122 341.7038,-86 542.2962,-86 542.2962,-122"/>
<text text-anchor="middle" x="442" y="-99.8" font-family="Times,serif" font-size="14.00" fill="#000000">PasswordlessSuccessComponent</text>
</g>
<!-- PasswordlessModule -->
<g id="node2" class="node">
<title>PasswordlessModule</title>
<polygon fill="#8dd3c7" stroke="#000000" points="341.1979,-187 338.1979,-191 317.1979,-191 314.1979,-187 206.8021,-187 206.8021,-151 341.1979,-151 341.1979,-187"/>
<text text-anchor="middle" x="274" y="-164.8" font-family="Times,serif" font-size="14.00" fill="#000000">PasswordlessModule</text>
</g>
<!-- PasswordlessSuccessComponent&#45;&gt;PasswordlessModule -->
<g id="edge1" class="edge">
<title>PasswordlessSuccessComponent&#45;&gt;PasswordlessModule</title>
<path fill="none" stroke="#000000" d="M341.4825,-104C334.0806,-104 329.4362,-104 329.4362,-104 329.4362,-104 329.4362,-140.8939 329.4362,-140.8939"/>
<polygon fill="#000000" stroke="#000000" points="325.9363,-140.8938 329.4362,-150.8939 332.9363,-140.8939 325.9363,-140.8938"/>
</g>
<!-- PasswordlessSuccessComponent  -->
<g id="node4" class="node">
<title>PasswordlessSuccessComponent </title>
<polygon fill="#fb8072" stroke="#000000" points="375.7961,-252 172.2039,-252 172.2039,-216 375.7961,-216 375.7961,-252"/>
<text text-anchor="middle" x="274" y="-229.8" font-family="Times,serif" font-size="14.00" fill="#000000">PasswordlessSuccessComponent </text>
</g>
<!-- PasswordlessModule&#45;&gt;PasswordlessSuccessComponent  -->
<g id="edge3" class="edge">
<title>PasswordlessModule&#45;&gt;PasswordlessSuccessComponent </title>
<path fill="none" stroke="#000000" stroke-dasharray="5,2" d="M274,-187.1061C274,-187.1061 274,-205.991 274,-205.991"/>
<polygon fill="#000000" stroke="#000000" points="270.5001,-205.9909 274,-215.991 277.5001,-205.991 270.5001,-205.9909"/>
</g>
<!-- AuthModule -->
<g id="node3" class="node">
<title>AuthModule</title>
<polygon fill="#8dd3c7" stroke="#000000" points="317.5482,-122 314.5482,-126 293.5482,-126 290.5482,-122 230.4518,-122 230.4518,-86 317.5482,-86 317.5482,-122"/>
<text text-anchor="middle" x="274" y="-99.8" font-family="Times,serif" font-size="14.00" fill="#000000">AuthModule</text>
</g>
<!-- AuthModule&#45;&gt;PasswordlessModule -->
<g id="edge2" class="edge">
<title>AuthModule&#45;&gt;PasswordlessModule</title>
<path fill="none" stroke="#000000" d="M274,-122.1061C274,-122.1061 274,-140.991 274,-140.991"/>
<polygon fill="#000000" stroke="#000000" points="270.5001,-140.9909 274,-150.991 277.5001,-140.991 270.5001,-140.9909"/>
</g>
<!-- PasswordlessService -->
<g id="node5" class="node">
<title>PasswordlessService</title>
<ellipse fill="#fdb462" stroke="#000000" cx="115" cy="-104" rx="91.4654" ry="18"/>
<text text-anchor="middle" x="115" y="-99.8" font-family="Times,serif" font-size="14.00" fill="#000000">PasswordlessService</text>
</g>
<!-- PasswordlessService&#45;&gt;PasswordlessModule -->
<g id="edge4" class="edge">
<title>PasswordlessService&#45;&gt;PasswordlessModule</title>
<path fill="none" stroke="#000000" d="M206.6837,-104C213.9558,-104 218.5638,-104 218.5638,-104 218.5638,-104 218.5638,-140.8939 218.5638,-140.8939"/>
<polygon fill="#000000" stroke="#000000" points="215.0639,-140.8938 218.5638,-150.8939 222.0639,-140.8939 215.0639,-140.8938"/>
</g>
</g>
</svg>
