<?xml version="1.0" encoding="UTF-8" standalone="no"?>
<!DOCTYPE svg PUBLIC "-//W3C//DTD SVG 1.1//EN"
 "http://www.w3.org/Graphics/SVG/1.1/DTD/svg11.dtd">
<!-- Generated by graphviz version 2.40.1 (20161225.0304)
 -->
<!-- Title: dependencies Pages: 1 -->
<svg width="746pt" height="211pt"
 viewBox="0.00 0.00 746.00 211.00" xmlns="http://www.w3.org/2000/svg" xmlns:xlink="http://www.w3.org/1999/xlink">
<g id="graph0" class="graph" transform="scale(1 1) rotate(0) translate(4 207)">
<title>dependencies</title>
<polygon fill="#ffffff" stroke="transparent" points="-4,4 -4,-207 742,-207 742,4 -4,4"/>
<text text-anchor="start" x="348.0091" y="-42.4" font-family="sans-serif" font-weight="bold" font-size="14.00" fill="#000000">Legend</text>
<polygon fill="#ffffb3" stroke="transparent" points="135,-10 135,-30 155,-30 155,-10 135,-10"/>
<text text-anchor="start" x="158.629" y="-15.4" font-family="sans-serif" font-size="14.00" fill="#000000"> &#160;Declarations</text>
<polygon fill="#8dd3c7" stroke="transparent" points="248,-10 248,-30 268,-30 268,-10 248,-10"/>
<text text-anchor="start" x="271.7251" y="-15.4" font-family="sans-serif" font-size="14.00" fill="#000000"> &#160;Module</text>
<polygon fill="#80b1d3" stroke="transparent" points="334,-10 334,-30 354,-30 354,-10 334,-10"/>
<text text-anchor="start" x="357.7812" y="-15.4" font-family="sans-serif" font-size="14.00" fill="#000000"> &#160;Bootstrap</text>
<polygon fill="#fdb462" stroke="transparent" points="431,-10 431,-30 451,-30 451,-10 431,-10"/>
<text text-anchor="start" x="454.6732" y="-15.4" font-family="sans-serif" font-size="14.00" fill="#000000"> &#160;Providers</text>
<polygon fill="#fb8072" stroke="transparent" points="527,-10 527,-30 547,-30 547,-10 527,-10"/>
<text text-anchor="start" x="550.7258" y="-15.4" font-family="sans-serif" font-size="14.00" fill="#000000"> &#160;Exports</text>
<g id="clust1" class="cluster">
<title>cluster_GeoSearchModule</title>
<polygon fill="none" stroke="#000000" stroke-dasharray="1,5" points="8,-70 8,-195 730,-195 730,-70 8,-70"/>
</g>
<g id="clust3" class="cluster">
<title>cluster_GeoSearchModule_imports</title>
<polygon fill="none" stroke="#000000" points="580,-78 580,-130 722,-130 722,-78 580,-78"/>
</g>
<g id="clust6" class="cluster">
<title>cluster_GeoSearchModule_providers</title>
<polygon fill="none" stroke="#000000" points="16,-78 16,-130 572,-130 572,-78 16,-78"/>
</g>
<!-- DeepstreamModule -->
<g id="node1" class="node">
<title>DeepstreamModule</title>
<polygon fill="#8dd3c7" stroke="#000000" points="714.4018,-122 711.4018,-126 690.4018,-126 687.4018,-122 587.5982,-122 587.5982,-86 714.4018,-86 714.4018,-122"/>
<text text-anchor="middle" x="651" y="-99.8" font-family="Times,serif" font-size="14.00" fill="#000000">DeepstreamModule</text>
</g>
<!-- GeoSearchModule -->
<g id="node2" class="node">
<title>GeoSearchModule</title>
<polygon fill="#8dd3c7" stroke="#000000" points="447.458,-187 444.458,-191 423.458,-191 420.458,-187 326.542,-187 326.542,-151 447.458,-151 447.458,-187"/>
<text text-anchor="middle" x="387" y="-164.8" font-family="Times,serif" font-size="14.00" fill="#000000">GeoSearchModule</text>
</g>
<!-- DeepstreamModule&#45;&gt;GeoSearchModule -->
<g id="edge1" class="edge">
<title>DeepstreamModule&#45;&gt;GeoSearchModule</title>
<path fill="none" stroke="#000000" d="M651,-122.1061C651,-141.3391 651,-169 651,-169 651,-169 457.5669,-169 457.5669,-169"/>
<polygon fill="#000000" stroke="#000000" points="457.567,-165.5001 447.5669,-169 457.5669,-172.5001 457.567,-165.5001"/>
</g>
<!-- GeoSearchService -->
<g id="node3" class="node">
<title>GeoSearchService</title>
<ellipse fill="#fdb462" stroke="#000000" cx="482" cy="-104" rx="82.2006" ry="18"/>
<text text-anchor="middle" x="482" y="-99.8" font-family="Times,serif" font-size="14.00" fill="#000000">GeoSearchService</text>
</g>
<!-- GeoSearchService&#45;&gt;GeoSearchModule -->
<g id="edge2" class="edge">
<title>GeoSearchService&#45;&gt;GeoSearchModule</title>
<path fill="none" stroke="#000000" d="M423.5644,-116.8419C423.5644,-116.8419 423.5644,-140.5231 423.5644,-140.5231"/>
<polygon fill="#000000" stroke="#000000" points="420.0645,-140.523 423.5644,-150.5231 427.0645,-140.5231 420.0645,-140.523"/>
</g>
<!-- GeoSearchSelectors -->
<g id="node4" class="node">
<title>GeoSearchSelectors</title>
<ellipse fill="#fdb462" stroke="#000000" cx="293" cy="-104" rx="88.5793" ry="18"/>
<text text-anchor="middle" x="293" y="-99.8" font-family="Times,serif" font-size="14.00" fill="#000000">GeoSearchSelectors</text>
</g>
<!-- GeoSearchSelectors&#45;&gt;GeoSearchModule -->
<g id="edge3" class="edge">
<title>GeoSearchSelectors&#45;&gt;GeoSearchModule</title>
<path fill="none" stroke="#000000" d="M354.1552,-117.1537C354.1552,-117.1537 354.1552,-140.6938 354.1552,-140.6938"/>
<polygon fill="#000000" stroke="#000000" points="350.6553,-140.6938 354.1552,-150.6938 357.6553,-140.6939 350.6553,-140.6938"/>
</g>
<!-- GeoSearchEffects -->
<g id="node5" class="node">
<title>GeoSearchEffects</title>
<ellipse fill="#fdb462" stroke="#000000" cx="105" cy="-104" rx="80.9736" ry="18"/>
<text text-anchor="middle" x="105" y="-99.8" font-family="Times,serif" font-size="14.00" fill="#000000">GeoSearchEffects</text>
</g>
<!-- GeoSearchEffects&#45;&gt;GeoSearchModule -->
<g id="edge4" class="edge">
<title>GeoSearchEffects&#45;&gt;GeoSearchModule</title>
<path fill="none" stroke="#000000" d="M105,-122.1061C105,-141.3391 105,-169 105,-169 105,-169 316.5039,-169 316.5039,-169"/>
<polygon fill="#000000" stroke="#000000" points="316.504,-172.5001 326.5039,-169 316.5039,-165.5001 316.504,-172.5001"/>
</g>
</g>
</svg>
