<?xml version="1.0" encoding="UTF-8" standalone="no"?>
<!DOCTYPE svg PUBLIC "-//W3C//DTD SVG 1.1//EN"
 "http://www.w3.org/Graphics/SVG/1.1/DTD/svg11.dtd">
<!-- Generated by graphviz version 2.40.1 (20161225.0304)
 -->
<!-- Title: dependencies Pages: 1 -->
<svg width="2538pt" height="211pt"
 viewBox="0.00 0.00 2538.00 211.00" xmlns="http://www.w3.org/2000/svg" xmlns:xlink="http://www.w3.org/1999/xlink">
<g id="graph0" class="graph" transform="scale(1 1) rotate(0) translate(4 207)">
<title>dependencies</title>
<polygon fill="#ffffff" stroke="transparent" points="-4,4 -4,-207 2534,-207 2534,4 -4,4"/>
<text text-anchor="start" x="1244.0091" y="-42.4" font-family="sans-serif" font-weight="bold" font-size="14.00" fill="#000000">Legend</text>
<polygon fill="#ffffb3" stroke="transparent" points="1031,-10 1031,-30 1051,-30 1051,-10 1031,-10"/>
<text text-anchor="start" x="1054.629" y="-15.4" font-family="sans-serif" font-size="14.00" fill="#000000"> &#160;Declarations</text>
<polygon fill="#8dd3c7" stroke="transparent" points="1144,-10 1144,-30 1164,-30 1164,-10 1144,-10"/>
<text text-anchor="start" x="1167.7251" y="-15.4" font-family="sans-serif" font-size="14.00" fill="#000000"> &#160;Module</text>
<polygon fill="#80b1d3" stroke="transparent" points="1230,-10 1230,-30 1250,-30 1250,-10 1230,-10"/>
<text text-anchor="start" x="1253.7812" y="-15.4" font-family="sans-serif" font-size="14.00" fill="#000000"> &#160;Bootstrap</text>
<polygon fill="#fdb462" stroke="transparent" points="1327,-10 1327,-30 1347,-30 1347,-10 1327,-10"/>
<text text-anchor="start" x="1350.6732" y="-15.4" font-family="sans-serif" font-size="14.00" fill="#000000"> &#160;Providers</text>
<polygon fill="#fb8072" stroke="transparent" points="1423,-10 1423,-30 1443,-30 1443,-10 1423,-10"/>
<text text-anchor="start" x="1446.7258" y="-15.4" font-family="sans-serif" font-size="14.00" fill="#000000"> &#160;Exports</text>
<g id="clust1" class="cluster">
<title>cluster_HikeModule</title>
<polygon fill="none" stroke="#000000" stroke-dasharray="1,5" points="8,-70 8,-195 2522,-195 2522,-70 8,-70"/>
</g>
<g id="clust3" class="cluster">
<title>cluster_HikeModule_imports</title>
<polygon fill="none" stroke="#000000" points="2043,-78 2043,-130 2514,-130 2514,-78 2043,-78"/>
</g>
<g id="clust6" class="cluster">
<title>cluster_HikeModule_providers</title>
<polygon fill="none" stroke="#000000" points="16,-78 16,-130 2035,-130 2035,-78 16,-78"/>
</g>
<!-- SharedModule -->
<g id="node1" class="node">
<title>SharedModule</title>
<polygon fill="#8dd3c7" stroke="#000000" points="2506.4231,-122 2503.4231,-126 2482.4231,-126 2479.4231,-122 2407.5769,-122 2407.5769,-86 2506.4231,-86 2506.4231,-122"/>
<text text-anchor="middle" x="2457" y="-99.8" font-family="Times,serif" font-size="14.00" fill="#000000">SharedModule</text>
</g>
<!-- HikeModule -->
<g id="node5" class="node">
<title>HikeModule</title>
<polygon fill="#8dd3c7" stroke="#000000" points="1430.2619,-187 1427.2619,-191 1406.2619,-191 1403.2619,-187 1343.7381,-187 1343.7381,-151 1430.2619,-151 1430.2619,-187"/>
<text text-anchor="middle" x="1387" y="-164.8" font-family="Times,serif" font-size="14.00" fill="#000000">HikeModule</text>
</g>
<!-- SharedModule&#45;&gt;HikeModule -->
<g id="edge1" class="edge">
<title>SharedModule&#45;&gt;HikeModule</title>
<path fill="none" stroke="#000000" d="M2457,-122.3228C2457,-145.6602 2457,-183 2457,-183 2457,-183 1440.2705,-183 1440.2705,-183"/>
<polygon fill="#000000" stroke="#000000" points="1440.2705,-179.5001 1430.2705,-183 1440.2705,-186.5001 1440.2705,-179.5001"/>
</g>
<!-- MapModule -->
<g id="node2" class="node">
<title>MapModule</title>
<polygon fill="#8dd3c7" stroke="#000000" points="2389.7093,-122 2386.7093,-126 2365.7093,-126 2362.7093,-122 2304.2907,-122 2304.2907,-86 2389.7093,-86 2389.7093,-122"/>
<text text-anchor="middle" x="2347" y="-99.8" font-family="Times,serif" font-size="14.00" fill="#000000">MapModule</text>
</g>
<!-- MapModule&#45;&gt;HikeModule -->
<g id="edge2" class="edge">
<title>MapModule&#45;&gt;HikeModule</title>
<path fill="none" stroke="#000000" d="M2347,-122.1554C2347,-144.3519 2347,-179 2347,-179 2347,-179 1440.4285,-179 1440.4285,-179"/>
<polygon fill="#000000" stroke="#000000" points="1440.4285,-175.5001 1430.4285,-179 1440.4284,-182.5001 1440.4285,-175.5001"/>
</g>
<!-- RouterModule -->
<g id="node3" class="node">
<title>RouterModule</title>
<polygon fill="#8dd3c7" stroke="#000000" points="2286.6528,-122 2283.6528,-126 2262.6528,-126 2259.6528,-122 2189.3472,-122 2189.3472,-86 2286.6528,-86 2286.6528,-122"/>
<text text-anchor="middle" x="2238" y="-99.8" font-family="Times,serif" font-size="14.00" fill="#000000">RouterModule</text>
</g>
<!-- RouterModule&#45;&gt;HikeModule -->
<g id="edge3" class="edge">
<title>RouterModule&#45;&gt;HikeModule</title>
<path fill="none" stroke="#000000" d="M2238,-122.2843C2238,-143.3211 2238,-175 2238,-175 2238,-175 1440.3712,-175 1440.3712,-175"/>
<polygon fill="#000000" stroke="#000000" points="1440.3712,-171.5001 1430.3712,-175 1440.3711,-178.5001 1440.3712,-171.5001"/>
</g>
<!-- UserStatusModule -->
<g id="node4" class="node">
<title>UserStatusModule</title>
<polygon fill="#8dd3c7" stroke="#000000" points="2171.1994,-122 2168.1994,-126 2147.1994,-126 2144.1994,-122 2050.8006,-122 2050.8006,-86 2171.1994,-86 2171.1994,-122"/>
<text text-anchor="middle" x="2111" y="-99.8" font-family="Times,serif" font-size="14.00" fill="#000000">UserStatusModule</text>
</g>
<!-- UserStatusModule&#45;&gt;HikeModule -->
<g id="edge4" class="edge">
<title>UserStatusModule&#45;&gt;HikeModule</title>
<path fill="none" stroke="#000000" d="M2111,-122.308C2111,-142.1455 2111,-171 2111,-171 2111,-171 1440.3898,-171 1440.3898,-171"/>
<polygon fill="#000000" stroke="#000000" points="1440.3898,-167.5001 1430.3898,-171 1440.3898,-174.5001 1440.3898,-167.5001"/>
</g>
<!-- HikeProgramService -->
<g id="node6" class="node">
<title>HikeProgramService</title>
<ellipse fill="#fdb462" stroke="#000000" cx="1935" cy="-104" rx="92.0316" ry="18"/>
<text text-anchor="middle" x="1935" y="-99.8" font-family="Times,serif" font-size="14.00" fill="#000000">HikeProgramService</text>
</g>
<!-- HikeProgramService&#45;&gt;HikeModule -->
<g id="edge5" class="edge">
<title>HikeProgramService&#45;&gt;HikeModule</title>
<path fill="none" stroke="#000000" d="M1904.3281,-121.0652C1904.3281,-138.4902 1904.3281,-163 1904.3281,-163 1904.3281,-163 1440.6612,-163 1440.6612,-163"/>
<polygon fill="#000000" stroke="#000000" points="1440.6613,-159.5001 1430.6612,-163 1440.6612,-166.5001 1440.6613,-159.5001"/>
</g>
<!-- HikeProgramService&#45;&gt;HikeModule -->
<g id="edge6" class="edge">
<title>HikeProgramService&#45;&gt;HikeModule</title>
<path fill="none" stroke="#000000" d="M1965.6719,-121.215C1965.6719,-139.8682 1965.6719,-167 1965.6719,-167 1965.6719,-167 1440.4944,-167 1440.4944,-167"/>
<polygon fill="#000000" stroke="#000000" points="1440.4945,-163.5001 1430.4944,-167 1440.4944,-170.5001 1440.4945,-163.5001"/>
</g>
<!-- RouteService -->
<g id="node7" class="node">
<title>RouteService</title>
<ellipse fill="#fdb462" stroke="#000000" cx="1762" cy="-104" rx="63.1189" ry="18"/>
<text text-anchor="middle" x="1762" y="-99.8" font-family="Times,serif" font-size="14.00" fill="#000000">RouteService</text>
</g>
<!-- RouteService&#45;&gt;HikeModule -->
<g id="edge7" class="edge">
<title>RouteService&#45;&gt;HikeModule</title>
<path fill="none" stroke="#000000" d="M1762,-122.0091C1762,-138.0494 1762,-159 1762,-159 1762,-159 1440.3836,-159 1440.3836,-159"/>
<polygon fill="#000000" stroke="#000000" points="1440.3836,-155.5001 1430.3836,-159 1440.3836,-162.5001 1440.3836,-155.5001"/>
</g>
<!-- PoiService -->
<g id="node8" class="node">
<title>PoiService</title>
<ellipse fill="#fdb462" stroke="#000000" cx="1628" cy="-104" rx="52.745" ry="18"/>
<text text-anchor="middle" x="1628" y="-99.8" font-family="Times,serif" font-size="14.00" fill="#000000">PoiService</text>
</g>
<!-- PoiService&#45;&gt;HikeModule -->
<g id="edge8" class="edge">
<title>PoiService&#45;&gt;HikeModule</title>
<path fill="none" stroke="#000000" d="M1628,-122.1243C1628,-136.7832 1628,-155 1628,-155 1628,-155 1440.3643,-155 1440.3643,-155"/>
<polygon fill="#000000" stroke="#000000" points="1440.3643,-151.5001 1430.3643,-155 1440.3643,-158.5001 1440.3643,-151.5001"/>
</g>
<!-- GameRuleService -->
<g id="node9" class="node">
<title>GameRuleService</title>
<ellipse fill="#fdb462" stroke="#000000" cx="1476" cy="-104" rx="81.0763" ry="18"/>
<text text-anchor="middle" x="1476" y="-99.8" font-family="Times,serif" font-size="14.00" fill="#000000">GameRuleService</text>
</g>
<!-- GameRuleService&#45;&gt;HikeModule -->
<g id="edge9" class="edge">
<title>GameRuleService&#45;&gt;HikeModule</title>
<path fill="none" stroke="#000000" d="M1412.5465,-115.3221C1412.5465,-115.3221 1412.5465,-140.9424 1412.5465,-140.9424"/>
<polygon fill="#000000" stroke="#000000" points="1409.0466,-140.9424 1412.5465,-150.9424 1416.0466,-140.9425 1409.0466,-140.9424"/>
</g>
<!-- GeometryService -->
<g id="node10" class="node">
<title>GeometryService</title>
<ellipse fill="#fdb462" stroke="#000000" cx="1298" cy="-104" rx="78.7086" ry="18"/>
<text text-anchor="middle" x="1298" y="-99.8" font-family="Times,serif" font-size="14.00" fill="#000000">GeometryService</text>
</g>
<!-- GeometryService&#45;&gt;HikeModule -->
<g id="edge10" class="edge">
<title>GeometryService&#45;&gt;HikeModule</title>
<path fill="none" stroke="#000000" d="M1360.1117,-115.3221C1360.1117,-115.3221 1360.1117,-140.9424 1360.1117,-140.9424"/>
<polygon fill="#000000" stroke="#000000" points="1356.6118,-140.9424 1360.1117,-150.9424 1363.6118,-140.9425 1356.6118,-140.9424"/>
</g>
<!-- ElevationService -->
<g id="node11" class="node">
<title>ElevationService</title>
<ellipse fill="#fdb462" stroke="#000000" cx="1124" cy="-104" rx="77.0023" ry="18"/>
<text text-anchor="middle" x="1124" y="-99.8" font-family="Times,serif" font-size="14.00" fill="#000000">ElevationService</text>
</g>
<!-- ElevationService&#45;&gt;HikeModule -->
<g id="edge11" class="edge">
<title>ElevationService&#45;&gt;HikeModule</title>
<path fill="none" stroke="#000000" d="M1124,-122.1243C1124,-136.7832 1124,-155 1124,-155 1124,-155 1333.5709,-155 1333.5709,-155"/>
<polygon fill="#000000" stroke="#000000" points="1333.5709,-158.5001 1343.5709,-155 1333.5709,-151.5001 1333.5709,-158.5001"/>
</g>
<!-- CheckpointService -->
<g id="node12" class="node">
<title>CheckpointService</title>
<ellipse fill="#fdb462" stroke="#000000" cx="944" cy="-104" rx="84.5305" ry="18"/>
<text text-anchor="middle" x="944" y="-99.8" font-family="Times,serif" font-size="14.00" fill="#000000">CheckpointService</text>
</g>
<!-- CheckpointService&#45;&gt;HikeModule -->
<g id="edge12" class="edge">
<title>CheckpointService&#45;&gt;HikeModule</title>
<path fill="none" stroke="#000000" d="M944,-122.0091C944,-138.0494 944,-159 944,-159 944,-159 1333.7167,-159 1333.7167,-159"/>
<polygon fill="#000000" stroke="#000000" points="1333.7167,-162.5001 1343.7167,-159 1333.7167,-155.5001 1333.7167,-162.5001"/>
</g>
<!-- PoiSelectors -->
<g id="node13" class="node">
<title>PoiSelectors</title>
<ellipse fill="#fdb462" stroke="#000000" cx="782" cy="-104" rx="59.1237" ry="18"/>
<text text-anchor="middle" x="782" y="-99.8" font-family="Times,serif" font-size="14.00" fill="#000000">PoiSelectors</text>
</g>
<!-- PoiSelectors&#45;&gt;HikeModule -->
<g id="edge13" class="edge">
<title>PoiSelectors&#45;&gt;HikeModule</title>
<path fill="none" stroke="#000000" d="M782,-122.0225C782,-139.3734 782,-163 782,-163 782,-163 1333.4899,-163 1333.4899,-163"/>
<polygon fill="#000000" stroke="#000000" points="1333.4899,-166.5001 1343.4899,-163 1333.4899,-159.5001 1333.4899,-166.5001"/>
</g>
<!-- HikeSelectors -->
<g id="node14" class="node">
<title>HikeSelectors</title>
<ellipse fill="#fdb462" stroke="#000000" cx="639" cy="-104" rx="65.4033" ry="18"/>
<text text-anchor="middle" x="639" y="-99.8" font-family="Times,serif" font-size="14.00" fill="#000000">HikeSelectors</text>
</g>
<!-- HikeSelectors&#45;&gt;HikeModule -->
<g id="edge14" class="edge">
<title>HikeSelectors&#45;&gt;HikeModule</title>
<path fill="none" stroke="#000000" d="M639,-122.2222C639,-140.8285 639,-167 639,-167 639,-167 1333.5512,-167 1333.5512,-167"/>
<polygon fill="#000000" stroke="#000000" points="1333.5513,-170.5001 1343.5512,-167 1333.5512,-163.5001 1333.5513,-170.5001"/>
</g>
<!-- PoiEffects -->
<g id="node15" class="node">
<title>PoiEffects</title>
<ellipse fill="#fdb462" stroke="#000000" cx="505" cy="-104" rx="51.0184" ry="18"/>
<text text-anchor="middle" x="505" y="-99.8" font-family="Times,serif" font-size="14.00" fill="#000000">PoiEffects</text>
</g>
<!-- PoiEffects&#45;&gt;HikeModule -->
<g id="edge15" class="edge">
<title>PoiEffects&#45;&gt;HikeModule</title>
<path fill="none" stroke="#000000" d="M505,-122.308C505,-142.1455 505,-171 505,-171 505,-171 1333.5623,-171 1333.5623,-171"/>
<polygon fill="#000000" stroke="#000000" points="1333.5624,-174.5001 1343.5623,-171 1333.5623,-167.5001 1333.5624,-174.5001"/>
</g>
<!-- HikeEffects -->
<g id="node16" class="node">
<title>HikeEffects</title>
<ellipse fill="#fdb462" stroke="#000000" cx="379" cy="-104" rx="57.2972" ry="18"/>
<text text-anchor="middle" x="379" y="-99.8" font-family="Times,serif" font-size="14.00" fill="#000000">HikeEffects</text>
</g>
<!-- HikeEffects&#45;&gt;HikeModule -->
<g id="edge16" class="edge">
<title>HikeEffects&#45;&gt;HikeModule</title>
<path fill="none" stroke="#000000" d="M379,-122.2843C379,-143.3211 379,-175 379,-175 379,-175 1333.6875,-175 1333.6875,-175"/>
<polygon fill="#000000" stroke="#000000" points="1333.6875,-178.5001 1343.6875,-175 1333.6875,-171.5001 1333.6875,-178.5001"/>
</g>
<!-- RouteSelectors -->
<g id="node17" class="node">
<title>RouteSelectors</title>
<ellipse fill="#fdb462" stroke="#000000" cx="234" cy="-104" rx="69.4974" ry="18"/>
<text text-anchor="middle" x="234" y="-99.8" font-family="Times,serif" font-size="14.00" fill="#000000">RouteSelectors</text>
</g>
<!-- RouteSelectors&#45;&gt;HikeModule -->
<g id="edge17" class="edge">
<title>RouteSelectors&#45;&gt;HikeModule</title>
<path fill="none" stroke="#000000" d="M234,-122.1554C234,-144.3519 234,-179 234,-179 234,-179 1333.5578,-179 1333.5578,-179"/>
<polygon fill="#000000" stroke="#000000" points="1333.5578,-182.5001 1343.5578,-179 1333.5578,-175.5001 1333.5578,-182.5001"/>
</g>
<!-- RouteEffects -->
<g id="node18" class="node">
<title>RouteEffects</title>
<ellipse fill="#fdb462" stroke="#000000" cx="85" cy="-104" rx="61.3916" ry="18"/>
<text text-anchor="middle" x="85" y="-99.8" font-family="Times,serif" font-size="14.00" fill="#000000">RouteEffects</text>
</g>
<!-- RouteEffects&#45;&gt;HikeModule -->
<g id="edge18" class="edge">
<title>RouteEffects&#45;&gt;HikeModule</title>
<path fill="none" stroke="#000000" d="M85,-122.3228C85,-145.6602 85,-183 85,-183 85,-183 1333.6801,-183 1333.6801,-183"/>
<polygon fill="#000000" stroke="#000000" points="1333.6802,-186.5001 1343.6801,-183 1333.6801,-179.5001 1333.6802,-186.5001"/>
</g>
</g>
</svg>
