<?xml version="1.0" encoding="UTF-8" standalone="no"?>
<!DOCTYPE svg PUBLIC "-//W3C//DTD SVG 1.1//EN"
 "http://www.w3.org/Graphics/SVG/1.1/DTD/svg11.dtd">
<!-- Generated by graphviz version 2.40.1 (20161225.0304)
 -->
<!-- Title: dependencies Pages: 1 -->
<svg width="504pt" height="211pt"
 viewBox="0.00 0.00 504.00 211.00" xmlns="http://www.w3.org/2000/svg" xmlns:xlink="http://www.w3.org/1999/xlink">
<g id="graph0" class="graph" transform="scale(1 1) rotate(0) translate(4 207)">
<title>dependencies</title>
<polygon fill="#ffffff" stroke="transparent" points="-4,4 -4,-207 500,-207 500,4 -4,4"/>
<text text-anchor="start" x="227.0091" y="-42.4" font-family="sans-serif" font-weight="bold" font-size="14.00" fill="#000000">Legend</text>
<polygon fill="#ffffb3" stroke="transparent" points="14,-10 14,-30 34,-30 34,-10 14,-10"/>
<text text-anchor="start" x="37.629" y="-15.4" font-family="sans-serif" font-size="14.00" fill="#000000"> &#160;Declarations</text>
<polygon fill="#8dd3c7" stroke="transparent" points="127,-10 127,-30 147,-30 147,-10 127,-10"/>
<text text-anchor="start" x="150.7251" y="-15.4" font-family="sans-serif" font-size="14.00" fill="#000000"> &#160;Module</text>
<polygon fill="#80b1d3" stroke="transparent" points="213,-10 213,-30 233,-30 233,-10 213,-10"/>
<text text-anchor="start" x="236.7812" y="-15.4" font-family="sans-serif" font-size="14.00" fill="#000000"> &#160;Bootstrap</text>
<polygon fill="#fdb462" stroke="transparent" points="310,-10 310,-30 330,-30 330,-10 310,-10"/>
<text text-anchor="start" x="333.6732" y="-15.4" font-family="sans-serif" font-size="14.00" fill="#000000"> &#160;Providers</text>
<polygon fill="#fb8072" stroke="transparent" points="406,-10 406,-30 426,-30 426,-10 406,-10"/>
<text text-anchor="start" x="429.7258" y="-15.4" font-family="sans-serif" font-size="14.00" fill="#000000"> &#160;Exports</text>
<g id="clust1" class="cluster">
<title>cluster_RouterModule</title>
<polygon fill="none" stroke="#000000" stroke-dasharray="1,5" points="85.5,-70 85.5,-195 410.5,-195 410.5,-70 85.5,-70"/>
</g>
<g id="clust6" class="cluster">
<title>cluster_RouterModule_providers</title>
<polygon fill="none" stroke="#000000" points="93.5,-78 93.5,-130 402.5,-130 402.5,-78 93.5,-78"/>
</g>
<!-- RouterSelectors -->
<g id="node1" class="node">
<title>RouterSelectors</title>
<ellipse fill="#fdb462" stroke="#000000" cx="321.5" cy="-104" rx="72.9276" ry="18"/>
<text text-anchor="middle" x="321.5" y="-99.8" font-family="Times,serif" font-size="14.00" fill="#000000">RouterSelectors</text>
</g>
<!-- RouterModule -->
<g id="node3" class="node">
<title>RouterModule</title>
<polygon fill="#8dd3c7" stroke="#000000" points="292.1528,-187 289.1528,-191 268.1528,-191 265.1528,-187 194.8472,-187 194.8472,-151 292.1528,-151 292.1528,-187"/>
<text text-anchor="middle" x="243.5" y="-164.8" font-family="Times,serif" font-size="14.00" fill="#000000">RouterModule</text>
</g>
<!-- RouterSelectors&#45;&gt;RouterModule -->
<g id="edge1" class="edge">
<title>RouterSelectors&#45;&gt;RouterModule</title>
<path fill="none" stroke="#000000" d="M270.5563,-117.1537C270.5563,-117.1537 270.5563,-140.6938 270.5563,-140.6938"/>
<polygon fill="#000000" stroke="#000000" points="267.0564,-140.6938 270.5563,-150.6938 274.0564,-140.6939 267.0564,-140.6938"/>
</g>
<!-- RouterEffects -->
<g id="node2" class="node">
<title>RouterEffects</title>
<ellipse fill="#fdb462" stroke="#000000" cx="166.5" cy="-104" rx="64.8215" ry="18"/>
<text text-anchor="middle" x="166.5" y="-99.8" font-family="Times,serif" font-size="14.00" fill="#000000">RouterEffects</text>
</g>
<!-- RouterEffects&#45;&gt;RouterModule -->
<g id="edge2" class="edge">
<title>RouterEffects&#45;&gt;RouterModule</title>
<path fill="none" stroke="#000000" d="M212.9172,-116.5327C212.9172,-116.5327 212.9172,-140.8507 212.9172,-140.8507"/>
<polygon fill="#000000" stroke="#000000" points="209.4173,-140.8506 212.9172,-150.8507 216.4173,-140.8507 209.4173,-140.8506"/>
</g>
</g>
</svg>
