<?xml version="1.0" encoding="UTF-8" standalone="no"?>
<!DOCTYPE svg PUBLIC "-//W3C//DTD SVG 1.1//EN"
 "http://www.w3.org/Graphics/SVG/1.1/DTD/svg11.dtd">
<!-- Generated by graphviz version 2.40.1 (20161225.0304)
 -->
<!-- Title: dependencies Pages: 1 -->
<svg width="504pt" height="211pt"
 viewBox="0.00 0.00 504.00 211.00" xmlns="http://www.w3.org/2000/svg" xmlns:xlink="http://www.w3.org/1999/xlink">
<g id="graph0" class="graph" transform="scale(1 1) rotate(0) translate(4 207)">
<title>dependencies</title>
<polygon fill="#ffffff" stroke="transparent" points="-4,4 -4,-207 500,-207 500,4 -4,4"/>
<text text-anchor="start" x="227.0091" y="-42.4" font-family="sans-serif" font-weight="bold" font-size="14.00" fill="#000000">Legend</text>
<polygon fill="#ffffb3" stroke="transparent" points="14,-10 14,-30 34,-30 34,-10 14,-10"/>
<text text-anchor="start" x="37.629" y="-15.4" font-family="sans-serif" font-size="14.00" fill="#000000"> &#160;Declarations</text>
<polygon fill="#8dd3c7" stroke="transparent" points="127,-10 127,-30 147,-30 147,-10 127,-10"/>
<text text-anchor="start" x="150.7251" y="-15.4" font-family="sans-serif" font-size="14.00" fill="#000000"> &#160;Module</text>
<polygon fill="#80b1d3" stroke="transparent" points="213,-10 213,-30 233,-30 233,-10 213,-10"/>
<text text-anchor="start" x="236.7812" y="-15.4" font-family="sans-serif" font-size="14.00" fill="#000000"> &#160;Bootstrap</text>
<polygon fill="#fdb462" stroke="transparent" points="310,-10 310,-30 330,-30 330,-10 310,-10"/>
<text text-anchor="start" x="333.6732" y="-15.4" font-family="sans-serif" font-size="14.00" fill="#000000"> &#160;Providers</text>
<polygon fill="#fb8072" stroke="transparent" points="406,-10 406,-30 426,-30 426,-10 406,-10"/>
<text text-anchor="start" x="429.7258" y="-15.4" font-family="sans-serif" font-size="14.00" fill="#000000"> &#160;Exports</text>
<g id="clust1" class="cluster">
<title>cluster_ApiModule</title>
<polygon fill="none" stroke="#000000" stroke-dasharray="1,5" points="115,-70 115,-195 381,-195 381,-70 115,-70"/>
</g>
<g id="clust3" class="cluster">
<title>cluster_ApiModule_imports</title>
<polygon fill="none" stroke="#000000" points="255,-78 255,-130 373,-130 373,-78 255,-78"/>
</g>
<g id="clust6" class="cluster">
<title>cluster_ApiModule_providers</title>
<polygon fill="none" stroke="#000000" points="123,-78 123,-130 247,-130 247,-78 123,-78"/>
</g>
<!-- StorageModule -->
<g id="node1" class="node">
<title>StorageModule</title>
<polygon fill="#8dd3c7" stroke="#000000" points="365.3133,-122 362.3133,-126 341.3133,-126 338.3133,-122 262.6867,-122 262.6867,-86 365.3133,-86 365.3133,-122"/>
<text text-anchor="middle" x="314" y="-99.8" font-family="Times,serif" font-size="14.00" fill="#000000">StorageModule</text>
</g>
<!-- ApiModule -->
<g id="node2" class="node">
<title>ApiModule</title>
<polygon fill="#8dd3c7" stroke="#000000" points="289.0483,-187 286.0483,-191 265.0483,-191 262.0483,-187 208.9517,-187 208.9517,-151 289.0483,-151 289.0483,-187"/>
<text text-anchor="middle" x="249" y="-164.8" font-family="Times,serif" font-size="14.00" fill="#000000">ApiModule</text>
</g>
<!-- StorageModule&#45;&gt;ApiModule -->
<g id="edge1" class="edge">
<title>StorageModule&#45;&gt;ApiModule</title>
<path fill="none" stroke="#000000" d="M276.0585,-122.1061C276.0585,-122.1061 276.0585,-140.991 276.0585,-140.991"/>
<polygon fill="#000000" stroke="#000000" points="272.5586,-140.9909 276.0585,-150.991 279.5586,-140.991 272.5586,-140.9909"/>
</g>
<!-- ApiService -->
<g id="node3" class="node">
<title>ApiService</title>
<ellipse fill="#fdb462" stroke="#000000" cx="185" cy="-104" rx="54.4508" ry="18"/>
<text text-anchor="middle" x="185" y="-99.8" font-family="Times,serif" font-size="14.00" fill="#000000">ApiService</text>
</g>
<!-- ApiService&#45;&gt;ApiModule -->
<g id="edge2" class="edge">
<title>ApiService&#45;&gt;ApiModule</title>
<path fill="none" stroke="#000000" d="M224.1009,-116.8419C224.1009,-116.8419 224.1009,-140.5231 224.1009,-140.5231"/>
<polygon fill="#000000" stroke="#000000" points="220.601,-140.523 224.1009,-150.5231 227.601,-140.5231 220.601,-140.523"/>
</g>
</g>
</svg>
