<?xml version="1.0" encoding="UTF-8" standalone="no"?>
<!DOCTYPE svg PUBLIC "-//W3C//DTD SVG 1.1//EN"
 "http://www.w3.org/Graphics/SVG/1.1/DTD/svg11.dtd">
<!-- Generated by graphviz version 2.40.1 (20161225.0304)
 -->
<!-- Title: dependencies Pages: 1 -->
<svg width="720pt" height="284pt"
 viewBox="0.00 0.00 720.00 284.00" xmlns="http://www.w3.org/2000/svg" xmlns:xlink="http://www.w3.org/1999/xlink">
<g id="graph0" class="graph" transform="scale(1 1) rotate(0) translate(4 280)">
<title>dependencies</title>
<polygon fill="#ffffff" stroke="transparent" points="-4,4 -4,-280 716,-280 716,4 -4,4"/>
<text text-anchor="start" x="335.0091" y="-42.4" font-family="sans-serif" font-weight="bold" font-size="14.00" fill="#000000">Legend</text>
<polygon fill="#ffffb3" stroke="transparent" points="122,-10 122,-30 142,-30 142,-10 122,-10"/>
<text text-anchor="start" x="145.629" y="-15.4" font-family="sans-serif" font-size="14.00" fill="#000000"> &#160;Declarations</text>
<polygon fill="#8dd3c7" stroke="transparent" points="235,-10 235,-30 255,-30 255,-10 235,-10"/>
<text text-anchor="start" x="258.7251" y="-15.4" font-family="sans-serif" font-size="14.00" fill="#000000"> &#160;Module</text>
<polygon fill="#80b1d3" stroke="transparent" points="321,-10 321,-30 341,-30 341,-10 321,-10"/>
<text text-anchor="start" x="344.7812" y="-15.4" font-family="sans-serif" font-size="14.00" fill="#000000"> &#160;Bootstrap</text>
<polygon fill="#fdb462" stroke="transparent" points="418,-10 418,-30 438,-30 438,-10 418,-10"/>
<text text-anchor="start" x="441.6732" y="-15.4" font-family="sans-serif" font-size="14.00" fill="#000000"> &#160;Providers</text>
<polygon fill="#fb8072" stroke="transparent" points="514,-10 514,-30 534,-30 534,-10 514,-10"/>
<text text-anchor="start" x="537.7258" y="-15.4" font-family="sans-serif" font-size="14.00" fill="#000000"> &#160;Exports</text>
<g id="clust1" class="cluster">
<title>cluster_SharedModule</title>
<polygon fill="none" stroke="#000000" stroke-dasharray="1,5" points="8,-70 8,-268 704,-268 704,-70 8,-70"/>
</g>
<g id="clust2" class="cluster">
<title>cluster_SharedModule_declarations</title>
<polygon fill="none" stroke="#000000" points="360,-78 360,-130 696,-130 696,-78 360,-78"/>
</g>
<g id="clust7" class="cluster">
<title>cluster_SharedModule_exports</title>
<polygon fill="none" stroke="#000000" points="241,-208 241,-260 587,-260 587,-208 241,-208"/>
</g>
<g id="clust9" class="cluster">
<title>cluster_SharedModule_providers</title>
<polygon fill="none" stroke="#000000" points="16,-78 16,-130 352,-130 352,-78 16,-78"/>
</g>
<!-- DistancePipe -->
<g id="node1" class="node">
<title>DistancePipe</title>
<polygon fill="#ffffb3" stroke="#000000" points="687.8641,-122 598.1359,-122 598.1359,-86 687.8641,-86 687.8641,-122"/>
<text text-anchor="middle" x="643" y="-99.8" font-family="Times,serif" font-size="14.00" fill="#000000">DistancePipe</text>
</g>
<!-- SharedModule -->
<g id="node4" class="node">
<title>SharedModule</title>
<polygon fill="#8dd3c7" stroke="#000000" points="469.4231,-187 466.4231,-191 445.4231,-191 442.4231,-187 370.5769,-187 370.5769,-151 469.4231,-151 469.4231,-187"/>
<text text-anchor="middle" x="420" y="-164.8" font-family="Times,serif" font-size="14.00" fill="#000000">SharedModule</text>
</g>
<!-- DistancePipe&#45;&gt;SharedModule -->
<g id="edge1" class="edge">
<title>DistancePipe&#45;&gt;SharedModule</title>
<path fill="none" stroke="#000000" d="M643,-122.1061C643,-141.3391 643,-169 643,-169 643,-169 479.2144,-169 479.2144,-169"/>
<polygon fill="#000000" stroke="#000000" points="479.2144,-165.5001 469.2144,-169 479.2143,-172.5001 479.2144,-165.5001"/>
</g>
<!-- DurationPipe -->
<g id="node2" class="node">
<title>DurationPipe</title>
<polygon fill="#ffffb3" stroke="#000000" points="580.1515,-122 489.8485,-122 489.8485,-86 580.1515,-86 580.1515,-122"/>
<text text-anchor="middle" x="535" y="-99.8" font-family="Times,serif" font-size="14.00" fill="#000000">DurationPipe</text>
</g>
<!-- DurationPipe&#45;&gt;SharedModule -->
<g id="edge2" class="edge">
<title>DurationPipe&#45;&gt;SharedModule</title>
<path fill="none" stroke="#000000" d="M519.3437,-122.027C519.3437,-138.3976 519.3437,-160 519.3437,-160 519.3437,-160 479.3808,-160 479.3808,-160"/>
<polygon fill="#000000" stroke="#000000" points="479.3809,-156.5001 469.3808,-160 479.3808,-163.5001 479.3809,-156.5001"/>
</g>
<!-- CoordinatePipe -->
<g id="node3" class="node">
<title>CoordinatePipe</title>
<polygon fill="#ffffb3" stroke="#000000" points="471.5954,-122 368.4046,-122 368.4046,-86 471.5954,-86 471.5954,-122"/>
<text text-anchor="middle" x="420" y="-99.8" font-family="Times,serif" font-size="14.00" fill="#000000">CoordinatePipe</text>
</g>
<!-- CoordinatePipe&#45;&gt;SharedModule -->
<g id="edge3" class="edge">
<title>CoordinatePipe&#45;&gt;SharedModule</title>
<path fill="none" stroke="#000000" d="M420,-122.1061C420,-122.1061 420,-140.991 420,-140.991"/>
<polygon fill="#000000" stroke="#000000" points="416.5001,-140.9909 420,-150.991 423.5001,-140.991 416.5001,-140.9909"/>
</g>
<!-- DistancePipe  -->
<g id="node5" class="node">
<title>DistancePipe </title>
<polygon fill="#fb8072" stroke="#000000" points="578.8647,-252 485.1353,-252 485.1353,-216 578.8647,-216 578.8647,-252"/>
<text text-anchor="middle" x="532" y="-229.8" font-family="Times,serif" font-size="14.00" fill="#000000">DistancePipe </text>
</g>
<!-- SharedModule&#45;&gt;DistancePipe  -->
<g id="edge4" class="edge">
<title>SharedModule&#45;&gt;DistancePipe </title>
<path fill="none" stroke="#000000" stroke-dasharray="5,2" d="M469.5108,-178C505.8931,-178 549.0129,-178 549.0129,-178 549.0129,-178 549.0129,-205.973 549.0129,-205.973"/>
<polygon fill="#000000" stroke="#000000" points="545.513,-205.973 549.0129,-215.973 552.513,-205.973 545.513,-205.973"/>
</g>
<!-- DurationPipe  -->
<g id="node6" class="node">
<title>DurationPipe </title>
<polygon fill="#fb8072" stroke="#000000" points="467.1509,-252 372.8491,-252 372.8491,-216 467.1509,-216 467.1509,-252"/>
<text text-anchor="middle" x="420" y="-229.8" font-family="Times,serif" font-size="14.00" fill="#000000">DurationPipe </text>
</g>
<!-- SharedModule&#45;&gt;DurationPipe  -->
<g id="edge5" class="edge">
<title>SharedModule&#45;&gt;DurationPipe </title>
<path fill="none" stroke="#000000" stroke-dasharray="5,2" d="M420,-187.1061C420,-187.1061 420,-205.991 420,-205.991"/>
<polygon fill="#000000" stroke="#000000" points="416.5001,-205.9909 420,-215.991 423.5001,-205.991 416.5001,-205.9909"/>
</g>
<!-- CoordinatePipe  -->
<g id="node7" class="node">
<title>CoordinatePipe </title>
<polygon fill="#fb8072" stroke="#000000" points="355.0962,-252 248.9038,-252 248.9038,-216 355.0962,-216 355.0962,-252"/>
<text text-anchor="middle" x="302" y="-229.8" font-family="Times,serif" font-size="14.00" fill="#000000">CoordinatePipe </text>
</g>
<!-- SharedModule&#45;&gt;CoordinatePipe  -->
<g id="edge6" class="edge">
<title>SharedModule&#45;&gt;CoordinatePipe </title>
<path fill="none" stroke="#000000" stroke-dasharray="5,2" d="M370.7266,-178C358.8963,-178 349.6062,-178 349.6062,-178 349.6062,-178 349.6062,-205.973 349.6062,-205.973"/>
<polygon fill="#000000" stroke="#000000" points="346.1063,-205.973 349.6062,-215.973 353.1063,-205.973 346.1063,-205.973"/>
</g>
<!-- UnitsService -->
<g id="node8" class="node">
<title>UnitsService</title>
<ellipse fill="#fdb462" stroke="#000000" cx="283" cy="-104" rx="60.8294" ry="18"/>
<text text-anchor="middle" x="283" y="-99.8" font-family="Times,serif" font-size="14.00" fill="#000000">UnitsService</text>
</g>
<!-- UnitsService&#45;&gt;SharedModule -->
<g id="edge7" class="edge">
<title>UnitsService&#45;&gt;SharedModule</title>
<path fill="none" stroke="#000000" d="M296.3085,-121.7188C296.3085,-138.125 296.3085,-160 296.3085,-160 296.3085,-160 360.7584,-160 360.7584,-160"/>
<polygon fill="#000000" stroke="#000000" points="360.7585,-163.5001 370.7584,-160 360.7584,-156.5001 360.7585,-163.5001"/>
</g>
<!-- GoogleMapsService -->
<g id="node9" class="node">
<title>GoogleMapsService</title>
<ellipse fill="#fdb462" stroke="#000000" cx="114" cy="-104" rx="89.7479" ry="18"/>
<text text-anchor="middle" x="114" y="-99.8" font-family="Times,serif" font-size="14.00" fill="#000000">GoogleMapsService</text>
</g>
<!-- GoogleMapsService&#45;&gt;SharedModule -->
<g id="edge8" class="edge">
<title>GoogleMapsService&#45;&gt;SharedModule</title>
<path fill="none" stroke="#000000" d="M114,-122.1061C114,-141.3391 114,-169 114,-169 114,-169 360.4957,-169 360.4957,-169"/>
<polygon fill="#000000" stroke="#000000" points="360.4958,-172.5001 370.4957,-169 360.4957,-165.5001 360.4958,-172.5001"/>
</g>
</g>
</svg>
