<?xml version="1.0" encoding="UTF-8" standalone="no"?>
<!DOCTYPE svg PUBLIC "-//W3C//DTD SVG 1.1//EN"
 "http://www.w3.org/Graphics/SVG/1.1/DTD/svg11.dtd">
<!-- Generated by graphviz version 2.40.1 (20161225.0304)
 -->
<!-- Title: dependencies Pages: 1 -->
<svg width="3723pt" height="284pt"
 viewBox="0.00 0.00 3723.00 284.00" xmlns="http://www.w3.org/2000/svg" xmlns:xlink="http://www.w3.org/1999/xlink">
<g id="graph0" class="graph" transform="scale(1 1) rotate(0) translate(4 280)">
<title>dependencies</title>
<polygon fill="#ffffff" stroke="transparent" points="-4,4 -4,-280 3719,-280 3719,4 -4,4"/>
<text text-anchor="start" x="1836.5091" y="-42.4" font-family="sans-serif" font-weight="bold" font-size="14.00" fill="#000000">Legend</text>
<polygon fill="#ffffb3" stroke="transparent" points="1623.5,-10 1623.5,-30 1643.5,-30 1643.5,-10 1623.5,-10"/>
<text text-anchor="start" x="1647.129" y="-15.4" font-family="sans-serif" font-size="14.00" fill="#000000"> &#160;Declarations</text>
<polygon fill="#8dd3c7" stroke="transparent" points="1736.5,-10 1736.5,-30 1756.5,-30 1756.5,-10 1736.5,-10"/>
<text text-anchor="start" x="1760.2251" y="-15.4" font-family="sans-serif" font-size="14.00" fill="#000000"> &#160;Module</text>
<polygon fill="#80b1d3" stroke="transparent" points="1822.5,-10 1822.5,-30 1842.5,-30 1842.5,-10 1822.5,-10"/>
<text text-anchor="start" x="1846.2812" y="-15.4" font-family="sans-serif" font-size="14.00" fill="#000000"> &#160;Bootstrap</text>
<polygon fill="#fdb462" stroke="transparent" points="1919.5,-10 1919.5,-30 1939.5,-30 1939.5,-10 1919.5,-10"/>
<text text-anchor="start" x="1943.1732" y="-15.4" font-family="sans-serif" font-size="14.00" fill="#000000"> &#160;Providers</text>
<polygon fill="#fb8072" stroke="transparent" points="2015.5,-10 2015.5,-30 2035.5,-30 2035.5,-10 2015.5,-10"/>
<text text-anchor="start" x="2039.2258" y="-15.4" font-family="sans-serif" font-size="14.00" fill="#000000"> &#160;Exports</text>
<g id="clust1" class="cluster">
<title>cluster_HikeEditModule</title>
<polygon fill="none" stroke="#000000" stroke-dasharray="1,5" points="8,-70 8,-268 3707,-268 3707,-70 8,-70"/>
</g>
<g id="clust2" class="cluster">
<title>cluster_HikeEditModule_declarations</title>
<polygon fill="none" stroke="#000000" points="688,-78 688,-130 3699,-130 3699,-78 688,-78"/>
</g>
<g id="clust18" class="cluster">
<title>cluster_HikeEditModule_imports</title>
<polygon fill="none" stroke="#000000" points="242,-78 242,-130 680,-130 680,-78 242,-78"/>
</g>
<g id="clust19" class="cluster">
<title>cluster_HikeEditModule_exports</title>
<polygon fill="none" stroke="#000000" points="311,-208 311,-260 3045,-260 3045,-208 311,-208"/>
</g>
<g id="clust21" class="cluster">
<title>cluster_HikeEditModule_providers</title>
<polygon fill="none" stroke="#000000" points="16,-78 16,-130 234,-130 234,-78 16,-78"/>
</g>
<!-- AdminLeafletComponent -->
<g id="node1" class="node">
<title>AdminLeafletComponent</title>
<polygon fill="#ffffb3" stroke="#000000" points="3690.8585,-122 3531.1415,-122 3531.1415,-86 3690.8585,-86 3690.8585,-122"/>
<text text-anchor="middle" x="3611" y="-99.8" font-family="Times,serif" font-size="14.00" fill="#000000">AdminLeafletComponent</text>
</g>
<!-- HikeEditModule -->
<g id="node16" class="node">
<title>HikeEditModule</title>
<polygon fill="#8dd3c7" stroke="#000000" points="1794.0954,-187 1791.0954,-191 1770.0954,-191 1767.0954,-187 1683.9046,-187 1683.9046,-151 1794.0954,-151 1794.0954,-187"/>
<text text-anchor="middle" x="1739" y="-164.8" font-family="Times,serif" font-size="14.00" fill="#000000">HikeEditModule</text>
</g>
<!-- AdminLeafletComponent&#45;&gt;HikeEditModule -->
<g id="edge1" class="edge">
<title>AdminLeafletComponent&#45;&gt;HikeEditModule</title>
<path fill="none" stroke="#000000" d="M3611,-122.2228C3611,-142.3652 3611,-172 3611,-172 3611,-172 1804.2642,-172 1804.2642,-172"/>
<polygon fill="#000000" stroke="#000000" points="1804.2642,-168.5001 1794.2642,-172 1804.2642,-175.5001 1804.2642,-168.5001"/>
</g>
<!-- ObjectToArrayPipe -->
<g id="node2" class="node">
<title>ObjectToArrayPipe</title>
<polygon fill="#ffffb3" stroke="#000000" points="3513.4004,-122 3386.5996,-122 3386.5996,-86 3513.4004,-86 3513.4004,-122"/>
<text text-anchor="middle" x="3450" y="-99.8" font-family="Times,serif" font-size="14.00" fill="#000000">ObjectToArrayPipe</text>
</g>
<!-- ObjectToArrayPipe&#45;&gt;HikeEditModule -->
<g id="edge2" class="edge">
<title>ObjectToArrayPipe&#45;&gt;HikeEditModule</title>
<path fill="none" stroke="#000000" d="M3450,-122.1061C3450,-141.3391 3450,-169 3450,-169 3450,-169 1804.4718,-169 1804.4718,-169"/>
<polygon fill="#000000" stroke="#000000" points="1804.4718,-165.5001 1794.4718,-169 1804.4717,-172.5001 1804.4718,-165.5001"/>
</g>
<!-- HikeEditComponent -->
<g id="node3" class="node">
<title>HikeEditComponent</title>
<polygon fill="#ffffb3" stroke="#000000" points="3368.8781,-122 3237.1219,-122 3237.1219,-86 3368.8781,-86 3368.8781,-122"/>
<text text-anchor="middle" x="3303" y="-99.8" font-family="Times,serif" font-size="14.00" fill="#000000">HikeEditComponent</text>
</g>
<!-- HikeEditComponent&#45;&gt;HikeEditModule -->
<g id="edge3" class="edge">
<title>HikeEditComponent&#45;&gt;HikeEditModule</title>
<path fill="none" stroke="#000000" d="M3303,-122.2222C3303,-140.8285 3303,-167 3303,-167 3303,-167 1804.2042,-167 1804.2042,-167"/>
<polygon fill="#000000" stroke="#000000" points="1804.2042,-163.5001 1794.2042,-167 1804.2042,-170.5001 1804.2042,-163.5001"/>
</g>
<!-- HikeEditGeneralInfoComponent -->
<g id="node4" class="node">
<title>HikeEditGeneralInfoComponent</title>
<polygon fill="#ffffb3" stroke="#000000" points="3218.5014,-122 3019.4986,-122 3019.4986,-86 3218.5014,-86 3218.5014,-122"/>
<text text-anchor="middle" x="3119" y="-99.8" font-family="Times,serif" font-size="14.00" fill="#000000">HikeEditGeneralInfoComponent</text>
</g>
<!-- HikeEditGeneralInfoComponent&#45;&gt;HikeEditModule -->
<g id="edge4" class="edge">
<title>HikeEditGeneralInfoComponent&#45;&gt;HikeEditModule</title>
<path fill="none" stroke="#000000" d="M3027.9693,-122.302C3027.9693,-140.2699 3027.9693,-165 3027.9693,-165 3027.9693,-165 1804.3854,-165 1804.3854,-165"/>
<polygon fill="#000000" stroke="#000000" points="1804.3854,-161.5001 1794.3854,-165 1804.3854,-168.5001 1804.3854,-161.5001"/>
</g>
<!-- HikeEditMapComponent -->
<g id="node5" class="node">
<title>HikeEditMapComponent</title>
<polygon fill="#ffffb3" stroke="#000000" points="3000.5379,-122 2843.4621,-122 2843.4621,-86 3000.5379,-86 3000.5379,-122"/>
<text text-anchor="middle" x="2922" y="-99.8" font-family="Times,serif" font-size="14.00" fill="#000000">HikeEditMapComponent</text>
</g>
<!-- HikeEditMapComponent&#45;&gt;HikeEditModule -->
<g id="edge5" class="edge">
<title>HikeEditMapComponent&#45;&gt;HikeEditModule</title>
<path fill="none" stroke="#000000" d="M2863.3659,-122.0225C2863.3659,-139.3734 2863.3659,-163 2863.3659,-163 2863.3659,-163 1804.374,-163 1804.374,-163"/>
<polygon fill="#000000" stroke="#000000" points="1804.374,-159.5001 1794.374,-163 1804.3739,-166.5001 1804.374,-159.5001"/>
</g>
<!-- HikeEditRoutePlannerComponent -->
<g id="node6" class="node">
<title>HikeEditRoutePlannerComponent</title>
<polygon fill="#ffffb3" stroke="#000000" points="2825.0828,-122 2616.9172,-122 2616.9172,-86 2825.0828,-86 2825.0828,-122"/>
<text text-anchor="middle" x="2721" y="-99.8" font-family="Times,serif" font-size="14.00" fill="#000000">HikeEditRoutePlannerComponent</text>
</g>
<!-- HikeEditRoutePlannerComponent&#45;&gt;HikeEditModule -->
<g id="edge6" class="edge">
<title>HikeEditRoutePlannerComponent&#45;&gt;HikeEditModule</title>
<path fill="none" stroke="#000000" d="M2639.7386,-122.027C2639.7386,-138.3976 2639.7386,-160 2639.7386,-160 2639.7386,-160 1804.327,-160 1804.327,-160"/>
<polygon fill="#000000" stroke="#000000" points="1804.327,-156.5001 1794.327,-160 1804.3269,-163.5001 1804.327,-156.5001"/>
</g>
<!-- HikeEditPoisComponent -->
<g id="node7" class="node">
<title>HikeEditPoisComponent</title>
<polygon fill="#ffffb3" stroke="#000000" points="2598.9958,-122 2443.0042,-122 2443.0042,-86 2598.9958,-86 2598.9958,-122"/>
<text text-anchor="middle" x="2521" y="-99.8" font-family="Times,serif" font-size="14.00" fill="#000000">HikeEditPoisComponent</text>
</g>
<!-- HikeEditPoisComponent&#45;&gt;HikeEditModule -->
<g id="edge7" class="edge">
<title>HikeEditPoisComponent&#45;&gt;HikeEditModule</title>
<path fill="none" stroke="#000000" d="M2463.3968,-122.2819C2463.3968,-137.9478 2463.3968,-158 2463.3968,-158 2463.3968,-158 1804.3404,-158 1804.3404,-158"/>
<polygon fill="#000000" stroke="#000000" points="1804.3404,-154.5001 1794.3404,-158 1804.3403,-161.5001 1804.3404,-154.5001"/>
</g>
<!-- HikeEditPoisGTrackComponent -->
<g id="node8" class="node">
<title>HikeEditPoisGTrackComponent</title>
<polygon fill="#ffffb3" stroke="#000000" points="2425.245,-122 2226.755,-122 2226.755,-86 2425.245,-86 2425.245,-122"/>
<text text-anchor="middle" x="2326" y="-99.8" font-family="Times,serif" font-size="14.00" fill="#000000">HikeEditPoisGTrackComponent</text>
</g>
<!-- HikeEditPoisGTrackComponent&#45;&gt;HikeEditModule -->
<g id="edge8" class="edge">
<title>HikeEditPoisGTrackComponent&#45;&gt;HikeEditModule</title>
<path fill="none" stroke="#000000" d="M2240.1878,-122.1871C2240.1878,-137.1824 2240.1878,-156 2240.1878,-156 2240.1878,-156 1804.0695,-156 1804.0695,-156"/>
<polygon fill="#000000" stroke="#000000" points="1804.0696,-152.5001 1794.0695,-156 1804.0695,-159.5001 1804.0696,-152.5001"/>
</g>
<!-- HikeEditPoisGTrackTableComponent -->
<g id="node9" class="node">
<title>HikeEditPoisGTrackTableComponent</title>
<polygon fill="#ffffb3" stroke="#000000" points="2208.1175,-122 1977.8825,-122 1977.8825,-86 2208.1175,-86 2208.1175,-122"/>
<text text-anchor="middle" x="2093" y="-99.8" font-family="Times,serif" font-size="14.00" fill="#000000">HikeEditPoisGTrackTableComponent</text>
</g>
<!-- HikeEditPoisGTrackTableComponent&#45;&gt;HikeEditModule -->
<g id="edge9" class="edge">
<title>HikeEditPoisGTrackTableComponent&#45;&gt;HikeEditModule</title>
<path fill="none" stroke="#000000" d="M2026.9069,-122.0511C2026.9069,-136.373 2026.9069,-154 2026.9069,-154 2026.9069,-154 1804.1707,-154 1804.1707,-154"/>
<polygon fill="#000000" stroke="#000000" points="1804.1707,-150.5001 1794.1707,-154 1804.1707,-157.5001 1804.1707,-150.5001"/>
</g>
<!-- HikeEditPoisExternalComponent -->
<g id="node10" class="node">
<title>HikeEditPoisExternalComponent</title>
<polygon fill="#ffffb3" stroke="#000000" points="1959.9198,-122 1756.0802,-122 1756.0802,-86 1959.9198,-86 1959.9198,-122"/>
<text text-anchor="middle" x="1858" y="-99.8" font-family="Times,serif" font-size="14.00" fill="#000000">HikeEditPoisExternalComponent</text>
</g>
<!-- HikeEditPoisExternalComponent&#45;&gt;HikeEditModule -->
<g id="edge10" class="edge">
<title>HikeEditPoisExternalComponent&#45;&gt;HikeEditModule</title>
<path fill="none" stroke="#000000" d="M1775.169,-122.1061C1775.169,-122.1061 1775.169,-140.991 1775.169,-140.991"/>
<polygon fill="#000000" stroke="#000000" points="1771.6691,-140.9909 1775.169,-150.991 1778.6691,-140.991 1771.6691,-140.9909"/>
</g>
<!-- HikeEditPoisExternalTableComponent -->
<g id="node11" class="node">
<title>HikeEditPoisExternalTableComponent</title>
<polygon fill="#ffffb3" stroke="#000000" points="1738.792,-122 1503.208,-122 1503.208,-86 1738.792,-86 1738.792,-122"/>
<text text-anchor="middle" x="1621" y="-99.8" font-family="Times,serif" font-size="14.00" fill="#000000">HikeEditPoisExternalTableComponent</text>
</g>
<!-- HikeEditPoisExternalTableComponent&#45;&gt;HikeEditModule -->
<g id="edge11" class="edge">
<title>HikeEditPoisExternalTableComponent&#45;&gt;HikeEditModule</title>
<path fill="none" stroke="#000000" d="M1711.2991,-122.1061C1711.2991,-122.1061 1711.2991,-140.991 1711.2991,-140.991"/>
<polygon fill="#000000" stroke="#000000" points="1707.7992,-140.9909 1711.2991,-150.991 1714.7992,-140.991 1707.7992,-140.9909"/>
</g>
<!-- PoiIconsComponent -->
<g id="node12" class="node">
<title>PoiIconsComponent</title>
<polygon fill="#ffffb3" stroke="#000000" points="1485.3258,-122 1354.6742,-122 1354.6742,-86 1485.3258,-86 1485.3258,-122"/>
<text text-anchor="middle" x="1420" y="-99.8" font-family="Times,serif" font-size="14.00" fill="#000000">PoiIconsComponent</text>
</g>
<!-- PoiIconsComponent&#45;&gt;HikeEditModule -->
<g id="edge12" class="edge">
<title>PoiIconsComponent&#45;&gt;HikeEditModule</title>
<path fill="none" stroke="#000000" d="M1440.8515,-122.0511C1440.8515,-136.373 1440.8515,-154 1440.8515,-154 1440.8515,-154 1673.6193,-154 1673.6193,-154"/>
<polygon fill="#000000" stroke="#000000" points="1673.6193,-157.5001 1683.6193,-154 1673.6193,-150.5001 1673.6193,-157.5001"/>
</g>
<!-- SpecialPoiDataComponent -->
<g id="node13" class="node">
<title>SpecialPoiDataComponent</title>
<polygon fill="#ffffb3" stroke="#000000" points="1336.64,-122 1169.36,-122 1169.36,-86 1336.64,-86 1336.64,-122"/>
<text text-anchor="middle" x="1253" y="-99.8" font-family="Times,serif" font-size="14.00" fill="#000000">SpecialPoiDataComponent</text>
</g>
<!-- SpecialPoiDataComponent&#45;&gt;HikeEditModule -->
<g id="edge13" class="edge">
<title>SpecialPoiDataComponent&#45;&gt;HikeEditModule</title>
<path fill="none" stroke="#000000" d="M1253,-122.1871C1253,-137.1824 1253,-156 1253,-156 1253,-156 1673.7228,-156 1673.7228,-156"/>
<polygon fill="#000000" stroke="#000000" points="1673.7228,-159.5001 1683.7228,-156 1673.7228,-152.5001 1673.7228,-159.5001"/>
</g>
<!-- HikeEditExternalPoiInfoComponent -->
<g id="node14" class="node">
<title>HikeEditExternalPoiInfoComponent</title>
<polygon fill="#ffffb3" stroke="#000000" points="1151.7962,-122 930.2038,-122 930.2038,-86 1151.7962,-86 1151.7962,-122"/>
<text text-anchor="middle" x="1041" y="-99.8" font-family="Times,serif" font-size="14.00" fill="#000000">HikeEditExternalPoiInfoComponent</text>
</g>
<!-- HikeEditExternalPoiInfoComponent&#45;&gt;HikeEditModule -->
<g id="edge14" class="edge">
<title>HikeEditExternalPoiInfoComponent&#45;&gt;HikeEditModule</title>
<path fill="none" stroke="#000000" d="M1145.626,-122.2819C1145.626,-137.9478 1145.626,-158 1145.626,-158 1145.626,-158 1673.7097,-158 1673.7097,-158"/>
<polygon fill="#000000" stroke="#000000" points="1673.7097,-161.5001 1683.7097,-158 1673.7096,-154.5001 1673.7097,-161.5001"/>
</g>
<!-- HikeEditGTrackPoiInfoComponent -->
<g id="node15" class="node">
<title>HikeEditGTrackPoiInfoComponent</title>
<polygon fill="#ffffb3" stroke="#000000" points="912.1217,-122 695.8783,-122 695.8783,-86 912.1217,-86 912.1217,-122"/>
<text text-anchor="middle" x="804" y="-99.8" font-family="Times,serif" font-size="14.00" fill="#000000">HikeEditGTrackPoiInfoComponent</text>
</g>
<!-- HikeEditGTrackPoiInfoComponent&#45;&gt;HikeEditModule -->
<g id="edge15" class="edge">
<title>HikeEditGTrackPoiInfoComponent&#45;&gt;HikeEditModule</title>
<path fill="none" stroke="#000000" d="M855.8705,-122.027C855.8705,-138.3976 855.8705,-160 855.8705,-160 855.8705,-160 1673.7563,-160 1673.7563,-160"/>
<polygon fill="#000000" stroke="#000000" points="1673.7563,-163.5001 1683.7563,-160 1673.7563,-156.5001 1673.7563,-163.5001"/>
</g>
<!-- HikeEditComponent  -->
<g id="node21" class="node">
<title>HikeEditComponent </title>
<polygon fill="#fb8072" stroke="#000000" points="3036.8785,-252 2901.1215,-252 2901.1215,-216 3036.8785,-216 3036.8785,-252"/>
<text text-anchor="middle" x="2969" y="-229.8" font-family="Times,serif" font-size="14.00" fill="#000000">HikeEditComponent </text>
</g>
<!-- HikeEditModule&#45;&gt;HikeEditComponent  -->
<g id="edge20" class="edge">
<title>HikeEditModule&#45;&gt;HikeEditComponent </title>
<path fill="none" stroke="#000000" stroke-dasharray="5,2" d="M1794.2283,-174C2031.3388,-174 2951.0398,-174 2951.0398,-174 2951.0398,-174 2951.0398,-205.998 2951.0398,-205.998"/>
<polygon fill="#000000" stroke="#000000" points="2947.5399,-205.998 2951.0398,-215.998 2954.5399,-205.9981 2947.5399,-205.998"/>
</g>
<!-- HikeEditGeneralInfoComponent  -->
<g id="node22" class="node">
<title>HikeEditGeneralInfoComponent </title>
<polygon fill="#fb8072" stroke="#000000" points="2883.5008,-252 2680.4992,-252 2680.4992,-216 2883.5008,-216 2883.5008,-252"/>
<text text-anchor="middle" x="2782" y="-229.8" font-family="Times,serif" font-size="14.00" fill="#000000">HikeEditGeneralInfoComponent </text>
</g>
<!-- HikeEditModule&#45;&gt;HikeEditGeneralInfoComponent  -->
<g id="edge21" class="edge">
<title>HikeEditModule&#45;&gt;HikeEditGeneralInfoComponent </title>
<path fill="none" stroke="#000000" stroke-dasharray="5,2" d="M1794.2246,-176C2005.7759,-176 2752.7705,-176 2752.7705,-176 2752.7705,-176 2752.7705,-205.9664 2752.7705,-205.9664"/>
<polygon fill="#000000" stroke="#000000" points="2749.2706,-205.9663 2752.7705,-215.9664 2756.2706,-205.9664 2749.2706,-205.9663"/>
</g>
<!-- HikeEditMapComponent  -->
<g id="node23" class="node">
<title>HikeEditMapComponent </title>
<polygon fill="#fb8072" stroke="#000000" points="2662.5372,-252 2501.4628,-252 2501.4628,-216 2662.5372,-216 2662.5372,-252"/>
<text text-anchor="middle" x="2582" y="-229.8" font-family="Times,serif" font-size="14.00" fill="#000000">HikeEditMapComponent </text>
</g>
<!-- HikeEditModule&#45;&gt;HikeEditMapComponent  -->
<g id="edge22" class="edge">
<title>HikeEditModule&#45;&gt;HikeEditMapComponent </title>
<path fill="none" stroke="#000000" stroke-dasharray="5,2" d="M1794.122,-178C1976.7104,-178 2550.2397,-178 2550.2397,-178 2550.2397,-178 2550.2397,-205.973 2550.2397,-205.973"/>
<polygon fill="#000000" stroke="#000000" points="2546.7397,-205.973 2550.2397,-215.973 2553.7397,-205.973 2546.7397,-205.973"/>
</g>
<!-- HikeEditRoutePlannerComponent  -->
<g id="node24" class="node">
<title>HikeEditRoutePlannerComponent </title>
<polygon fill="#fb8072" stroke="#000000" points="2483.5832,-252 2272.4168,-252 2272.4168,-216 2483.5832,-216 2483.5832,-252"/>
<text text-anchor="middle" x="2378" y="-229.8" font-family="Times,serif" font-size="14.00" fill="#000000">HikeEditRoutePlannerComponent </text>
</g>
<!-- HikeEditModule&#45;&gt;HikeEditRoutePlannerComponent  -->
<g id="edge23" class="edge">
<title>HikeEditModule&#45;&gt;HikeEditRoutePlannerComponent </title>
<path fill="none" stroke="#000000" stroke-dasharray="5,2" d="M1794.1903,-181C1944.2958,-181 2348.7905,-181 2348.7905,-181 2348.7905,-181 2348.7905,-205.7604 2348.7905,-205.7604"/>
<polygon fill="#000000" stroke="#000000" points="2345.2906,-205.7604 2348.7905,-215.7604 2352.2906,-205.7604 2345.2906,-205.7604"/>
</g>
<!-- HikeEditPoisComponent  -->
<g id="node25" class="node">
<title>HikeEditPoisComponent </title>
<polygon fill="#fb8072" stroke="#000000" points="2253.9966,-252 2094.0034,-252 2094.0034,-216 2253.9966,-216 2253.9966,-252"/>
<text text-anchor="middle" x="2174" y="-229.8" font-family="Times,serif" font-size="14.00" fill="#000000">HikeEditPoisComponent </text>
</g>
<!-- HikeEditModule&#45;&gt;HikeEditPoisComponent  -->
<g id="edge24" class="edge">
<title>HikeEditModule&#45;&gt;HikeEditPoisComponent </title>
<path fill="none" stroke="#000000" stroke-dasharray="5,2" d="M1794.1742,-183C1906.5168,-183 2151.2804,-183 2151.2804,-183 2151.2804,-183 2151.2804,-205.8757 2151.2804,-205.8757"/>
<polygon fill="#000000" stroke="#000000" points="2147.7804,-205.8757 2151.2804,-215.8757 2154.7804,-205.8757 2147.7804,-205.8757"/>
</g>
<!-- HikeEditPoisGTrackComponent  -->
<g id="node26" class="node">
<title>HikeEditPoisGTrackComponent </title>
<polygon fill="#fb8072" stroke="#000000" points="2076.2449,-252 1873.7551,-252 1873.7551,-216 2076.2449,-216 2076.2449,-252"/>
<text text-anchor="middle" x="1975" y="-229.8" font-family="Times,serif" font-size="14.00" fill="#000000">HikeEditPoisGTrackComponent </text>
</g>
<!-- HikeEditModule&#45;&gt;HikeEditPoisGTrackComponent  -->
<g id="edge25" class="edge">
<title>HikeEditModule&#45;&gt;HikeEditPoisGTrackComponent </title>
<path fill="none" stroke="#000000" stroke-dasharray="5,2" d="M1794.2804,-185C1846.4722,-185 1916.7937,-185 1916.7937,-185 1916.7937,-185 1916.7937,-205.7542 1916.7937,-205.7542"/>
<polygon fill="#000000" stroke="#000000" points="1913.2937,-205.7542 1916.7937,-215.7542 1920.2937,-205.7542 1913.2937,-205.7542"/>
</g>
<!-- HikeEditPoisGTrackTableComponent  -->
<g id="node27" class="node">
<title>HikeEditPoisGTrackTableComponent </title>
<polygon fill="#fb8072" stroke="#000000" points="1856.1172,-252 1621.8828,-252 1621.8828,-216 1856.1172,-216 1856.1172,-252"/>
<text text-anchor="middle" x="1739" y="-229.8" font-family="Times,serif" font-size="14.00" fill="#000000">HikeEditPoisGTrackTableComponent </text>
</g>
<!-- HikeEditModule&#45;&gt;HikeEditPoisGTrackTableComponent  -->
<g id="edge26" class="edge">
<title>HikeEditModule&#45;&gt;HikeEditPoisGTrackTableComponent </title>
<path fill="none" stroke="#000000" stroke-dasharray="5,2" d="M1739,-187.1061C1739,-187.1061 1739,-205.991 1739,-205.991"/>
<polygon fill="#000000" stroke="#000000" points="1735.5001,-205.9909 1739,-215.991 1742.5001,-205.991 1735.5001,-205.9909"/>
</g>
<!-- HikeEditPoisExternalComponent  -->
<g id="node28" class="node">
<title>HikeEditPoisExternalComponent </title>
<polygon fill="#fb8072" stroke="#000000" points="1603.4194,-252 1396.5806,-252 1396.5806,-216 1603.4194,-216 1603.4194,-252"/>
<text text-anchor="middle" x="1500" y="-229.8" font-family="Times,serif" font-size="14.00" fill="#000000">HikeEditPoisExternalComponent </text>
</g>
<!-- HikeEditModule&#45;&gt;HikeEditPoisExternalComponent  -->
<g id="edge27" class="edge">
<title>HikeEditModule&#45;&gt;HikeEditPoisExternalComponent </title>
<path fill="none" stroke="#000000" stroke-dasharray="5,2" d="M1683.8184,-185C1629.1107,-185 1553.4069,-185 1553.4069,-185 1553.4069,-185 1553.4069,-205.7542 1553.4069,-205.7542"/>
<polygon fill="#000000" stroke="#000000" points="1549.907,-205.7542 1553.4069,-215.7542 1556.907,-205.7542 1549.907,-205.7542"/>
</g>
<!-- HikeEditPoisExternalTableComponent  -->
<g id="node29" class="node">
<title>HikeEditPoisExternalTableComponent </title>
<polygon fill="#fb8072" stroke="#000000" points="1378.2919,-252 1139.7081,-252 1139.7081,-216 1378.2919,-216 1378.2919,-252"/>
<text text-anchor="middle" x="1259" y="-229.8" font-family="Times,serif" font-size="14.00" fill="#000000">HikeEditPoisExternalTableComponent </text>
</g>
<!-- HikeEditModule&#45;&gt;HikeEditPoisExternalTableComponent  -->
<g id="edge28" class="edge">
<title>HikeEditModule&#45;&gt;HikeEditPoisExternalTableComponent </title>
<path fill="none" stroke="#000000" stroke-dasharray="5,2" d="M1683.6525,-183C1579.918,-183 1366.6166,-183 1366.6166,-183 1366.6166,-183 1366.6166,-205.8757 1366.6166,-205.8757"/>
<polygon fill="#000000" stroke="#000000" points="1363.1167,-205.8757 1366.6166,-215.8757 1370.1167,-205.8757 1363.1167,-205.8757"/>
</g>
<!-- PoiIconsComponent  -->
<g id="node30" class="node">
<title>PoiIconsComponent </title>
<polygon fill="#fb8072" stroke="#000000" points="1121.8255,-252 988.1745,-252 988.1745,-216 1121.8255,-216 1121.8255,-252"/>
<text text-anchor="middle" x="1055" y="-229.8" font-family="Times,serif" font-size="14.00" fill="#000000">PoiIconsComponent </text>
</g>
<!-- HikeEditModule&#45;&gt;PoiIconsComponent  -->
<g id="edge29" class="edge">
<title>HikeEditModule&#45;&gt;PoiIconsComponent </title>
<path fill="none" stroke="#000000" stroke-dasharray="5,2" d="M1683.8935,-181C1521.3193,-181 1055,-181 1055,-181 1055,-181 1055,-205.7604 1055,-205.7604"/>
<polygon fill="#000000" stroke="#000000" points="1051.5001,-205.7604 1055,-215.7604 1058.5001,-205.7604 1051.5001,-205.7604"/>
</g>
<!-- SpecialPoiDataComponent  -->
<g id="node31" class="node">
<title>SpecialPoiDataComponent </title>
<polygon fill="#fb8072" stroke="#000000" points="970.6397,-252 799.3603,-252 799.3603,-216 970.6397,-216 970.6397,-252"/>
<text text-anchor="middle" x="885" y="-229.8" font-family="Times,serif" font-size="14.00" fill="#000000">SpecialPoiDataComponent </text>
</g>
<!-- HikeEditModule&#45;&gt;SpecialPoiDataComponent  -->
<g id="edge30" class="edge">
<title>HikeEditModule&#45;&gt;SpecialPoiDataComponent </title>
<path fill="none" stroke="#000000" stroke-dasharray="5,2" d="M1683.8649,-178C1504.7086,-178 950.4609,-178 950.4609,-178 950.4609,-178 950.4609,-205.973 950.4609,-205.973"/>
<polygon fill="#000000" stroke="#000000" points="946.961,-205.973 950.4609,-215.973 953.961,-205.973 946.961,-205.973"/>
</g>
<!-- HikeEditExternalPoiInfoComponent  -->
<g id="node32" class="node">
<title>HikeEditExternalPoiInfoComponent </title>
<polygon fill="#fb8072" stroke="#000000" points="781.2961,-252 556.7039,-252 556.7039,-216 781.2961,-216 781.2961,-252"/>
<text text-anchor="middle" x="669" y="-229.8" font-family="Times,serif" font-size="14.00" fill="#000000">HikeEditExternalPoiInfoComponent </text>
</g>
<!-- HikeEditModule&#45;&gt;HikeEditExternalPoiInfoComponent  -->
<g id="edge31" class="edge">
<title>HikeEditModule&#45;&gt;HikeEditExternalPoiInfoComponent </title>
<path fill="none" stroke="#000000" stroke-dasharray="5,2" d="M1683.7861,-176C1474.0514,-176 738.5437,-176 738.5437,-176 738.5437,-176 738.5437,-205.9664 738.5437,-205.9664"/>
<polygon fill="#000000" stroke="#000000" points="735.0437,-205.9663 738.5437,-215.9664 742.0437,-205.9664 735.0437,-205.9663"/>
</g>
<!-- HikeEditGTrackPoiInfoComponent  -->
<g id="node33" class="node">
<title>HikeEditGTrackPoiInfoComponent </title>
<polygon fill="#fb8072" stroke="#000000" points="539.1214,-252 318.8786,-252 318.8786,-216 539.1214,-216 539.1214,-252"/>
<text text-anchor="middle" x="429" y="-229.8" font-family="Times,serif" font-size="14.00" fill="#000000">HikeEditGTrackPoiInfoComponent </text>
</g>
<!-- HikeEditModule&#45;&gt;HikeEditGTrackPoiInfoComponent  -->
<g id="edge32" class="edge">
<title>HikeEditModule&#45;&gt;HikeEditGTrackPoiInfoComponent </title>
<path fill="none" stroke="#000000" stroke-dasharray="5,2" d="M1683.5905,-174C1443.5198,-174 505.2281,-174 505.2281,-174 505.2281,-174 505.2281,-205.998 505.2281,-205.998"/>
<polygon fill="#000000" stroke="#000000" points="501.7282,-205.998 505.2281,-215.998 508.7282,-205.9981 501.7282,-205.998"/>
</g>
<!-- RouterModule -->
<g id="node17" class="node">
<title>RouterModule</title>
<polygon fill="#8dd3c7" stroke="#000000" points="671.6528,-122 668.6528,-126 647.6528,-126 644.6528,-122 574.3472,-122 574.3472,-86 671.6528,-86 671.6528,-122"/>
<text text-anchor="middle" x="623" y="-99.8" font-family="Times,serif" font-size="14.00" fill="#000000">RouterModule</text>
</g>
<!-- RouterModule&#45;&gt;HikeEditModule -->
<g id="edge16" class="edge">
<title>RouterModule&#45;&gt;HikeEditModule</title>
<path fill="none" stroke="#000000" d="M623,-122.0225C623,-139.3734 623,-163 623,-163 623,-163 1673.6574,-163 1673.6574,-163"/>
<polygon fill="#000000" stroke="#000000" points="1673.6574,-166.5001 1683.6574,-163 1673.6574,-159.5001 1673.6574,-166.5001"/>
</g>
<!-- MapModule -->
<g id="node18" class="node">
<title>MapModule</title>
<polygon fill="#8dd3c7" stroke="#000000" points="556.7093,-122 553.7093,-126 532.7093,-126 529.7093,-122 471.2907,-122 471.2907,-86 556.7093,-86 556.7093,-122"/>
<text text-anchor="middle" x="514" y="-99.8" font-family="Times,serif" font-size="14.00" fill="#000000">MapModule</text>
</g>
<!-- MapModule&#45;&gt;HikeEditModule -->
<g id="edge17" class="edge">
<title>MapModule&#45;&gt;HikeEditModule</title>
<path fill="none" stroke="#000000" d="M547.8313,-122.302C547.8313,-140.2699 547.8313,-165 547.8313,-165 547.8313,-165 1673.9364,-165 1673.9364,-165"/>
<polygon fill="#000000" stroke="#000000" points="1673.9365,-168.5001 1683.9364,-165 1673.9364,-161.5001 1673.9365,-168.5001"/>
</g>
<!-- HikeModule -->
<g id="node19" class="node">
<title>HikeModule</title>
<polygon fill="#8dd3c7" stroke="#000000" points="453.2619,-122 450.2619,-126 429.2619,-126 426.2619,-122 366.7381,-122 366.7381,-86 453.2619,-86 453.2619,-122"/>
<text text-anchor="middle" x="410" y="-99.8" font-family="Times,serif" font-size="14.00" fill="#000000">HikeModule</text>
</g>
<!-- HikeModule&#45;&gt;HikeEditModule -->
<g id="edge18" class="edge">
<title>HikeModule&#45;&gt;HikeEditModule</title>
<path fill="none" stroke="#000000" d="M410,-122.2222C410,-140.8285 410,-167 410,-167 410,-167 1673.5865,-167 1673.5865,-167"/>
<polygon fill="#000000" stroke="#000000" points="1673.5866,-170.5001 1683.5865,-167 1673.5865,-163.5001 1673.5866,-170.5001"/>
</g>
<!-- SharedModule -->
<g id="node20" class="node">
<title>SharedModule</title>
<polygon fill="#8dd3c7" stroke="#000000" points="348.4231,-122 345.4231,-126 324.4231,-126 321.4231,-122 249.5769,-122 249.5769,-86 348.4231,-86 348.4231,-122"/>
<text text-anchor="middle" x="299" y="-99.8" font-family="Times,serif" font-size="14.00" fill="#000000">SharedModule</text>
</g>
<!-- SharedModule&#45;&gt;HikeEditModule -->
<g id="edge19" class="edge">
<title>SharedModule&#45;&gt;HikeEditModule</title>
<path fill="none" stroke="#000000" d="M333.5752,-122.1061C333.5752,-141.3391 333.5752,-169 333.5752,-169 333.5752,-169 1673.9057,-169 1673.9057,-169"/>
<polygon fill="#000000" stroke="#000000" points="1673.9057,-172.5001 1683.9057,-169 1673.9056,-165.5001 1673.9057,-172.5001"/>
</g>
<!-- DynamicModalService -->
<g id="node34" class="node">
<title>DynamicModalService</title>
<ellipse fill="#fdb462" stroke="#000000" cx="125" cy="-104" rx="100.7017" ry="18"/>
<text text-anchor="middle" x="125" y="-99.8" font-family="Times,serif" font-size="14.00" fill="#000000">DynamicModalService</text>
</g>
<!-- DynamicModalService&#45;&gt;HikeEditModule -->
<g id="edge33" class="edge">
<title>DynamicModalService&#45;&gt;HikeEditModule</title>
<path fill="none" stroke="#000000" d="M125,-122.2228C125,-142.3652 125,-172 125,-172 125,-172 1673.9094,-172 1673.9094,-172"/>
<polygon fill="#000000" stroke="#000000" points="1673.9094,-175.5001 1683.9094,-172 1673.9093,-168.5001 1673.9094,-175.5001"/>
</g>
</g>
</svg>
