<?xml version="1.0" encoding="UTF-8" standalone="no"?>
<!DOCTYPE svg PUBLIC "-//W3C//DTD SVG 1.1//EN"
 "http://www.w3.org/Graphics/SVG/1.1/DTD/svg11.dtd">
<!-- Generated by graphviz version 2.40.1 (20161225.0304)
 -->
<!-- Title: dependencies Pages: 1 -->
<svg width="1620pt" height="284pt"
 viewBox="0.00 0.00 1620.00 284.00" xmlns="http://www.w3.org/2000/svg" xmlns:xlink="http://www.w3.org/1999/xlink">
<g id="graph0" class="graph" transform="scale(1 1) rotate(0) translate(4 280)">
<title>dependencies</title>
<polygon fill="#ffffff" stroke="transparent" points="-4,4 -4,-280 1616,-280 1616,4 -4,4"/>
<text text-anchor="start" x="785.0091" y="-42.4" font-family="sans-serif" font-weight="bold" font-size="14.00" fill="#000000">Legend</text>
<polygon fill="#ffffb3" stroke="transparent" points="572,-10 572,-30 592,-30 592,-10 572,-10"/>
<text text-anchor="start" x="595.629" y="-15.4" font-family="sans-serif" font-size="14.00" fill="#000000"> &#160;Declarations</text>
<polygon fill="#8dd3c7" stroke="transparent" points="685,-10 685,-30 705,-30 705,-10 685,-10"/>
<text text-anchor="start" x="708.7251" y="-15.4" font-family="sans-serif" font-size="14.00" fill="#000000"> &#160;Module</text>
<polygon fill="#80b1d3" stroke="transparent" points="771,-10 771,-30 791,-30 791,-10 771,-10"/>
<text text-anchor="start" x="794.7812" y="-15.4" font-family="sans-serif" font-size="14.00" fill="#000000"> &#160;Bootstrap</text>
<polygon fill="#fdb462" stroke="transparent" points="868,-10 868,-30 888,-30 888,-10 868,-10"/>
<text text-anchor="start" x="891.6732" y="-15.4" font-family="sans-serif" font-size="14.00" fill="#000000"> &#160;Providers</text>
<polygon fill="#fb8072" stroke="transparent" points="964,-10 964,-30 984,-30 984,-10 964,-10"/>
<text text-anchor="start" x="987.7258" y="-15.4" font-family="sans-serif" font-size="14.00" fill="#000000"> &#160;Exports</text>
<g id="clust1" class="cluster">
<title>cluster_HikeComponentsModule</title>
<polygon fill="none" stroke="#000000" stroke-dasharray="1,5" points="8,-70 8,-268 1604,-268 1604,-70 8,-70"/>
</g>
<g id="clust2" class="cluster">
<title>cluster_HikeComponentsModule_declarations</title>
<polygon fill="none" stroke="#000000" points="243,-78 243,-130 1596,-130 1596,-78 243,-78"/>
</g>
<g id="clust11" class="cluster">
<title>cluster_HikeComponentsModule_imports</title>
<polygon fill="none" stroke="#000000" points="16,-78 16,-130 235,-130 235,-78 16,-78"/>
</g>
<g id="clust12" class="cluster">
<title>cluster_HikeComponentsModule_exports</title>
<polygon fill="none" stroke="#000000" points="74,-208 74,-260 1454,-260 1454,-208 74,-208"/>
</g>
<!-- TrailBoxComponent -->
<g id="node1" class="node">
<title>TrailBoxComponent</title>
<polygon fill="#ffffb3" stroke="#000000" points="1587.8781,-122 1456.1219,-122 1456.1219,-86 1587.8781,-86 1587.8781,-122"/>
<text text-anchor="middle" x="1522" y="-99.8" font-family="Times,serif" font-size="14.00" fill="#000000">TrailBoxComponent</text>
</g>
<!-- HikeComponentsModule -->
<g id="node9" class="node">
<title>HikeComponentsModule</title>
<polygon fill="#8dd3c7" stroke="#000000" points="848.5393,-187 845.5393,-191 824.5393,-191 821.5393,-187 691.4607,-187 691.4607,-151 848.5393,-151 848.5393,-187"/>
<text text-anchor="middle" x="770" y="-164.8" font-family="Times,serif" font-size="14.00" fill="#000000">HikeComponentsModule</text>
</g>
<!-- TrailBoxComponent&#45;&gt;HikeComponentsModule -->
<g id="edge1" class="edge">
<title>TrailBoxComponent&#45;&gt;HikeComponentsModule</title>
<path fill="none" stroke="#000000" d="M1522,-122.1061C1522,-141.3391 1522,-169 1522,-169 1522,-169 858.7021,-169 858.7021,-169"/>
<polygon fill="#000000" stroke="#000000" points="858.7022,-165.5001 848.7021,-169 858.7021,-172.5001 858.7022,-165.5001"/>
</g>
<!-- HikeCardComponent -->
<g id="node2" class="node">
<title>HikeCardComponent</title>
<polygon fill="#ffffb3" stroke="#000000" points="1437.7562,-122 1302.2438,-122 1302.2438,-86 1437.7562,-86 1437.7562,-122"/>
<text text-anchor="middle" x="1370" y="-99.8" font-family="Times,serif" font-size="14.00" fill="#000000">HikeCardComponent</text>
</g>
<!-- HikeCardComponent&#45;&gt;HikeComponentsModule -->
<g id="edge2" class="edge">
<title>HikeCardComponent&#45;&gt;HikeComponentsModule</title>
<path fill="none" stroke="#000000" d="M1306.2165,-122.302C1306.2165,-140.2699 1306.2165,-165 1306.2165,-165 1306.2165,-165 858.5447,-165 858.5447,-165"/>
<polygon fill="#000000" stroke="#000000" points="858.5448,-161.5001 848.5447,-165 858.5447,-168.5001 858.5448,-161.5001"/>
</g>
<!-- HikeInfoComponent -->
<g id="node3" class="node">
<title>HikeInfoComponent</title>
<polygon fill="#ffffb3" stroke="#000000" points="1283.8655,-122 1152.1345,-122 1152.1345,-86 1283.8655,-86 1283.8655,-122"/>
<text text-anchor="middle" x="1218" y="-99.8" font-family="Times,serif" font-size="14.00" fill="#000000">HikeInfoComponent</text>
</g>
<!-- HikeInfoComponent&#45;&gt;HikeComponentsModule -->
<g id="edge3" class="edge">
<title>HikeInfoComponent&#45;&gt;HikeComponentsModule</title>
<path fill="none" stroke="#000000" d="M1240.4125,-122.027C1240.4125,-138.3976 1240.4125,-160 1240.4125,-160 1240.4125,-160 858.7365,-160 858.7365,-160"/>
<polygon fill="#000000" stroke="#000000" points="858.7365,-156.5001 848.7365,-160 858.7364,-163.5001 858.7365,-156.5001"/>
</g>
<!-- HikeDataItemComponent -->
<g id="node4" class="node">
<title>HikeDataItemComponent</title>
<polygon fill="#ffffb3" stroke="#000000" points="1134.1274,-122 973.8726,-122 973.8726,-86 1134.1274,-86 1134.1274,-122"/>
<text text-anchor="middle" x="1054" y="-99.8" font-family="Times,serif" font-size="14.00" fill="#000000">HikeDataItemComponent</text>
</g>
<!-- HikeDataItemComponent&#45;&gt;HikeComponentsModule -->
<g id="edge4" class="edge">
<title>HikeDataItemComponent&#45;&gt;HikeComponentsModule</title>
<path fill="none" stroke="#000000" d="M977.875,-122.1871C977.875,-137.1824 977.875,-156 977.875,-156 977.875,-156 858.5886,-156 858.5886,-156"/>
<polygon fill="#000000" stroke="#000000" points="858.5887,-152.5001 848.5886,-156 858.5886,-159.5001 858.5887,-152.5001"/>
</g>
<!-- ElevationProfileComponent -->
<g id="node5" class="node">
<title>ElevationProfileComponent</title>
<polygon fill="#ffffb3" stroke="#000000" points="955.5856,-122 782.4144,-122 782.4144,-86 955.5856,-86 955.5856,-122"/>
<text text-anchor="middle" x="869" y="-99.8" font-family="Times,serif" font-size="14.00" fill="#000000">ElevationProfileComponent</text>
</g>
<!-- ElevationProfileComponent&#45;&gt;HikeComponentsModule -->
<g id="edge5" class="edge">
<title>ElevationProfileComponent&#45;&gt;HikeComponentsModule</title>
<path fill="none" stroke="#000000" d="M815.6133,-122.1061C815.6133,-122.1061 815.6133,-140.991 815.6133,-140.991"/>
<polygon fill="#000000" stroke="#000000" points="812.1133,-140.9909 815.6133,-150.991 819.1133,-140.991 812.1133,-140.9909"/>
</g>
<!-- HikeProgramComponent -->
<g id="node6" class="node">
<title>HikeProgramComponent</title>
<polygon fill="#ffffb3" stroke="#000000" points="764.2534,-122 607.7466,-122 607.7466,-86 764.2534,-86 764.2534,-122"/>
<text text-anchor="middle" x="686" y="-99.8" font-family="Times,serif" font-size="14.00" fill="#000000">HikeProgramComponent</text>
</g>
<!-- HikeProgramComponent&#45;&gt;HikeComponentsModule -->
<g id="edge6" class="edge">
<title>HikeProgramComponent&#45;&gt;HikeComponentsModule</title>
<path fill="none" stroke="#000000" d="M727.8037,-122.1061C727.8037,-122.1061 727.8037,-140.991 727.8037,-140.991"/>
<polygon fill="#000000" stroke="#000000" points="724.3037,-140.9909 727.8037,-150.991 731.3037,-140.991 724.3037,-140.9909"/>
</g>
<!-- CheckpointsComponent -->
<g id="node7" class="node">
<title>CheckpointsComponent</title>
<polygon fill="#ffffb3" stroke="#000000" points="589.8243,-122 438.1757,-122 438.1757,-86 589.8243,-86 589.8243,-122"/>
<text text-anchor="middle" x="514" y="-99.8" font-family="Times,serif" font-size="14.00" fill="#000000">CheckpointsComponent</text>
</g>
<!-- CheckpointsComponent&#45;&gt;HikeComponentsModule -->
<g id="edge7" class="edge">
<title>CheckpointsComponent&#45;&gt;HikeComponentsModule</title>
<path fill="none" stroke="#000000" d="M517.7677,-122.1871C517.7677,-137.1824 517.7677,-156 517.7677,-156 517.7677,-156 681.2297,-156 681.2297,-156"/>
<polygon fill="#000000" stroke="#000000" points="681.2297,-159.5001 691.2297,-156 681.2296,-152.5001 681.2297,-159.5001"/>
</g>
<!-- LocationSearchComponent -->
<g id="node8" class="node">
<title>LocationSearchComponent</title>
<polygon fill="#ffffb3" stroke="#000000" points="420.6825,-122 251.3175,-122 251.3175,-86 420.6825,-86 420.6825,-122"/>
<text text-anchor="middle" x="336" y="-99.8" font-family="Times,serif" font-size="14.00" fill="#000000">LocationSearchComponent</text>
</g>
<!-- LocationSearchComponent&#45;&gt;HikeComponentsModule -->
<g id="edge8" class="edge">
<title>LocationSearchComponent&#45;&gt;HikeComponentsModule</title>
<path fill="none" stroke="#000000" d="M321.9224,-122.027C321.9224,-138.3976 321.9224,-160 321.9224,-160 321.9224,-160 681.4381,-160 681.4381,-160"/>
<polygon fill="#000000" stroke="#000000" points="681.4381,-163.5001 691.4381,-160 681.4381,-156.5001 681.4381,-163.5001"/>
</g>
<!-- TrailBoxComponent  -->
<g id="node12" class="node">
<title>TrailBoxComponent </title>
<polygon fill="#fb8072" stroke="#000000" points="1445.8785,-252 1310.1215,-252 1310.1215,-216 1445.8785,-216 1445.8785,-252"/>
<text text-anchor="middle" x="1378" y="-229.8" font-family="Times,serif" font-size="14.00" fill="#000000">TrailBoxComponent </text>
</g>
<!-- HikeComponentsModule&#45;&gt;TrailBoxComponent  -->
<g id="edge11" class="edge">
<title>HikeComponentsModule&#45;&gt;TrailBoxComponent </title>
<path fill="none" stroke="#000000" stroke-dasharray="5,2" d="M848.6649,-174C1012.2654,-174 1374.0945,-174 1374.0945,-174 1374.0945,-174 1374.0945,-205.998 1374.0945,-205.998"/>
<polygon fill="#000000" stroke="#000000" points="1370.5946,-205.998 1374.0945,-215.998 1377.5946,-205.9981 1370.5946,-205.998"/>
</g>
<!-- HikeCardComponent  -->
<g id="node13" class="node">
<title>HikeCardComponent </title>
<polygon fill="#fb8072" stroke="#000000" points="1292.7562,-252 1153.2438,-252 1153.2438,-216 1292.7562,-216 1292.7562,-252"/>
<text text-anchor="middle" x="1223" y="-229.8" font-family="Times,serif" font-size="14.00" fill="#000000">HikeCardComponent </text>
</g>
<!-- HikeComponentsModule&#45;&gt;HikeCardComponent  -->
<g id="edge12" class="edge">
<title>HikeComponentsModule&#45;&gt;HikeCardComponent </title>
<path fill="none" stroke="#000000" stroke-dasharray="5,2" d="M848.7961,-178C972.1442,-178 1196.8922,-178 1196.8922,-178 1196.8922,-178 1196.8922,-205.973 1196.8922,-205.973"/>
<polygon fill="#000000" stroke="#000000" points="1193.3923,-205.973 1196.8922,-215.973 1200.3923,-205.973 1193.3923,-205.973"/>
</g>
<!-- HikeInfoComponent  -->
<g id="node14" class="node">
<title>HikeInfoComponent </title>
<polygon fill="#fb8072" stroke="#000000" points="1135.8659,-252 1000.1341,-252 1000.1341,-216 1135.8659,-216 1135.8659,-252"/>
<text text-anchor="middle" x="1068" y="-229.8" font-family="Times,serif" font-size="14.00" fill="#000000">HikeInfoComponent </text>
</g>
<!-- HikeComponentsModule&#45;&gt;HikeInfoComponent  -->
<g id="edge13" class="edge">
<title>HikeComponentsModule&#45;&gt;HikeInfoComponent </title>
<path fill="none" stroke="#000000" stroke-dasharray="5,2" d="M848.8945,-183C936.9757,-183 1067.3154,-183 1067.3154,-183 1067.3154,-183 1067.3154,-205.8757 1067.3154,-205.8757"/>
<polygon fill="#000000" stroke="#000000" points="1063.8155,-205.8757 1067.3154,-215.8757 1070.8155,-205.8757 1063.8155,-205.8757"/>
</g>
<!-- HikeDataItemComponent  -->
<g id="node15" class="node">
<title>HikeDataItemComponent </title>
<polygon fill="#fb8072" stroke="#000000" points="982.127,-252 817.873,-252 817.873,-216 982.127,-216 982.127,-252"/>
<text text-anchor="middle" x="900" y="-229.8" font-family="Times,serif" font-size="14.00" fill="#000000">HikeDataItemComponent </text>
</g>
<!-- HikeComponentsModule&#45;&gt;HikeDataItemComponent  -->
<g id="edge14" class="edge">
<title>HikeComponentsModule&#45;&gt;HikeDataItemComponent </title>
<path fill="none" stroke="#000000" stroke-dasharray="5,2" d="M833.3529,-187.1061C833.3529,-187.1061 833.3529,-205.991 833.3529,-205.991"/>
<polygon fill="#000000" stroke="#000000" points="829.853,-205.9909 833.3529,-215.991 836.853,-205.991 829.853,-205.9909"/>
</g>
<!-- ElevationProfileComponent  -->
<g id="node16" class="node">
<title>ElevationProfileComponent </title>
<polygon fill="#fb8072" stroke="#000000" points="800.0861,-252 623.9139,-252 623.9139,-216 800.0861,-216 800.0861,-252"/>
<text text-anchor="middle" x="712" y="-229.8" font-family="Times,serif" font-size="14.00" fill="#000000">ElevationProfileComponent </text>
</g>
<!-- HikeComponentsModule&#45;&gt;ElevationProfileComponent  -->
<g id="edge15" class="edge">
<title>HikeComponentsModule&#45;&gt;ElevationProfileComponent </title>
<path fill="none" stroke="#000000" stroke-dasharray="5,2" d="M745.7618,-187.1061C745.7618,-187.1061 745.7618,-205.991 745.7618,-205.991"/>
<polygon fill="#000000" stroke="#000000" points="742.2618,-205.9909 745.7618,-215.991 749.2618,-205.991 742.2618,-205.9909"/>
</g>
<!-- HikeProgramComponent  -->
<g id="node17" class="node">
<title>HikeProgramComponent </title>
<polygon fill="#fb8072" stroke="#000000" points="606.2534,-252 445.7466,-252 445.7466,-216 606.2534,-216 606.2534,-252"/>
<text text-anchor="middle" x="526" y="-229.8" font-family="Times,serif" font-size="14.00" fill="#000000">HikeProgramComponent </text>
</g>
<!-- HikeComponentsModule&#45;&gt;HikeProgramComponent  -->
<g id="edge16" class="edge">
<title>HikeComponentsModule&#45;&gt;HikeProgramComponent </title>
<path fill="none" stroke="#000000" stroke-dasharray="5,2" d="M691.2505,-183C645.9328,-183 597.8943,-183 597.8943,-183 597.8943,-183 597.8943,-205.8757 597.8943,-205.8757"/>
<polygon fill="#000000" stroke="#000000" points="594.3944,-205.8757 597.8943,-215.8757 601.3944,-205.8757 594.3944,-205.8757"/>
</g>
<!-- CheckpointsComponent  -->
<g id="node18" class="node">
<title>CheckpointsComponent </title>
<polygon fill="#fb8072" stroke="#000000" points="427.3241,-252 272.6759,-252 272.6759,-216 427.3241,-216 427.3241,-252"/>
<text text-anchor="middle" x="350" y="-229.8" font-family="Times,serif" font-size="14.00" fill="#000000">CheckpointsComponent </text>
</g>
<!-- HikeComponentsModule&#45;&gt;CheckpointsComponent  -->
<g id="edge17" class="edge">
<title>HikeComponentsModule&#45;&gt;CheckpointsComponent </title>
<path fill="none" stroke="#000000" stroke-dasharray="5,2" d="M691.2212,-178C575.0152,-178 371.2568,-178 371.2568,-178 371.2568,-178 371.2568,-205.973 371.2568,-205.973"/>
<polygon fill="#000000" stroke="#000000" points="367.7569,-205.973 371.2568,-215.973 374.7569,-205.973 367.7569,-205.973"/>
</g>
<!-- LocationSearchComponent  -->
<g id="node19" class="node">
<title>LocationSearchComponent </title>
<polygon fill="#fb8072" stroke="#000000" points="254.1827,-252 81.8173,-252 81.8173,-216 254.1827,-216 254.1827,-252"/>
<text text-anchor="middle" x="168" y="-229.8" font-family="Times,serif" font-size="14.00" fill="#000000">LocationSearchComponent </text>
</g>
<!-- HikeComponentsModule&#45;&gt;LocationSearchComponent  -->
<g id="edge18" class="edge">
<title>HikeComponentsModule&#45;&gt;LocationSearchComponent </title>
<path fill="none" stroke="#000000" stroke-dasharray="5,2" d="M691.4219,-174C543.7181,-174 239.3948,-174 239.3948,-174 239.3948,-174 239.3948,-205.998 239.3948,-205.998"/>
<polygon fill="#000000" stroke="#000000" points="235.8949,-205.998 239.3948,-215.998 242.8949,-205.9981 235.8949,-205.998"/>
</g>
<!-- HikeModule -->
<g id="node10" class="node">
<title>HikeModule</title>
<polygon fill="#8dd3c7" stroke="#000000" points="227.2619,-122 224.2619,-126 203.2619,-126 200.2619,-122 140.7381,-122 140.7381,-86 227.2619,-86 227.2619,-122"/>
<text text-anchor="middle" x="184" y="-99.8" font-family="Times,serif" font-size="14.00" fill="#000000">HikeModule</text>
</g>
<!-- HikeModule&#45;&gt;HikeComponentsModule -->
<g id="edge9" class="edge">
<title>HikeModule&#45;&gt;HikeComponentsModule</title>
<path fill="none" stroke="#000000" d="M184,-122.302C184,-140.2699 184,-165 184,-165 184,-165 681.2737,-165 681.2737,-165"/>
<polygon fill="#000000" stroke="#000000" points="681.2737,-168.5001 691.2737,-165 681.2737,-161.5001 681.2737,-168.5001"/>
</g>
<!-- SharedModule -->
<g id="node11" class="node">
<title>SharedModule</title>
<polygon fill="#8dd3c7" stroke="#000000" points="122.4231,-122 119.4231,-126 98.4231,-126 95.4231,-122 23.5769,-122 23.5769,-86 122.4231,-86 122.4231,-122"/>
<text text-anchor="middle" x="73" y="-99.8" font-family="Times,serif" font-size="14.00" fill="#000000">SharedModule</text>
</g>
<!-- SharedModule&#45;&gt;HikeComponentsModule -->
<g id="edge10" class="edge">
<title>SharedModule&#45;&gt;HikeComponentsModule</title>
<path fill="none" stroke="#000000" d="M101.935,-122.1061C101.935,-141.3391 101.935,-169 101.9349,-169 101.9349,-169 681.3999,-169 681.3999,-169"/>
<polygon fill="#000000" stroke="#000000" points="681.4,-172.5001 691.3999,-169 681.3999,-165.5001 681.4,-172.5001"/>
</g>
</g>
</svg>
