<?xml version="1.0" encoding="UTF-8" standalone="no"?>
<!DOCTYPE svg PUBLIC "-//W3C//DTD SVG 1.1//EN"
 "http://www.w3.org/Graphics/SVG/1.1/DTD/svg11.dtd">
<!-- Generated by graphviz version 2.40.1 (20161225.0304)
 -->
<!-- Title: dependencies Pages: 1 -->
<svg width="504pt" height="211pt"
 viewBox="0.00 0.00 504.00 211.00" xmlns="http://www.w3.org/2000/svg" xmlns:xlink="http://www.w3.org/1999/xlink">
<g id="graph0" class="graph" transform="scale(1 1) rotate(0) translate(4 207)">
<title>dependencies</title>
<polygon fill="#ffffff" stroke="transparent" points="-4,4 -4,-207 500,-207 500,4 -4,4"/>
<text text-anchor="start" x="227.0091" y="-42.4" font-family="sans-serif" font-weight="bold" font-size="14.00" fill="#000000">Legend</text>
<polygon fill="#ffffb3" stroke="transparent" points="14,-10 14,-30 34,-30 34,-10 14,-10"/>
<text text-anchor="start" x="37.629" y="-15.4" font-family="sans-serif" font-size="14.00" fill="#000000"> &#160;Declarations</text>
<polygon fill="#8dd3c7" stroke="transparent" points="127,-10 127,-30 147,-30 147,-10 127,-10"/>
<text text-anchor="start" x="150.7251" y="-15.4" font-family="sans-serif" font-size="14.00" fill="#000000"> &#160;Module</text>
<polygon fill="#80b1d3" stroke="transparent" points="213,-10 213,-30 233,-30 233,-10 213,-10"/>
<text text-anchor="start" x="236.7812" y="-15.4" font-family="sans-serif" font-size="14.00" fill="#000000"> &#160;Bootstrap</text>
<polygon fill="#fdb462" stroke="transparent" points="310,-10 310,-30 330,-30 330,-10 310,-10"/>
<text text-anchor="start" x="333.6732" y="-15.4" font-family="sans-serif" font-size="14.00" fill="#000000"> &#160;Providers</text>
<polygon fill="#fb8072" stroke="transparent" points="406,-10 406,-30 426,-30 426,-10 406,-10"/>
<text text-anchor="start" x="429.7258" y="-15.4" font-family="sans-serif" font-size="14.00" fill="#000000"> &#160;Exports</text>
<g id="clust1" class="cluster">
<title>cluster_OauthWindowModule</title>
<polygon fill="none" stroke="#000000" stroke-dasharray="1,5" points="69,-70 69,-195 427,-195 427,-70 69,-70"/>
</g>
<g id="clust3" class="cluster">
<title>cluster_OauthWindowModule_imports</title>
<polygon fill="none" stroke="#000000" points="295,-78 295,-130 419,-130 419,-78 295,-78"/>
</g>
<g id="clust6" class="cluster">
<title>cluster_OauthWindowModule_providers</title>
<polygon fill="none" stroke="#000000" points="77,-78 77,-130 287,-130 287,-78 77,-78"/>
</g>
<!-- WindowModule -->
<g id="node1" class="node">
<title>WindowModule</title>
<polygon fill="#8dd3c7" stroke="#000000" points="410.7619,-122 407.7619,-126 386.7619,-126 383.7619,-122 303.2381,-122 303.2381,-86 410.7619,-86 410.7619,-122"/>
<text text-anchor="middle" x="357" y="-99.8" font-family="Times,serif" font-size="14.00" fill="#000000">WindowModule</text>
</g>
<!-- OauthWindowModule -->
<g id="node2" class="node">
<title>OauthWindowModule</title>
<polygon fill="#8dd3c7" stroke="#000000" points="335.9734,-187 332.9734,-191 311.9734,-191 308.9734,-187 194.0266,-187 194.0266,-151 335.9734,-151 335.9734,-187"/>
<text text-anchor="middle" x="265" y="-164.8" font-family="Times,serif" font-size="14.00" fill="#000000">OauthWindowModule</text>
</g>
<!-- WindowModule&#45;&gt;OauthWindowModule -->
<g id="edge1" class="edge">
<title>WindowModule&#45;&gt;OauthWindowModule</title>
<path fill="none" stroke="#000000" d="M319.553,-122.1061C319.553,-122.1061 319.553,-140.991 319.553,-140.991"/>
<polygon fill="#000000" stroke="#000000" points="316.053,-140.9909 319.553,-150.991 323.053,-140.991 316.053,-140.9909"/>
</g>
<!-- OauthWindowService -->
<g id="node3" class="node">
<title>OauthWindowService</title>
<ellipse fill="#fdb462" stroke="#000000" cx="182" cy="-104" rx="96.6926" ry="18"/>
<text text-anchor="middle" x="182" y="-99.8" font-family="Times,serif" font-size="14.00" fill="#000000">OauthWindowService</text>
</g>
<!-- OauthWindowService&#45;&gt;OauthWindowModule -->
<g id="edge2" class="edge">
<title>OauthWindowService&#45;&gt;OauthWindowModule</title>
<path fill="none" stroke="#000000" d="M236.4297,-119.0757C236.4297,-119.0757 236.4297,-140.7642 236.4297,-140.7642"/>
<polygon fill="#000000" stroke="#000000" points="232.9298,-140.7642 236.4297,-150.7642 239.9298,-140.7642 232.9298,-140.7642"/>
</g>
</g>
</svg>
