<?xml version="1.0" encoding="UTF-8" standalone="no"?>
<!DOCTYPE svg PUBLIC "-//W3C//DTD SVG 1.1//EN"
 "http://www.w3.org/Graphics/SVG/1.1/DTD/svg11.dtd">
<!-- Generated by graphviz version 2.40.1 (20161225.0304)
 -->
<!-- Title: dependencies Pages: 1 -->
<svg width="504pt" height="284pt"
 viewBox="0.00 0.00 504.00 284.00" xmlns="http://www.w3.org/2000/svg" xmlns:xlink="http://www.w3.org/1999/xlink">
<g id="graph0" class="graph" transform="scale(1 1) rotate(0) translate(4 280)">
<title>dependencies</title>
<polygon fill="#ffffff" stroke="transparent" points="-4,4 -4,-280 500,-280 500,4 -4,4"/>
<text text-anchor="start" x="227.0091" y="-42.4" font-family="sans-serif" font-weight="bold" font-size="14.00" fill="#000000">Legend</text>
<polygon fill="#ffffb3" stroke="transparent" points="14,-10 14,-30 34,-30 34,-10 14,-10"/>
<text text-anchor="start" x="37.629" y="-15.4" font-family="sans-serif" font-size="14.00" fill="#000000"> &#160;Declarations</text>
<polygon fill="#8dd3c7" stroke="transparent" points="127,-10 127,-30 147,-30 147,-10 127,-10"/>
<text text-anchor="start" x="150.7251" y="-15.4" font-family="sans-serif" font-size="14.00" fill="#000000"> &#160;Module</text>
<polygon fill="#80b1d3" stroke="transparent" points="213,-10 213,-30 233,-30 233,-10 213,-10"/>
<text text-anchor="start" x="236.7812" y="-15.4" font-family="sans-serif" font-size="14.00" fill="#000000"> &#160;Bootstrap</text>
<polygon fill="#fdb462" stroke="transparent" points="310,-10 310,-30 330,-30 330,-10 310,-10"/>
<text text-anchor="start" x="333.6732" y="-15.4" font-family="sans-serif" font-size="14.00" fill="#000000"> &#160;Providers</text>
<polygon fill="#fb8072" stroke="transparent" points="406,-10 406,-30 426,-30 426,-10 406,-10"/>
<text text-anchor="start" x="429.7258" y="-15.4" font-family="sans-serif" font-size="14.00" fill="#000000"> &#160;Exports</text>
<g id="clust1" class="cluster">
<title>cluster_HikeListModule</title>
<polygon fill="none" stroke="#000000" stroke-dasharray="1,5" points="106,-70 106,-268 390,-268 390,-70 106,-70"/>
</g>
<g id="clust2" class="cluster">
<title>cluster_HikeListModule_declarations</title>
<polygon fill="none" stroke="#000000" points="236,-78 236,-130 382,-130 382,-78 236,-78"/>
</g>
<g id="clust4" class="cluster">
<title>cluster_HikeListModule_imports</title>
<polygon fill="none" stroke="#000000" points="114,-78 114,-130 228,-130 228,-78 114,-78"/>
</g>
<g id="clust5" class="cluster">
<title>cluster_HikeListModule_exports</title>
<polygon fill="none" stroke="#000000" points="173,-208 173,-260 323,-260 323,-208 173,-208"/>
</g>
<!-- HikeListComponent -->
<g id="node1" class="node">
<title>HikeListComponent</title>
<polygon fill="#ffffb3" stroke="#000000" points="374.323,-122 243.677,-122 243.677,-86 374.323,-86 374.323,-122"/>
<text text-anchor="middle" x="309" y="-99.8" font-family="Times,serif" font-size="14.00" fill="#000000">HikeListComponent</text>
</g>
<!-- HikeListModule -->
<g id="node2" class="node">
<title>HikeListModule</title>
<polygon fill="#8dd3c7" stroke="#000000" points="302.041,-187 299.041,-191 278.041,-191 275.041,-187 193.959,-187 193.959,-151 302.041,-151 302.041,-187"/>
<text text-anchor="middle" x="248" y="-164.8" font-family="Times,serif" font-size="14.00" fill="#000000">HikeListModule</text>
</g>
<!-- HikeListComponent&#45;&gt;HikeListModule -->
<g id="edge1" class="edge">
<title>HikeListComponent&#45;&gt;HikeListModule</title>
<path fill="none" stroke="#000000" d="M273.0544,-122.1061C273.0544,-122.1061 273.0544,-140.991 273.0544,-140.991"/>
<polygon fill="#000000" stroke="#000000" points="269.5544,-140.9909 273.0544,-150.991 276.5544,-140.991 269.5544,-140.9909"/>
</g>
<!-- HikeListComponent  -->
<g id="node4" class="node">
<title>HikeListComponent </title>
<polygon fill="#fb8072" stroke="#000000" points="314.8227,-252 181.1773,-252 181.1773,-216 314.8227,-216 314.8227,-252"/>
<text text-anchor="middle" x="248" y="-229.8" font-family="Times,serif" font-size="14.00" fill="#000000">HikeListComponent </text>
</g>
<!-- HikeListModule&#45;&gt;HikeListComponent  -->
<g id="edge3" class="edge">
<title>HikeListModule&#45;&gt;HikeListComponent </title>
<path fill="none" stroke="#000000" stroke-dasharray="5,2" d="M248,-187.1061C248,-187.1061 248,-205.991 248,-205.991"/>
<polygon fill="#000000" stroke="#000000" points="244.5001,-205.9909 248,-215.991 251.5001,-205.991 244.5001,-205.9909"/>
</g>
<!-- RouterModule -->
<g id="node3" class="node">
<title>RouterModule</title>
<polygon fill="#8dd3c7" stroke="#000000" points="219.6528,-122 216.6528,-126 195.6528,-126 192.6528,-122 122.3472,-122 122.3472,-86 219.6528,-86 219.6528,-122"/>
<text text-anchor="middle" x="171" y="-99.8" font-family="Times,serif" font-size="14.00" fill="#000000">RouterModule</text>
</g>
<!-- RouterModule&#45;&gt;HikeListModule -->
<g id="edge2" class="edge">
<title>RouterModule&#45;&gt;HikeListModule</title>
<path fill="none" stroke="#000000" d="M206.7781,-122.1061C206.7781,-122.1061 206.7781,-140.991 206.7781,-140.991"/>
<polygon fill="#000000" stroke="#000000" points="203.2781,-140.9909 206.7781,-150.991 210.2781,-140.991 203.2781,-140.9909"/>
</g>
</g>
</svg>
