<?xml version="1.0" encoding="UTF-8" standalone="no"?>
<!DOCTYPE svg PUBLIC "-//W3C//DTD SVG 1.1//EN"
 "http://www.w3.org/Graphics/SVG/1.1/DTD/svg11.dtd">
<!-- Generated by graphviz version 2.40.1 (20161225.0304)
 -->
<!-- Title: dependencies Pages: 1 -->
<svg width="610pt" height="211pt"
 viewBox="0.00 0.00 610.00 211.00" xmlns="http://www.w3.org/2000/svg" xmlns:xlink="http://www.w3.org/1999/xlink">
<g id="graph0" class="graph" transform="scale(1 1) rotate(0) translate(4 207)">
<title>dependencies</title>
<polygon fill="#ffffff" stroke="transparent" points="-4,4 -4,-207 606,-207 606,4 -4,4"/>
<text text-anchor="start" x="280.0091" y="-42.4" font-family="sans-serif" font-weight="bold" font-size="14.00" fill="#000000">Legend</text>
<polygon fill="#ffffb3" stroke="transparent" points="67,-10 67,-30 87,-30 87,-10 67,-10"/>
<text text-anchor="start" x="90.629" y="-15.4" font-family="sans-serif" font-size="14.00" fill="#000000"> &#160;Declarations</text>
<polygon fill="#8dd3c7" stroke="transparent" points="180,-10 180,-30 200,-30 200,-10 180,-10"/>
<text text-anchor="start" x="203.7251" y="-15.4" font-family="sans-serif" font-size="14.00" fill="#000000"> &#160;Module</text>
<polygon fill="#80b1d3" stroke="transparent" points="266,-10 266,-30 286,-30 286,-10 266,-10"/>
<text text-anchor="start" x="289.7812" y="-15.4" font-family="sans-serif" font-size="14.00" fill="#000000"> &#160;Bootstrap</text>
<polygon fill="#fdb462" stroke="transparent" points="363,-10 363,-30 383,-30 383,-10 363,-10"/>
<text text-anchor="start" x="386.6732" y="-15.4" font-family="sans-serif" font-size="14.00" fill="#000000"> &#160;Providers</text>
<polygon fill="#fb8072" stroke="transparent" points="459,-10 459,-30 479,-30 479,-10 459,-10"/>
<text text-anchor="start" x="482.7258" y="-15.4" font-family="sans-serif" font-size="14.00" fill="#000000"> &#160;Exports</text>
<g id="clust1" class="cluster">
<title>cluster_FacebookModule</title>
<polygon fill="none" stroke="#000000" stroke-dasharray="1,5" points="8,-70 8,-195 594,-195 594,-70 8,-70"/>
</g>
<g id="clust3" class="cluster">
<title>cluster_FacebookModule_imports</title>
<polygon fill="none" stroke="#000000" points="196,-78 196,-130 586,-130 586,-78 196,-78"/>
</g>
<g id="clust6" class="cluster">
<title>cluster_FacebookModule_providers</title>
<polygon fill="none" stroke="#000000" points="16,-78 16,-130 188,-130 188,-78 16,-78"/>
</g>
<!-- OauthWindowModule -->
<g id="node1" class="node">
<title>OauthWindowModule</title>
<polygon fill="#8dd3c7" stroke="#000000" points="577.9734,-122 574.9734,-126 553.9734,-126 550.9734,-122 436.0266,-122 436.0266,-86 577.9734,-86 577.9734,-122"/>
<text text-anchor="middle" x="507" y="-99.8" font-family="Times,serif" font-size="14.00" fill="#000000">OauthWindowModule</text>
</g>
<!-- FacebookModule -->
<g id="node4" class="node">
<title>FacebookModule</title>
<polygon fill="#8dd3c7" stroke="#000000" points="362.9762,-187 359.9762,-191 338.9762,-191 335.9762,-187 249.0238,-187 249.0238,-151 362.9762,-151 362.9762,-187"/>
<text text-anchor="middle" x="306" y="-164.8" font-family="Times,serif" font-size="14.00" fill="#000000">FacebookModule</text>
</g>
<!-- OauthWindowModule&#45;&gt;FacebookModule -->
<g id="edge1" class="edge">
<title>OauthWindowModule&#45;&gt;FacebookModule</title>
<path fill="none" stroke="#000000" d="M507,-122.1061C507,-141.3391 507,-169 507,-169 507,-169 373.0609,-169 373.0609,-169"/>
<polygon fill="#000000" stroke="#000000" points="373.0609,-165.5001 363.0609,-169 373.0609,-172.5001 373.0609,-165.5001"/>
</g>
<!-- WindowModule -->
<g id="node2" class="node">
<title>WindowModule</title>
<polygon fill="#8dd3c7" stroke="#000000" points="417.7619,-122 414.7619,-126 393.7619,-126 390.7619,-122 310.2381,-122 310.2381,-86 417.7619,-86 417.7619,-122"/>
<text text-anchor="middle" x="364" y="-99.8" font-family="Times,serif" font-size="14.00" fill="#000000">WindowModule</text>
</g>
<!-- WindowModule&#45;&gt;FacebookModule -->
<g id="edge2" class="edge">
<title>WindowModule&#45;&gt;FacebookModule</title>
<path fill="none" stroke="#000000" d="M336.5537,-122.1061C336.5537,-122.1061 336.5537,-140.991 336.5537,-140.991"/>
<polygon fill="#000000" stroke="#000000" points="333.0537,-140.9909 336.5537,-150.991 340.0537,-140.991 333.0537,-140.9909"/>
</g>
<!-- AuthModule -->
<g id="node3" class="node">
<title>AuthModule</title>
<polygon fill="#8dd3c7" stroke="#000000" points="291.5482,-122 288.5482,-126 267.5482,-126 264.5482,-122 204.4518,-122 204.4518,-86 291.5482,-86 291.5482,-122"/>
<text text-anchor="middle" x="248" y="-99.8" font-family="Times,serif" font-size="14.00" fill="#000000">AuthModule</text>
</g>
<!-- AuthModule&#45;&gt;FacebookModule -->
<g id="edge3" class="edge">
<title>AuthModule&#45;&gt;FacebookModule</title>
<path fill="none" stroke="#000000" d="M270.3927,-122.1061C270.3927,-122.1061 270.3927,-140.991 270.3927,-140.991"/>
<polygon fill="#000000" stroke="#000000" points="266.8928,-140.9909 270.3927,-150.991 273.8928,-140.991 266.8928,-140.9909"/>
</g>
<!-- FacebookService -->
<g id="node5" class="node">
<title>FacebookService</title>
<ellipse fill="#fdb462" stroke="#000000" cx="102" cy="-104" rx="77.5685" ry="18"/>
<text text-anchor="middle" x="102" y="-99.8" font-family="Times,serif" font-size="14.00" fill="#000000">FacebookService</text>
</g>
<!-- FacebookService&#45;&gt;FacebookModule -->
<g id="edge4" class="edge">
<title>FacebookService&#45;&gt;FacebookModule</title>
<path fill="none" stroke="#000000" d="M102,-122.1061C102,-141.3391 102,-169 102,-169 102,-169 238.9034,-169 238.9034,-169"/>
<polygon fill="#000000" stroke="#000000" points="238.9034,-172.5001 248.9034,-169 238.9033,-165.5001 238.9034,-172.5001"/>
</g>
</g>
</svg>
