<?xml version="1.0" encoding="UTF-8" standalone="no"?>
<!DOCTYPE svg PUBLIC "-//W3C//DTD SVG 1.1//EN"
 "http://www.w3.org/Graphics/SVG/1.1/DTD/svg11.dtd">
<!-- Generated by graphviz version 2.40.1 (20161225.0304)
 -->
<!-- Title: dependencies Pages: 1 -->
<svg width="964pt" height="284pt"
 viewBox="0.00 0.00 964.00 284.00" xmlns="http://www.w3.org/2000/svg" xmlns:xlink="http://www.w3.org/1999/xlink">
<g id="graph0" class="graph" transform="scale(1 1) rotate(0) translate(4 280)">
<title>dependencies</title>
<polygon fill="#ffffff" stroke="transparent" points="-4,4 -4,-280 960,-280 960,4 -4,4"/>
<text text-anchor="start" x="457.0091" y="-42.4" font-family="sans-serif" font-weight="bold" font-size="14.00" fill="#000000">Legend</text>
<polygon fill="#ffffb3" stroke="transparent" points="244,-10 244,-30 264,-30 264,-10 244,-10"/>
<text text-anchor="start" x="267.629" y="-15.4" font-family="sans-serif" font-size="14.00" fill="#000000"> &#160;Declarations</text>
<polygon fill="#8dd3c7" stroke="transparent" points="357,-10 357,-30 377,-30 377,-10 357,-10"/>
<text text-anchor="start" x="380.7251" y="-15.4" font-family="sans-serif" font-size="14.00" fill="#000000"> &#160;Module</text>
<polygon fill="#80b1d3" stroke="transparent" points="443,-10 443,-30 463,-30 463,-10 443,-10"/>
<text text-anchor="start" x="466.7812" y="-15.4" font-family="sans-serif" font-size="14.00" fill="#000000"> &#160;Bootstrap</text>
<polygon fill="#fdb462" stroke="transparent" points="540,-10 540,-30 560,-30 560,-10 540,-10"/>
<text text-anchor="start" x="563.6732" y="-15.4" font-family="sans-serif" font-size="14.00" fill="#000000"> &#160;Providers</text>
<polygon fill="#fb8072" stroke="transparent" points="636,-10 636,-30 656,-30 656,-10 636,-10"/>
<text text-anchor="start" x="659.7258" y="-15.4" font-family="sans-serif" font-size="14.00" fill="#000000"> &#160;Exports</text>
<g id="clust1" class="cluster">
<title>cluster_DynamicModalModule</title>
<polygon fill="none" stroke="#000000" stroke-dasharray="1,5" points="8,-70 8,-268 948,-268 948,-70 8,-70"/>
</g>
<g id="clust2" class="cluster">
<title>cluster_DynamicModalModule_declarations</title>
<polygon fill="none" stroke="#000000" points="242,-78 242,-130 940,-130 940,-78 242,-78"/>
</g>
<g id="clust7" class="cluster">
<title>cluster_DynamicModalModule_exports</title>
<polygon fill="none" stroke="#000000" points="238,-208 238,-260 700,-260 700,-208 238,-208"/>
</g>
<g id="clust9" class="cluster">
<title>cluster_DynamicModalModule_providers</title>
<polygon fill="none" stroke="#000000" points="16,-78 16,-130 234,-130 234,-78 16,-78"/>
</g>
<!-- DynamicModalContainerComponent -->
<g id="node1" class="node">
<title>DynamicModalContainerComponent</title>
<polygon fill="#ffffb3" stroke="#000000" points="932.4072,-122 707.5928,-122 707.5928,-86 932.4072,-86 932.4072,-122"/>
<text text-anchor="middle" x="820" y="-99.8" font-family="Times,serif" font-size="14.00" fill="#000000">DynamicModalContainerComponent</text>
</g>
<!-- DynamicModalModule -->
<g id="node4" class="node">
<title>DynamicModalModule</title>
<polygon fill="#8dd3c7" stroke="#000000" points="535.9172,-187 532.9172,-191 511.9172,-191 508.9172,-187 388.0828,-187 388.0828,-151 535.9172,-151 535.9172,-187"/>
<text text-anchor="middle" x="462" y="-164.8" font-family="Times,serif" font-size="14.00" fill="#000000">DynamicModalModule</text>
</g>
<!-- DynamicModalContainerComponent&#45;&gt;DynamicModalModule -->
<g id="edge1" class="edge">
<title>DynamicModalContainerComponent&#45;&gt;DynamicModalModule</title>
<path fill="none" stroke="#000000" d="M820,-122.1061C820,-141.3391 820,-169 820,-169 820,-169 545.7438,-169 545.7438,-169"/>
<polygon fill="#000000" stroke="#000000" points="545.7438,-165.5001 535.7438,-169 545.7437,-172.5001 545.7438,-165.5001"/>
</g>
<!-- DefaultComponentModalComponent -->
<g id="node2" class="node">
<title>DefaultComponentModalComponent</title>
<polygon fill="#ffffb3" stroke="#000000" points="689.6923,-122 464.3077,-122 464.3077,-86 689.6923,-86 689.6923,-122"/>
<text text-anchor="middle" x="577" y="-99.8" font-family="Times,serif" font-size="14.00" fill="#000000">DefaultComponentModalComponent</text>
</g>
<!-- DefaultComponentModalComponent&#45;&gt;DynamicModalModule -->
<g id="edge2" class="edge">
<title>DefaultComponentModalComponent&#45;&gt;DynamicModalModule</title>
<path fill="none" stroke="#000000" d="M500.0561,-122.1061C500.0561,-122.1061 500.0561,-140.991 500.0561,-140.991"/>
<polygon fill="#000000" stroke="#000000" points="496.5562,-140.9909 500.0561,-150.991 503.5562,-140.991 496.5562,-140.9909"/>
</g>
<!-- DynamicModalCoreComponent -->
<g id="node3" class="node">
<title>DynamicModalCoreComponent</title>
<polygon fill="#ffffb3" stroke="#000000" points="446.4114,-122 249.5886,-122 249.5886,-86 446.4114,-86 446.4114,-122"/>
<text text-anchor="middle" x="348" y="-99.8" font-family="Times,serif" font-size="14.00" fill="#000000">DynamicModalCoreComponent</text>
</g>
<!-- DynamicModalCoreComponent&#45;&gt;DynamicModalModule -->
<g id="edge3" class="edge">
<title>DynamicModalCoreComponent&#45;&gt;DynamicModalModule</title>
<path fill="none" stroke="#000000" d="M417.2486,-122.1061C417.2486,-122.1061 417.2486,-140.991 417.2486,-140.991"/>
<polygon fill="#000000" stroke="#000000" points="413.7487,-140.9909 417.2486,-150.991 420.7487,-140.991 413.7487,-140.9909"/>
</g>
<!-- DynamicModalContainerComponent  -->
<g id="node5" class="node">
<title>DynamicModalContainerComponent </title>
<polygon fill="#fb8072" stroke="#000000" points="691.9068,-252 464.0932,-252 464.0932,-216 691.9068,-216 691.9068,-252"/>
<text text-anchor="middle" x="578" y="-229.8" font-family="Times,serif" font-size="14.00" fill="#000000">DynamicModalContainerComponent </text>
</g>
<!-- DynamicModalModule&#45;&gt;DynamicModalContainerComponent  -->
<g id="edge4" class="edge">
<title>DynamicModalModule&#45;&gt;DynamicModalContainerComponent </title>
<path fill="none" stroke="#000000" stroke-dasharray="5,2" d="M499.8775,-187.1061C499.8775,-187.1061 499.8775,-205.991 499.8775,-205.991"/>
<polygon fill="#000000" stroke="#000000" points="496.3775,-205.9909 499.8775,-215.991 503.3775,-205.991 496.3775,-205.9909"/>
</g>
<!-- DynamicModalCoreComponent  -->
<g id="node6" class="node">
<title>DynamicModalCoreComponent </title>
<polygon fill="#fb8072" stroke="#000000" points="445.911,-252 246.089,-252 246.089,-216 445.911,-216 445.911,-252"/>
<text text-anchor="middle" x="346" y="-229.8" font-family="Times,serif" font-size="14.00" fill="#000000">DynamicModalCoreComponent </text>
</g>
<!-- DynamicModalModule&#45;&gt;DynamicModalCoreComponent  -->
<g id="edge5" class="edge">
<title>DynamicModalModule&#45;&gt;DynamicModalCoreComponent </title>
<path fill="none" stroke="#000000" stroke-dasharray="5,2" d="M417.1236,-187.1061C417.1236,-187.1061 417.1236,-205.991 417.1236,-205.991"/>
<polygon fill="#000000" stroke="#000000" points="413.6237,-205.9909 417.1236,-215.991 420.6237,-205.991 413.6237,-205.9909"/>
</g>
<!-- DynamicModalService -->
<g id="node7" class="node">
<title>DynamicModalService</title>
<ellipse fill="#fdb462" stroke="#000000" cx="125" cy="-104" rx="100.7017" ry="18"/>
<text text-anchor="middle" x="125" y="-99.8" font-family="Times,serif" font-size="14.00" fill="#000000">DynamicModalService</text>
</g>
<!-- DynamicModalService&#45;&gt;DynamicModalModule -->
<g id="edge6" class="edge">
<title>DynamicModalService&#45;&gt;DynamicModalModule</title>
<path fill="none" stroke="#000000" d="M125,-122.1061C125,-141.3391 125,-169 125,-169 125,-169 378.0439,-169 378.0439,-169"/>
<polygon fill="#000000" stroke="#000000" points="378.044,-172.5001 388.0439,-169 378.0439,-165.5001 378.044,-172.5001"/>
</g>
</g>
</svg>
