<?xml version="1.0" encoding="UTF-8"?>
<svg width="44px" height="56px" viewBox="0 0 44 56" version="1.1" xmlns="http://www.w3.org/2000/svg" xmlns:xlink="http://www.w3.org/1999/xlink">
    <!-- Generator: Sketch 53.2 (72643) - https://sketchapp.com -->
    <title>normal/atm</title>
    <desc>Created with Sketch.</desc>
    <defs>
        <filter x="-37.5%" y="-27.3%" width="175.0%" height="154.5%" filterUnits="objectBoundingBox" id="filter-1">
            <feOffset dx="0" dy="0" in="SourceAlpha" result="shadowOffsetOuter1"></feOffset>
            <feGaussianBlur stdDeviation="3" in="shadowOffsetOuter1" result="shadowBlurOuter1"></feGaussianBlur>
            <feColorMatrix values="0 0 0 0 0   0 0 0 0 0   0 0 0 0 0  0 0 0 0.4 0" type="matrix" in="shadowBlurOuter1" result="shadowMatrixOuter1"></feColorMatrix>
            <feMerge>
                <feMergeNode in="shadowMatrixOuter1"></feMergeNode>
                <feMergeNode in="SourceGraphic"></feMergeNode>
            </feMerge>
        </filter>
    </defs>
    <g id="Icons" stroke="none" stroke-width="1" fill="none" fill-rule="evenodd">
        <g id="new-icons-normal" transform="translate(-91.000000, -12.000000)" fill-rule="nonzero">
            <g id="normal/atm" filter="url(#filter-1)" transform="translate(97.000000, 18.000000)">
                <g id="pin/normal">
                    <path d="M16,-3.55271368e-15 C7.17755235,-3.55271368e-15 0,7.14846184 0,15.9350663 C0,26.8395171 14.3184326,42.8478882 14.9280525,43.5240452 C15.5006552,44.1592101 16.5003802,44.1580929 17.0719475,43.5240452 C17.6815674,42.8478882 32,26.8395171 32,15.9350663 C31.9998274,7.14846184 24.8223614,-3.55271368e-15 16,-3.55271368e-15 Z" id="Path" fill="#7C7CF0"></path>
                    <circle id="Oval" fill="#FFFFFF" cx="16" cy="16" r="13"></circle>
                </g>
                <g id="icon/normal/atm" transform="translate(8.000000, 8.000000)" fill="#7C7CF0">
                    <path d="M2,2 L10,2 L10,11 L2,11 L2,2 Z M4,7 L3,7 L3,8 L4,8 L4,9 L5,9 L5,8 L7,8 L7,7 L5,7 L5,6 L7,6 L7,5 L5,5 L5,4 L4,4 L4,5 L3,5 L3,6 L4,6 L4,7 Z M5,3 L5,4 L8,4 L8,3 L5,3 Z M5,9 L5,10 L8,10 L8,9 L5,9 Z M2,12 L4,12 L4,14 L2,14 L2,12 Z M11,9 L14,9 L14,10 L11,10 L11,9 Z M11,7 L14,7 L14,8 L11,8 L11,7 Z M1,1 L1,15 L15,15 L15,1 L1,1 Z M0,0 L16,0 L16,16 L0,16 L0,0 Z M5,12 L7,12 L7,14 L5,14 L5,12 Z" id="icon"></path>
                </g>
            </g>
        </g>
    </g>
</svg>