<?xml version="1.0" encoding="UTF-8"?>
<svg width="44px" height="56px" viewBox="0 0 44 56" version="1.1" xmlns="http://www.w3.org/2000/svg" xmlns:xlink="http://www.w3.org/1999/xlink">
    <!-- Generator: Sketch 53.2 (72643) - https://sketchapp.com -->
    <title>normal/fuel</title>
    <desc>Created with Sketch.</desc>
    <defs>
        <filter x="-37.5%" y="-27.3%" width="175.0%" height="154.5%" filterUnits="objectBoundingBox" id="filter-1">
            <feOffset dx="0" dy="0" in="SourceAlpha" result="shadowOffsetOuter1"></feOffset>
            <feGaussianBlur stdDeviation="3" in="shadowOffsetOuter1" result="shadowBlurOuter1"></feGaussianBlur>
            <feColorMatrix values="0 0 0 0 0   0 0 0 0 0   0 0 0 0 0  0 0 0 0.4 0" type="matrix" in="shadowBlurOuter1" result="shadowMatrixOuter1"></feColorMatrix>
            <feMerge>
                <feMergeNode in="shadowMatrixOuter1"></feMergeNode>
                <feMergeNode in="SourceGraphic"></feMergeNode>
            </feMerge>
        </filter>
    </defs>
    <g id="Icons" stroke="none" stroke-width="1" fill="none" fill-rule="evenodd">
        <g id="new-icons-normal" transform="translate(-155.000000, -88.000000)" fill-rule="nonzero">
            <g id="normal/fuel" filter="url(#filter-1)" transform="translate(161.000000, 94.000000)">
                <g id="pin/normal">
                    <path d="M16,-3.55271368e-15 C7.17755235,-3.55271368e-15 0,7.14846184 0,15.9350663 C0,26.8395171 14.3184326,42.8478882 14.9280525,43.5240452 C15.5006552,44.1592101 16.5003802,44.1580929 17.0719475,43.5240452 C17.6815674,42.8478882 32,26.8395171 32,15.9350663 C31.9998274,7.14846184 24.8223614,-3.55271368e-15 16,-3.55271368e-15 Z" id="Path" fill="#7C7CF0"></path>
                    <circle id="Oval" fill="#FFFFFF" cx="16" cy="16" r="13"></circle>
                </g>
                <g id="icon/normal/fuel" transform="translate(8.000000, 8.000000)" fill="#7C7CF0">
                    <path d="M15.0177917,3.76 L15.031125,3.74666667 L11.72,0.444458333 L10.7777917,1.38666667 L12.6533333,3.26220833 C11.8177917,3.58220833 11.2222083,4.38666667 11.2222083,5.33333333 C11.2222083,6.56 12.21775,7.55554167 13.4444167,7.55554167 C13.7599583,7.55554167 14.0622083,7.488875 14.3332917,7.368875 L14.3332917,13.77775 C14.3333333,14.2666667 13.9333333,14.6666667 13.4444583,14.6666667 C12.9555833,14.6666667 12.5555833,14.2666667 12.5555833,13.7777917 L12.5555833,9.77779167 C12.5555833,8.79558333 11.7600417,8 10.7777917,8 L9.88891667,8 L9.88891667,1.77779167 C9.888875,0.795541667 9.09333333,0 8.111125,0 L2.77779167,0 C1.79554167,0 1,0.795541667 1,1.77779167 L1,16 L9.888875,16 L9.888875,9.33333333 L11.2222083,9.33333333 L11.2222083,13.7777917 C11.2222083,15.0044583 12.21775,16 13.4444167,16 C14.6710833,16 15.666625,15.0044583 15.666625,13.7777917 L15.666625,5.33333333 C15.6666667,4.72 15.4177917,4.16445833 15.0177917,3.76 Z M8.111125,6.22220833 L2.77779167,6.22220833 L2.77779167,1.77779167 L8.111125,1.77779167 L8.111125,6.22220833 Z M13.4444583,6.22220833 C12.9555833,6.22220833 12.5555833,5.82220833 12.5555833,5.33333333 C12.5555833,4.84445833 12.9555833,4.44445833 13.4444583,4.44445833 C13.9333333,4.44445833 14.3333333,4.84445833 14.3333333,5.33333333 C14.3333333,5.82220833 13.9333333,6.22220833 13.4444583,6.22220833 Z" id="icon"></path>
                </g>
            </g>
        </g>
    </g>
</svg>