<?xml version="1.0" encoding="UTF-8"?>
<svg width="44px" height="56px" viewBox="0 0 44 56" version="1.1" xmlns="http://www.w3.org/2000/svg" xmlns:xlink="http://www.w3.org/1999/xlink">
    <!-- Generator: Sketch 53.2 (72643) - https://sketchapp.com -->
    <title>normal/mud</title>
    <desc>Created with Sketch.</desc>
    <defs>
        <filter x="-37.5%" y="-27.3%" width="175.0%" height="154.5%" filterUnits="objectBoundingBox" id="filter-1">
            <feOffset dx="0" dy="0" in="SourceAlpha" result="shadowOffsetOuter1"></feOffset>
            <feGaussianBlur stdDeviation="3" in="shadowOffsetOuter1" result="shadowBlurOuter1"></feGaussianBlur>
            <feColorMatrix values="0 0 0 0 0   0 0 0 0 0   0 0 0 0 0  0 0 0 0.4 0" type="matrix" in="shadowBlurOuter1" result="shadowMatrixOuter1"></feColorMatrix>
            <feMerge>
                <feMergeNode in="shadowMatrixOuter1"></feMergeNode>
                <feMergeNode in="SourceGraphic"></feMergeNode>
            </feMerge>
        </filter>
    </defs>
    <g id="Icons" stroke="none" stroke-width="1" fill="none" fill-rule="evenodd">
        <g id="new-icons-normal" transform="translate(-475.000000, -88.000000)" fill-rule="nonzero">
            <g id="normal/mud" filter="url(#filter-1)" transform="translate(481.000000, 94.000000)">
                <g id="pin/normal">
                    <path d="M16,-3.55271368e-15 C7.17755235,-3.55271368e-15 0,7.14846184 0,15.9350663 C0,26.8395171 14.3184326,42.8478882 14.9280525,43.5240452 C15.5006552,44.1592101 16.5003802,44.1580929 17.0719475,43.5240452 C17.6815674,42.8478882 32,26.8395171 32,15.9350663 C31.9998274,7.14846184 24.8223614,-3.55271368e-15 16,-3.55271368e-15 Z" id="Path" fill="#7C7CF0"></path>
                    <circle id="Oval" fill="#FFFFFF" cx="16" cy="16" r="13"></circle>
                </g>
                <g id="icon/normal/mud" transform="translate(8.000000, 8.000000)" fill="#7C7CF0">
                    <path d="M4.77815494,12.586644 C4.22794649,10.8786062 3.23271221,8.32238323 2.18559232,7.4180108 C1.96271523,7.2223866 1.93618224,6.88741365 2.12987305,6.63551399 C2.32356385,6.41041217 2.65522618,6.38361434 2.90463625,6.57923854 C4.15190611,7.65257137 5.18719831,10.2964948 5.74614319,11.9668962 C5.84504422,11.8602389 5.9840949,11.7993018 6.13009455,11.7993018 C6.28241455,11.7993018 6.42717091,11.8656291 6.52666182,11.9810036 C6.56436038,12.0247207 6.60378266,12.0665398 6.6447836,12.1063941 C6.4725023,9.75237442 5.90668152,5.08941492 4.06412776,1.83334182 C3.92615623,1.55464433 4.00840849,1.21967138 4.28435154,1.07764285 C4.53376162,0.938294102 4.86542395,1.02404718 5.03258176,1.27594683 C7.18537857,5.10935663 7.67940488,10.5086271 7.79137946,12.6455609 C7.83816855,12.6505878 7.88528172,12.6539269 7.93263718,12.6555407 L7.93263718,3.03388486 L6.96418318,3.39565565 C6.68824012,3.50552677 6.38576407,3.36617803 6.27432553,3.08748053 C6.16554028,2.80878304 6.30351181,2.50328771 6.57945487,2.3907368 L8.2934858,1.74758874 C8.8745582,1.59752086 9.01252973,2.08256169 9.01252973,2.25138806 L9.01252973,12.3709017 C9.10110267,12.3166591 9.18556668,12.2551754 9.26501403,12.1868672 C9.41990656,9.80617548 9.98474526,4.84108392 11.9974907,1.27594683 C12.1354622,1.02404718 12.4671246,0.911496266 12.7430676,1.08032263 C12.9924777,1.21967138 13.1039162,1.55464433 12.9367584,1.83334182 C11.1048076,5.0927307 10.5353065,9.72772705 10.36057,12.0848553 C10.5619932,12.2868873 10.8032154,12.4404535 11.0663184,12.5373196 C11.5555639,10.97508 12.6899352,7.78774179 14.0962499,6.57923854 C14.319127,6.38361434 14.6773223,6.41309196 14.8710131,6.63551399 C15.0647039,6.86061582 15.0355177,7.2223866 14.8152939,7.4180108 C13.7662125,8.32160171 12.7692113,10.8855244 12.219644,12.5956676 C12.6002983,12.4978128 12.9463507,12.2854416 13.2087855,11.9810618 C13.3082764,11.8656873 13.4530327,11.79936 13.6053527,11.79936 C13.7576727,11.79936 13.9024873,11.8657455 14.00192,11.9810618 C14.3722473,12.4105018 14.9088582,12.6567855 15.4742109,12.6567855 C15.7634327,12.6567855 15.9979055,12.8912582 15.9979055,13.1804218 C15.9979055,13.4696436 15.7634909,13.7040582 15.4742691,13.7040582 C14.8651636,13.7040582 14.2781673,13.5181673 13.7853091,13.1804218 C13.7239273,13.1383564 13.6637091,13.0943127 13.6054109,13.0475927 C13.5470545,13.0943127 13.4868945,13.1383564 13.4255127,13.1804218 C12.9327127,13.5181673 12.3457164,13.7040582 11.7366109,13.7040582 C11.1275055,13.7040582 10.5405091,13.5181673 10.0476509,13.1804218 C9.98626909,13.1383564 9.92605091,13.0943127 9.86775273,13.0475927 C9.80939636,13.0943127 9.74923636,13.1383564 9.68785455,13.1804218 C9.19505455,13.5181673 8.608,13.7040582 7.99895273,13.7040582 C7.38990545,13.7040582 6.80285091,13.5181673 6.31005091,13.1804218 C6.24866909,13.1383564 6.18845091,13.0943127 6.13015273,13.0475927 C6.07179636,13.0943127 6.01163636,13.1383564 5.95025455,13.1804218 C5.45739636,13.5181673 4.87034182,13.7040582 4.26129455,13.7040582 C3.65224727,13.7040582 3.06519273,13.5181673 2.57239273,13.1804218 C2.51101091,13.1383564 2.45079273,13.0943127 2.39249455,13.0475927 C2.33413818,13.0943127 2.27397818,13.1383564 2.21259636,13.1804218 C1.71973818,13.5181673 1.13274182,13.7040582 0.523636364,13.7040582 C0.234414545,13.7040582 1.61648472e-13,13.4696436 1.61648472e-13,13.1804218 C1.61648472e-13,12.8912 0.234414545,12.6567855 0.523636364,12.6567855 C1.08898909,12.6567855 1.6256,12.4105018 1.99586909,11.9810618 C2.09536,11.8656873 2.24011636,11.79936 2.39243636,11.79936 C2.54475636,11.79936 2.68951273,11.8656873 2.78900364,11.9810618 C3.15927273,12.4104436 3.69582545,12.6567273 4.26123636,12.6567273 C4.43774402,12.6567273 4.61144502,12.632726 4.77815494,12.586644 Z M15.4742109,14.8574836 C15.7634327,14.8574836 15.9979055,15.0918982 15.9979055,15.38112 C15.9979055,15.6703418 15.7634909,15.9047564 15.4742691,15.9047564 C14.8651636,15.9047564 14.2781091,15.7188655 13.7853091,15.38112 C13.7239273,15.3390545 13.6637091,15.2950109 13.6054109,15.2482909 C13.5470545,15.2950109 13.4868945,15.3390545 13.4255127,15.38112 C12.9327127,15.7188655 12.3457164,15.9047564 11.7366109,15.9047564 C11.1275055,15.9047564 10.5404509,15.7188655 10.0476509,15.38112 C9.98626909,15.3390545 9.92605091,15.2950109 9.86775273,15.2482909 C9.80939636,15.2950109 9.74923636,15.3390545 9.68785455,15.38112 C9.19505455,15.7188655 8.608,15.9047564 7.99895273,15.9047564 C7.38990545,15.9047564 6.80285091,15.7188655 6.31005091,15.38112 C6.24866909,15.3390545 6.18845091,15.2950109 6.13015273,15.2482909 C6.07185455,15.2950109 6.01163636,15.3390545 5.95025455,15.38112 C5.45739636,15.7188655 4.87034182,15.9047564 4.26129455,15.9047564 C3.65224727,15.9047564 3.06519273,15.7188655 2.57239273,15.38112 C2.51101091,15.3390545 2.45079273,15.2950109 2.39249455,15.2482909 C2.33419636,15.2950109 2.27397818,15.3390545 2.21259636,15.38112 C1.71973818,15.7188655 1.13274182,15.9047564 0.523636364,15.9047564 C0.234414545,15.9047564 2.42472709e-13,15.6703418 2.42472709e-13,15.38112 C2.42472709e-13,15.0918982 0.234414545,14.8574836 0.523636364,14.8574836 C1.08898909,14.8574836 1.6256,14.6112582 1.99586909,14.18176 C2.09536,14.0663855 2.24011636,14.0000582 2.39243636,14.0000582 C2.54475636,14.0000582 2.68951273,14.0663855 2.78900364,14.18176 C3.15927273,14.6111418 3.69582545,14.8574255 4.26123636,14.8574255 C4.82664727,14.8574255 5.36325818,14.6111418 5.73352727,14.1817018 C5.83301818,14.0663273 5.97777455,14 6.13009455,14 C6.28241455,14 6.42717091,14.0663273 6.52666182,14.1817018 C6.89693091,14.6110836 7.43348364,14.8573673 7.99889455,14.8573673 C8.56430545,14.8573673 9.10091636,14.6110836 9.47112727,14.1817018 C9.57061818,14.0663273 9.71537455,14 9.86769455,14 C10.0200145,14 10.1648291,14.0663855 10.2642618,14.1817018 C10.6345891,14.6111418 11.1711418,14.8574255 11.7365527,14.8574255 C12.3019636,14.8574255 12.8385745,14.6111418 13.2087855,14.18176 C13.3082764,14.0663855 13.4530327,14.0000582 13.6053527,14.0000582 C13.7576727,14.0000582 13.9024873,14.0664436 14.00192,14.18176 C14.3722473,14.6112 14.9088582,14.8574836 15.4742109,14.8574836 Z" id="icon"></path>
                </g>
            </g>
        </g>
    </g>
</svg>