<?xml version="1.0" encoding="UTF-8"?>
<svg width="44px" height="56px" viewBox="0 0 44 56" version="1.1" xmlns="http://www.w3.org/2000/svg" xmlns:xlink="http://www.w3.org/1999/xlink">
    <!-- Generator: Sketch 53.2 (72643) - https://sketchapp.com -->
    <title>normal/peak</title>
    <desc>Created with Sketch.</desc>
    <defs>
        <filter x="-37.5%" y="-27.3%" width="175.0%" height="154.5%" filterUnits="objectBoundingBox" id="filter-1">
            <feOffset dx="0" dy="0" in="SourceAlpha" result="shadowOffsetOuter1"></feOffset>
            <feGaussianBlur stdDeviation="3" in="shadowOffsetOuter1" result="shadowBlurOuter1"></feGaussianBlur>
            <feColorMatrix values="0 0 0 0 0   0 0 0 0 0   0 0 0 0 0  0 0 0 0.4 0" type="matrix" in="shadowBlurOuter1" result="shadowMatrixOuter1"></feColorMatrix>
            <feMerge>
                <feMergeNode in="shadowMatrixOuter1"></feMergeNode>
                <feMergeNode in="SourceGraphic"></feMergeNode>
            </feMerge>
        </filter>
    </defs>
    <g id="Icons" stroke="none" stroke-width="1" fill="none" fill-rule="evenodd">
        <g id="new-icons-normal" transform="translate(-603.000000, -88.000000)" fill-rule="nonzero">
            <g id="normal/peak" filter="url(#filter-1)" transform="translate(609.000000, 94.000000)">
                <g id="pin/normal">
                    <path d="M16,-3.55271368e-15 C7.17755235,-3.55271368e-15 0,7.14846184 0,15.9350663 C0,26.8395171 14.3184326,42.8478882 14.9280525,43.5240452 C15.5006552,44.1592101 16.5003802,44.1580929 17.0719475,43.5240452 C17.6815674,42.8478882 32,26.8395171 32,15.9350663 C31.9998274,7.14846184 24.8223614,-3.55271368e-15 16,-3.55271368e-15 Z" id="Path" fill="#7C7CF0"></path>
                    <circle id="Oval" fill="#FFFFFF" cx="16" cy="16" r="13"></circle>
                </g>
                <g id="icon/normal/peak" transform="translate(8.000000, 8.000000)" fill="#7C7CF0">
                    <path d="M15.9382552,15.0450788 L9.28108089,0.789008267 C9.05715864,0.30924331 8.55467516,0 7.99999194,0 C7.44530872,0 6.94282524,0.30924331 6.71890299,0.789008267 L0.0612408142,15.0450788 C-0.0373044895,15.2561569 -0.0158391759,15.4981133 0.117831187,15.6916784 C0.250525853,15.8843218 0.478350887,16 0.722274906,16 L7.99950409,16 L15.2767333,16 C15.5206573,16 15.7479945,15.8847827 15.8816648,15.6916784 C16.0163109,15.4981133 16.0372884,15.2561569 15.9382552,15.0450788 Z M10.7978004,7.75320448 C10.6699843,7.84952617 10.4772843,7.86657833 10.356298,7.761961 C10.0128529,7.46239594 9.2152214,6.58536164 8.96202827,6.58536164 C8.59321516,6.58536164 8.37953772,7.12181352 7.99950409,7.12181352 C7.76045855,7.12181352 7.23943685,6.36690958 7.23943685,6.36690958 C7.11357206,6.242014 6.90916373,6.22496183 6.76232147,6.32727482 L6.11543497,6.7766224 C5.98322815,6.8683354 5.80174868,6.86464844 5.67393249,6.76740502 C5.54611631,6.67062246 5.50269783,6.50424864 5.56904517,6.36230089 L7.63752085,1.91998157 C7.70581957,1.77342512 7.8350993,1.62871216 7.99950409,1.62871216 C8.16342103,1.62871216 8.29367646,1.77342512 8.36148734,1.91998157 L10.9026878,7.34856122 C10.9685473,7.48958723 10.9261045,7.65550019 10.7978004,7.75320448 Z" id="icon"></path>
                </g>
            </g>
        </g>
    </g>
</svg>