<?xml version="1.0" encoding="UTF-8"?>
<svg width="44px" height="56px" viewBox="0 0 44 56" version="1.1" xmlns="http://www.w3.org/2000/svg" xmlns:xlink="http://www.w3.org/1999/xlink">
    <!-- Generator: Sketch 53.2 (72643) - https://sketchapp.com -->
    <title>normal/picnic</title>
    <desc>Created with Sketch.</desc>
    <defs>
        <filter x="-37.5%" y="-27.3%" width="175.0%" height="154.5%" filterUnits="objectBoundingBox" id="filter-1">
            <feOffset dx="0" dy="0" in="SourceAlpha" result="shadowOffsetOuter1"></feOffset>
            <feGaussianBlur stdDeviation="3" in="shadowOffsetOuter1" result="shadowBlurOuter1"></feGaussianBlur>
            <feColorMatrix values="0 0 0 0 0   0 0 0 0 0   0 0 0 0 0  0 0 0 0.4 0" type="matrix" in="shadowBlurOuter1" result="shadowMatrixOuter1"></feColorMatrix>
            <feMerge>
                <feMergeNode in="shadowMatrixOuter1"></feMergeNode>
                <feMergeNode in="SourceGraphic"></feMergeNode>
            </feMerge>
        </filter>
    </defs>
    <g id="Icons" stroke="none" stroke-width="1" fill="none" fill-rule="evenodd">
        <g id="new-icons-normal" transform="translate(-91.000000, -164.000000)" fill-rule="nonzero">
            <g id="normal/picnic" filter="url(#filter-1)" transform="translate(97.000000, 170.000000)">
                <g id="pin/normal">
                    <path d="M16,-3.55271368e-15 C7.17755235,-3.55271368e-15 0,7.14846184 0,15.9350663 C0,26.8395171 14.3184326,42.8478882 14.9280525,43.5240452 C15.5006552,44.1592101 16.5003802,44.1580929 17.0719475,43.5240452 C17.6815674,42.8478882 32,26.8395171 32,15.9350663 C31.9998274,7.14846184 24.8223614,-3.55271368e-15 16,-3.55271368e-15 Z" id="Path" fill="#7C7CF0"></path>
                    <circle id="Oval" fill="#FFFFFF" cx="16" cy="16" r="13"></circle>
                </g>
                <g id="icon/normal/picnic" transform="translate(8.000000, 8.000000)" fill="#7C7CF0">
                    <path d="M10.6666667,10 L5.33333333,10 L3,14 L4.61852778e-14,14 L2.33333333,10 L0,10 L0,8 L3.5,8 L5.83333333,4 L3,4 L3,2 L13,2 L13,4 L10.1666667,4 L12.5,8 L16,8 L16,10 L13.6666667,10 L16,14 L13,14 L10.6666667,10 Z M9.5,8 L8,5.42857143 L6.5,8 L9.5,8 Z" id="icon"></path>
                </g>
            </g>
        </g>
    </g>
</svg>