<?xml version="1.0" encoding="UTF-8"?>
<svg width="44px" height="56px" viewBox="0 0 44 56" version="1.1" xmlns="http://www.w3.org/2000/svg" xmlns:xlink="http://www.w3.org/1999/xlink">
    <!-- Generator: Sketch 53.2 (72643) - https://sketchapp.com -->
    <title>normal/pub</title>
    <desc>Created with Sketch.</desc>
    <defs>
        <filter x="-37.5%" y="-27.3%" width="175.0%" height="154.5%" filterUnits="objectBoundingBox" id="filter-1">
            <feOffset dx="0" dy="0" in="SourceAlpha" result="shadowOffsetOuter1"></feOffset>
            <feGaussianBlur stdDeviation="3" in="shadowOffsetOuter1" result="shadowBlurOuter1"></feGaussianBlur>
            <feColorMatrix values="0 0 0 0 0   0 0 0 0 0   0 0 0 0 0  0 0 0 0.4 0" type="matrix" in="shadowBlurOuter1" result="shadowMatrixOuter1"></feColorMatrix>
            <feMerge>
                <feMergeNode in="shadowMatrixOuter1"></feMergeNode>
                <feMergeNode in="SourceGraphic"></feMergeNode>
            </feMerge>
        </filter>
    </defs>
    <g id="Icons" stroke="none" stroke-width="1" fill="none" fill-rule="evenodd">
        <g id="new-icons-normal" transform="translate(-411.000000, -164.000000)" fill-rule="nonzero">
            <g id="normal/pub" filter="url(#filter-1)" transform="translate(417.000000, 170.000000)">
                <g id="pin/normal">
                    <path d="M16,-3.55271368e-15 C7.17755235,-3.55271368e-15 0,7.14846184 0,15.9350663 C0,26.8395171 14.3184326,42.8478882 14.9280525,43.5240452 C15.5006552,44.1592101 16.5003802,44.1580929 17.0719475,43.5240452 C17.6815674,42.8478882 32,26.8395171 32,15.9350663 C31.9998274,7.14846184 24.8223614,-3.55271368e-15 16,-3.55271368e-15 Z" id="Path" fill="#7C7CF0"></path>
                    <circle id="Oval" fill="#FFFFFF" cx="16" cy="16" r="13"></circle>
                </g>
                <g id="icon/normal/pub" transform="translate(8.000000, 8.000000)" fill="#7C7CF0">
                    <path d="M7.11230522,3.66241139 C6.79426906,3.87562859 6.41165878,4 6,4 L6,14 L12,14 L12,4.73243561 C11.4021986,4.38662619 11,3.74028236 11,3 C11,2.97161427 10.9994086,2.94336667 10.9982376,2.91526882 C10.9994309,2.91484873 11.0006236,2.91442716 11.0018155,2.91400413 C11.0006092,2.94251901 11,2.97118836 11,3 Z M7.88769478,1.33758861 C8.20573094,1.12437141 8.58834122,1 9,1 C9.02838573,1 9.05663333,1.00059135 9.08473118,1.00176241 C9.29015094,0.418245787 9.8462322,0 10.5,0 C11.2527116,0 11.8759307,0.554423712 11.9835633,1.27717731 C12.2814207,1.10106714 12.6289076,1 13,1 C14.1045695,1 15,1.8954305 15,3 C15,3.74028236 14.5978014,4.38662619 14,4.73243561 L14,14 C14.5522847,14 15,14.4477153 15,15 C15,15.5522847 14.5522847,16 14,16 L4,16 C3.44771525,16 3,15.5522847 3,15 C3,14.4477153 3.44771525,14 4,14 L4,12 L2.25,12 C1.55964406,12 1,11.3284271 1,10.5 L1,5.5 C1,4.67157288 1.55964406,4 2.25,4 L4,4 L4,2 C4,0.8954305 4.8954305,0 6,0 C6.87240183,0 7.61434225,0.558571695 7.88769478,1.33758861 Z M4,10 L4,6 L3,6 L3,10 L4,10 Z M8,11 C7.44771525,11 7,10.5522847 7,10 C7,9.44771525 7.44771525,9 8,9 C8.55228475,9 9,9.44771525 9,10 C9,10.5522847 8.55228475,11 8,11 Z M10,9 C9.44771525,9 9,8.55228475 9,8 C9,7.44771525 9.44771525,7 10,7 C10.5522847,7 11,7.44771525 11,8 C11,8.55228475 10.5522847,9 10,9 Z M10,13 C9.44771525,13 9,12.5522847 9,12 C9,11.4477153 9.44771525,11 10,11 C10.5522847,11 11,11.4477153 11,12 C11,12.5522847 10.5522847,13 10,13 Z" id="icon"></path>
                </g>
            </g>
        </g>
    </g>
</svg>