<?xml version="1.0" encoding="UTF-8"?>
<svg width="44px" height="56px" viewBox="0 0 44 56" version="1.1" xmlns="http://www.w3.org/2000/svg" xmlns:xlink="http://www.w3.org/1999/xlink">
    <!-- Generator: Sketch 53.2 (72643) - https://sketchapp.com -->
    <title>normal/recycling</title>
    <desc>Created with Sketch.</desc>
    <defs>
        <filter x="-37.5%" y="-27.3%" width="175.0%" height="154.5%" filterUnits="objectBoundingBox" id="filter-1">
            <feOffset dx="0" dy="0" in="SourceAlpha" result="shadowOffsetOuter1"></feOffset>
            <feGaussianBlur stdDeviation="3" in="shadowOffsetOuter1" result="shadowBlurOuter1"></feGaussianBlur>
            <feColorMatrix values="0 0 0 0 0   0 0 0 0 0   0 0 0 0 0  0 0 0 0.4 0" type="matrix" in="shadowBlurOuter1" result="shadowMatrixOuter1"></feColorMatrix>
            <feMerge>
                <feMergeNode in="shadowMatrixOuter1"></feMergeNode>
                <feMergeNode in="SourceGraphic"></feMergeNode>
            </feMerge>
        </filter>
    </defs>
    <g id="Icons" stroke="none" stroke-width="1" fill="none" fill-rule="evenodd">
        <g id="new-icons-normal" transform="translate(-475.000000, -164.000000)" fill-rule="nonzero">
            <g id="normal/recycling" filter="url(#filter-1)" transform="translate(481.000000, 170.000000)">
                <g id="pin/normal">
                    <path d="M16,-3.55271368e-15 C7.17755235,-3.55271368e-15 0,7.14846184 0,15.9350663 C0,26.8395171 14.3184326,42.8478882 14.9280525,43.5240452 C15.5006552,44.1592101 16.5003802,44.1580929 17.0719475,43.5240452 C17.6815674,42.8478882 32,26.8395171 32,15.9350663 C31.9998274,7.14846184 24.8223614,-3.55271368e-15 16,-3.55271368e-15 Z" id="Path" fill="#7C7CF0"></path>
                    <circle id="Oval" fill="#FFFFFF" cx="16" cy="16" r="13"></circle>
                </g>
                <g id="icon/normal/recycle" transform="translate(8.000000, 8.000000)" fill="#7C7CF0">
                    <path d="M12.7826909,2.28365079 C13.2523955,2.3425871 13.5854749,2.77099155 13.5265386,3.24069611 L13.1164401,6.51344749 C13.0621919,6.94676333 12.692947,7.26399248 12.2669982,7.26399248 C12.2321722,7.26399248 12.1968997,7.26198331 12.1616272,7.25774166 L8.97281544,6.86661886 C8.50288766,6.80902198 8.1684687,6.38128728 8.22628881,5.91135943 C8.28388569,5.44143165 8.71117393,5.10768243 9.18154823,5.1648328 L10.46252,5.3219963 L8.84578984,3.07147748 C8.68282198,2.84443874 8.42899401,2.7142877 8.14949301,2.7142877 C7.87021524,2.7142877 7.6166105,2.84443874 7.45341946,3.07125425 C6.53700439,4.34664498 5.9826905,5.11862141 5.9324607,5.18938963 C5.65787108,5.57515458 5.12253288,5.665345 4.73699121,5.39075533 C4.35122625,5.11638895 4.26103577,4.5810508 4.53540221,4.19528584 C4.60617042,4.09594239 5.52191568,2.82166786 6.06127225,2.07089959 C6.55039901,1.39022983 7.31143647,1 8.14949301,1 C8.14949301,1 8.14949301,1 8.14971624,1 C8.98799601,1 9.74925669,1.39045306 10.2383835,2.0713461 L11.6916994,4.09437967 L11.8254223,3.02772173 C11.8843586,2.55779394 12.3125399,2.22493771 12.7826909,2.28365079 Z M5.93045152,11.5627714 C6.4039512,11.5627714 6.78748375,11.9465272 6.78748375,12.4200269 C6.78748375,12.8935266 6.40372797,13.2772824 5.93022829,13.2772824 L3.83798917,13.2772824 C2.89098975,13.2741569 2.05382624,12.7816816 1.59573035,11.9596986 C1.13875066,11.1403945 1.15973559,10.1726335 1.65154122,9.37096571 L2.46347828,8.0473543 L1.01842234,8.32350663 C0.553182657,8.41258085 0.104463028,8.1076301 0.0153888129,7.64261365 C-0.0734621727,7.17759719 0.231488628,6.72843105 0.696505083,6.63958012 L4.04828462,5.99887093 C4.05542842,5.99730827 4.06279544,5.99686175 4.07016253,5.99552232 C4.08244088,5.99351308 4.09494252,5.99172713 4.10722094,5.99016447 C4.12173176,5.98860175 4.13601935,5.98726226 4.15030694,5.98636929 C4.16258535,5.98547631 4.17464054,5.98458334 4.18669566,5.98436011 C4.20142977,5.98391359 4.21616382,5.98413688 4.23089793,5.98458334 C4.24272982,5.98480662 4.25456172,5.98502985 4.2666169,5.98569954 C4.28135095,5.9868158 4.29608506,5.98860175 4.31081911,5.99016447 C4.32265106,5.99172713 4.33425967,5.99284334 4.34609163,5.99462929 C4.36171865,5.99708498 4.37712245,6.00065688 4.3925263,6.00400555 C4.40301876,6.00623801 4.41373446,6.00824719 4.42400363,6.01092611 C4.44923015,6.01740016 4.4740102,6.02499042 4.49834374,6.03369693 C4.50548754,6.03637586 4.51263133,6.03972452 4.51999836,6.04240345 C4.53808113,6.04954724 4.55594062,6.05691427 4.57357683,6.06517432 C4.58183688,6.06896945 4.58987365,6.07343432 4.59813365,6.07767597 C4.61465365,6.08615919 4.63095048,6.09486571 4.64680073,6.10424191 C4.65037263,6.10625115 4.65394453,6.10781381 4.65751642,6.11004628 C4.66242781,6.11294843 4.66666945,6.11652033 4.67135756,6.11964571 C4.68631489,6.1292452 4.70104894,6.13929115 4.71555982,6.14978361 C4.72381982,6.15603443 4.73207982,6.16206202 4.74011659,6.16831284 C4.75328797,6.17858202 4.76578962,6.189521 4.77851449,6.20068315 C4.78632803,6.20782695 4.79458803,6.21474751 4.80217828,6.22211454 C4.81423347,6.23349998 4.82539562,6.24555516 4.83678106,6.25783352 C4.84370162,6.2652006 4.85106865,6.27256762 4.85776598,6.28015788 C4.8711606,6.29578496 4.88366224,6.3118585 4.89594066,6.3283785 C4.90263794,6.33730824 4.90911199,6.34623799 4.91536281,6.35539096 C4.9271947,6.37280399 4.93880343,6.39021702 4.94951912,6.40852297 C4.95532343,6.41856892 4.96023482,6.42883815 4.96559266,6.43910733 C4.97273646,6.45227872 4.97988025,6.4654501 4.9863543,6.47929118 C4.99171215,6.49089985 4.99617702,6.5027318 5.00108835,6.51434041 C5.00533,6.5250561 5.01024138,6.53532534 5.01425974,6.54604103 L6.03894794,9.34417648 C6.20169252,9.78887775 5.97309106,10.2811299 5.52861302,10.4440977 C5.43150204,10.4795935 5.33193541,10.49656 5.23393145,10.49656 C4.88433193,10.49656 4.55616385,10.2811299 4.42891497,9.93376284 L4.01368191,8.79923878 L3.11289392,10.267512 C2.87759513,10.6512678 3.02069433,10.9948397 3.09324849,11.1247675 C3.1662491,11.2560347 3.38547436,11.5612087 3.84089132,11.5627714 L5.93045152,11.5627714 Z M14.6612859,9.43392038 C15.1169261,10.2371509 15.1126845,11.193973 14.6496772,11.9938549 C14.1868932,12.7928438 13.3597757,13.2725943 12.4373331,13.2772824 L10.7938136,13.2772824 L11.6305306,13.9914387 C11.9906225,14.2988451 12.0334853,14.8399877 11.7260789,15.2000796 C11.5564137,15.3987664 11.3157572,15.5007887 11.0735378,15.5007887 C10.8768602,15.5007887 10.6790664,15.4333691 10.5176612,15.2956278 L7.93250022,13.0893113 C7.74877071,12.9325942 7.6396046,12.7055555 7.63201435,12.4642292 C7.63179106,12.4559691 7.63268404,12.4474859 7.63268404,12.4392259 C7.63246081,12.4327518 7.63156783,12.426501 7.63156783,12.4200269 C7.63156783,12.1266848 7.77935507,11.8679455 8.0041614,11.7134609 L10.3437544,9.44686848 C10.6837545,9.11736097 11.2264597,9.12606743 11.555744,9.46606746 C11.8852516,9.80629072 11.8765451,10.348996 11.5365451,10.6782803 L10.6234787,11.5627714 L12.4330914,11.5627714 C12.8715419,11.560539 13.0916601,11.262732 13.1657769,11.1348135 C13.2401171,11.0064484 13.3892438,10.6662251 13.1700186,10.2800137 L12.5411413,9.17138589 C12.3074052,8.75972468 12.4518439,8.23644165 12.8637283,8.00270558 C13.2751663,7.76919279 13.7986726,7.91340813 14.0321854,8.32529258 L14.6612859,9.43392038 Z" id="icon"></path>
                </g>
            </g>
        </g>
    </g>
</svg>