<?xml version="1.0" encoding="UTF-8"?>
<svg width="44px" height="56px" viewBox="0 0 44 56" version="1.1" xmlns="http://www.w3.org/2000/svg" xmlns:xlink="http://www.w3.org/1999/xlink">
    <!-- Generator: Sketch 53.2 (72643) - https://sketchapp.com -->
    <title>normal/restaurant</title>
    <desc>Created with Sketch.</desc>
    <defs>
        <filter x="-37.5%" y="-27.3%" width="175.0%" height="154.5%" filterUnits="objectBoundingBox" id="filter-1">
            <feOffset dx="0" dy="0" in="SourceAlpha" result="shadowOffsetOuter1"></feOffset>
            <feGaussianBlur stdDeviation="3" in="shadowOffsetOuter1" result="shadowBlurOuter1"></feGaussianBlur>
            <feColorMatrix values="0 0 0 0 0   0 0 0 0 0   0 0 0 0 0  0 0 0 0.4 0" type="matrix" in="shadowBlurOuter1" result="shadowMatrixOuter1"></feColorMatrix>
            <feMerge>
                <feMergeNode in="shadowMatrixOuter1"></feMergeNode>
                <feMergeNode in="SourceGraphic"></feMergeNode>
            </feMerge>
        </filter>
    </defs>
    <g id="Icons" stroke="none" stroke-width="1" fill="none" fill-rule="evenodd">
        <g id="new-icons-normal" transform="translate(-539.000000, -164.000000)" fill-rule="nonzero">
            <g id="normal/restaurant" filter="url(#filter-1)" transform="translate(545.000000, 170.000000)">
                <g id="pin/normal">
                    <path d="M16,-3.55271368e-15 C7.17755235,-3.55271368e-15 0,7.14846184 0,15.9350663 C0,26.8395171 14.3184326,42.8478882 14.9280525,43.5240452 C15.5006552,44.1592101 16.5003802,44.1580929 17.0719475,43.5240452 C17.6815674,42.8478882 32,26.8395171 32,15.9350663 C31.9998274,7.14846184 24.8223614,-3.55271368e-15 16,-3.55271368e-15 Z" id="Path" fill="#7C7CF0"></path>
                    <circle id="Oval" fill="#FFFFFF" cx="16" cy="16" r="13"></circle>
                </g>
                <g id="icon/normal/restaurant" transform="translate(8.000000, 8.000000)" fill="#7C7CF0">
                    <path d="M5.0672,9.94762449 L6.0219102,9.8661551 L6.93436735,10.8506449 L2.01077551,15.7733224 C1.81025306,15.9741388 1.48447347,15.9741388 1.28339592,15.7733224 L0.22315102,14.7128163 C0.0220734694,14.512 0.0220734694,14.1858612 0.22315102,13.9850776 L4.31977143,9.88832653 C4.49681633,9.92930612 4.67761633,9.95627755 4.8635102,9.95627755 C4.93146122,9.95627755 4.99924898,9.95333878 5.0672,9.94762449 Z M15.848,3.38445714 C16.0407837,3.57691429 16.0407837,3.88897959 15.8479673,4.08143673 L12.8611592,7.06782041 C12.1439673,7.78569796 11.1349878,8.01260408 10.2174041,7.78099592 L8.2154449,5.77890612 C7.98298776,4.86125714 8.20979592,3.85276735 8.92780408,3.13430204 L11.9141878,0.147755102 C12.1069714,-0.0447346939 12.4186776,-0.0447346939 12.6109388,0.147755102 C12.8037224,0.340473469 12.8037224,0.652212245 12.6109388,0.844669388 L9.95670204,3.49913469 C9.70602449,3.74958367 9.70602449,4.15644082 9.95670204,4.40708571 C10.207902,4.65828571 10.6143347,4.65828571 10.8655347,4.40708571 L13.5061224,1.76623673 C13.705698,1.56672653 14.0294204,1.56672653 14.2299429,1.76623673 C14.4295184,1.96646531 14.4295184,2.29031837 14.2299429,2.4900898 L11.5882776,5.1312 C11.3381878,5.38187755 11.3381878,5.78844082 11.5882776,6.03918367 C11.8394776,6.29012245 12.2463673,6.29012245 12.4975673,6.03918367 L15.1523592,3.38445714 C15.3445878,3.19229388 15.6557388,3.19229388 15.848,3.38445714 Z M1.34181224,0.417665306 L14.7658449,13.8414694 C14.8672,13.9430204 14.9240816,14.0809469 14.9240816,14.2245551 C14.9240816,14.3681959 14.8672,14.5060245 14.7654204,14.6075755 L13.663902,15.7093224 C13.5615347,15.8109388 13.4236082,15.8678531 13.2795429,15.8678531 C13.2763429,15.8678531 13.2731755,15.8678531 13.2701388,15.8678531 C13.1227755,15.8649469 12.9828898,15.8023184 12.8830367,15.6944653 L6.45133061,8.75604898 L4.97635918,8.88192653 C4.93877551,8.88502857 4.90109388,8.88659592 4.8635102,8.88659592 C4.51203265,8.88659592 4.17312653,8.7476898 3.92248163,8.49675102 L1.38204082,5.95663673 C-0.0379755102,4.5365551 -0.403559184,2.37302857 0.471216327,0.564930612 C0.547428571,0.406955102 0.695771429,0.295967347 0.868669388,0.266710204 C0.89835102,0.261746939 0.92875102,0.259167347 0.958987755,0.259167347 C1.10109388,0.259167347 1.23947755,0.315297959 1.34181224,0.417665306 Z" id="icon"></path>
                </g>
            </g>
        </g>
    </g>
</svg>