<?xml version="1.0" encoding="UTF-8"?>
<svg width="44px" height="56px" viewBox="0 0 44 56" version="1.1" xmlns="http://www.w3.org/2000/svg" xmlns:xlink="http://www.w3.org/1999/xlink">
    <!-- Generator: Sketch 53.2 (72643) - https://sketchapp.com -->
    <title>normal/sunsetland</title>
    <desc>Created with Sketch.</desc>
    <defs>
        <filter x="-37.5%" y="-27.3%" width="175.0%" height="154.5%" filterUnits="objectBoundingBox" id="filter-1">
            <feOffset dx="0" dy="0" in="SourceAlpha" result="shadowOffsetOuter1"></feOffset>
            <feGaussianBlur stdDeviation="3" in="shadowOffsetOuter1" result="shadowBlurOuter1"></feGaussianBlur>
            <feColorMatrix values="0 0 0 0 0   0 0 0 0 0   0 0 0 0 0  0 0 0 0.4 0" type="matrix" in="shadowBlurOuter1" result="shadowMatrixOuter1"></feColorMatrix>
            <feMerge>
                <feMergeNode in="shadowMatrixOuter1"></feMergeNode>
                <feMergeNode in="SourceGraphic"></feMergeNode>
            </feMerge>
        </filter>
    </defs>
    <g id="Icons" stroke="none" stroke-width="1" fill="none" fill-rule="evenodd">
        <g id="new-icons-normal" transform="translate(-283.000000, -240.000000)" fill-rule="nonzero">
            <g id="normal/sunsetland" filter="url(#filter-1)" transform="translate(289.000000, 246.000000)">
                <g id="pin/normal">
                    <path d="M16,-3.55271368e-15 C7.17755235,-3.55271368e-15 0,7.14846184 0,15.9350663 C0,26.8395171 14.3184326,42.8478882 14.9280525,43.5240452 C15.5006552,44.1592101 16.5003802,44.1580929 17.0719475,43.5240452 C17.6815674,42.8478882 32,26.8395171 32,15.9350663 C31.9998274,7.14846184 24.8223614,-3.55271368e-15 16,-3.55271368e-15 Z" id="Path" fill="#7C7CF0"></path>
                    <circle id="Oval" fill="#FFFFFF" cx="16" cy="16" r="13"></circle>
                </g>
                <g id="icon/normal/sunsetland" transform="translate(8.000000, 8.000000)" fill="#7C7CF0">
                    <path d="M0,12 L16,12 L16,14 L0,14 L0,12 Z M3,11 C3,8.23857625 5.23857625,6 8,6 C10.7614237,6 13,8.23857625 13,11 L3,11 Z M8,2 C8.55228475,2 9,2.44771525 9,3 L9,4 C9,4.55228475 8.55228475,5 8,5 C7.44771525,5 7,4.55228475 7,4 L7,3 C7,2.44771525 7.44771525,2 8,2 Z M2,10 C2,10.5522847 1.55228475,11 1,11 C0.44771525,11 0,10.5522847 0,10 C0,9.44771525 0.44771525,9 1,9 C1.55228475,9 2,9.44771525 2,10 Z M16,10 C16,10.5522847 15.5522847,11 15,11 C14.4477153,11 14,10.5522847 14,10 C14,9.44771525 14.4477153,9 15,9 C15.5522847,9 16,9.44771525 16,10 Z M14.5355339,4.70710678 C14.9260582,5.09763107 14.9260582,5.73079605 14.5355339,6.12132034 L13.8284271,6.82842712 C13.4379028,7.21895142 12.8047379,7.21895142 12.4142136,6.82842712 C12.0236893,6.43790283 12.0236893,5.80473785 12.4142136,5.41421356 L13.1213203,4.70710678 C13.5118446,4.31658249 14.1450096,4.31658249 14.5355339,4.70710678 Z M1.70710678,4.70710678 C2.09763107,4.31658249 2.73079605,4.31658249 3.12132034,4.70710678 L3.82842712,5.41421356 C4.21895142,5.80473785 4.21895142,6.43790283 3.82842712,6.82842712 C3.43790283,7.21895142 2.80473785,7.21895142 2.41421356,6.82842712 L1.70710678,6.12132034 C1.31658249,5.73079605 1.31658249,5.09763107 1.70710678,4.70710678 Z" id="icon"></path>
                </g>
            </g>
        </g>
    </g>
</svg>