<?xml version="1.0" encoding="UTF-8"?>
<svg width="44px" height="56px" viewBox="0 0 44 56" version="1.1" xmlns="http://www.w3.org/2000/svg" xmlns:xlink="http://www.w3.org/1999/xlink">
    <!-- Generator: Sketch 53.2 (72643) - https://sketchapp.com -->
    <title>normal/toilets</title>
    <desc>Created with Sketch.</desc>
    <defs>
        <filter x="-37.5%" y="-27.3%" width="175.0%" height="154.5%" filterUnits="objectBoundingBox" id="filter-1">
            <feOffset dx="0" dy="0" in="SourceAlpha" result="shadowOffsetOuter1"></feOffset>
            <feGaussianBlur stdDeviation="3" in="shadowOffsetOuter1" result="shadowBlurOuter1"></feGaussianBlur>
            <feColorMatrix values="0 0 0 0 0   0 0 0 0 0   0 0 0 0 0  0 0 0 0.4 0" type="matrix" in="shadowBlurOuter1" result="shadowMatrixOuter1"></feColorMatrix>
            <feMerge>
                <feMergeNode in="shadowMatrixOuter1"></feMergeNode>
                <feMergeNode in="SourceGraphic"></feMergeNode>
            </feMerge>
        </filter>
    </defs>
    <g id="Icons" stroke="none" stroke-width="1" fill="none" fill-rule="evenodd">
        <g id="new-icons-normal" transform="translate(-411.000000, -240.000000)" fill-rule="nonzero">
            <g id="normal/toilets" filter="url(#filter-1)" transform="translate(417.000000, 246.000000)">
                <g id="pin/normal">
                    <path d="M16,-3.55271368e-15 C7.17755235,-3.55271368e-15 0,7.14846184 0,15.9350663 C0,26.8395171 14.3184326,42.8478882 14.9280525,43.5240452 C15.5006552,44.1592101 16.5003802,44.1580929 17.0719475,43.5240452 C17.6815674,42.8478882 32,26.8395171 32,15.9350663 C31.9998274,7.14846184 24.8223614,-3.55271368e-15 16,-3.55271368e-15 Z" id="Path" fill="#7C7CF0"></path>
                    <circle id="Oval" fill="#FFFFFF" cx="16" cy="16" r="13"></circle>
                </g>
                <g id="icon/normal/toilets" transform="translate(8.000000, 8.000000)" fill="#7C7CF0">
                    <path d="M2.7978267,3.19748946 C1.9144918,3.19748946 1.19906323,2.48206089 1.19906323,1.59876347 C1.19906323,0.715428571 1.91452927,1.11022302e-15 2.7978267,1.11022302e-15 C3.68112412,1.11022302e-15 4.39655269,0.715428571 4.39659016,1.598726 C4.39659016,2.48206089 3.68112412,3.19748946 2.7978267,3.19748946 Z M3.99688993,3.99688993 C4.87617799,3.99688993 5.59561593,4.71632787 5.59561593,5.59561593 L5.59561593,9.99216862 L4.39655269,9.99216862 L4.39655269,15.9874848 L1.19906323,15.9874848 L1.19906323,9.99216862 L-1.96287431e-13,9.99216862 L-1.96287431e-13,5.59561593 C-1.96287431e-13,4.71632787 0.719437939,3.99688993 1.59876347,3.99688993 L3.99688993,3.99688993 Z M12.5972272,3.19748946 C11.7138923,3.19748946 10.9984637,2.48206089 10.9984637,1.59876347 C10.9984637,0.715428571 11.7138923,1.11022302e-15 12.5972272,1.11022302e-15 C13.4805246,1.11022302e-15 14.1959532,0.715428571 14.1959906,1.598726 C14.1959906,2.48206089 13.4805246,3.19748946 12.5972272,3.19748946 Z M14.1599813,5.09200937 L16.1943794,11.1912319 L13.7962529,11.1912319 L13.7962529,15.9874848 L11.3981265,15.9874848 L11.3981265,11.1912319 L9,11.1912319 L11.0384075,5.09200937 C11.2542389,4.43649649 11.8657611,3.99685246 12.5532365,3.99685246 L12.6451522,3.99685246 C13.3326276,3.99685246 13.9441499,4.43653396 14.1599813,5.09200937 Z M7,0 L8,0 L8,16 L7,16 L7,0 Z" id="icon"></path>
                </g>
            </g>
        </g>
    </g>
</svg>