<?xml version="1.0" encoding="UTF-8"?>
<svg width="44px" height="56px" viewBox="0 0 44 56" version="1.1" xmlns="http://www.w3.org/2000/svg" xmlns:xlink="http://www.w3.org/1999/xlink">
    <!-- Generator: Sketch 53.2 (72643) - https://sketchapp.com -->
    <title>normal/train-station</title>
    <desc>Created with Sketch.</desc>
    <defs>
        <filter x="-37.5%" y="-27.3%" width="175.0%" height="154.5%" filterUnits="objectBoundingBox" id="filter-1">
            <feOffset dx="0" dy="0" in="SourceAlpha" result="shadowOffsetOuter1"></feOffset>
            <feGaussianBlur stdDeviation="3" in="shadowOffsetOuter1" result="shadowBlurOuter1"></feGaussianBlur>
            <feColorMatrix values="0 0 0 0 0   0 0 0 0 0   0 0 0 0 0  0 0 0 0.4 0" type="matrix" in="shadowBlurOuter1" result="shadowMatrixOuter1"></feColorMatrix>
            <feMerge>
                <feMergeNode in="shadowMatrixOuter1"></feMergeNode>
                <feMergeNode in="SourceGraphic"></feMergeNode>
            </feMerge>
        </filter>
    </defs>
    <g id="Icons" stroke="none" stroke-width="1" fill="none" fill-rule="evenodd">
        <g id="new-icons-normal" transform="translate(-475.000000, -240.000000)" fill-rule="nonzero">
            <g id="normal/train-station" filter="url(#filter-1)" transform="translate(481.000000, 246.000000)">
                <g id="pin/normal">
                    <path d="M16,-3.55271368e-15 C7.17755235,-3.55271368e-15 0,7.14846184 0,15.9350663 C0,26.8395171 14.3184326,42.8478882 14.9280525,43.5240452 C15.5006552,44.1592101 16.5003802,44.1580929 17.0719475,43.5240452 C17.6815674,42.8478882 32,26.8395171 32,15.9350663 C31.9998274,7.14846184 24.8223614,-3.55271368e-15 16,-3.55271368e-15 Z" id="Path" fill="#7C7CF0"></path>
                    <circle id="Oval" fill="#FFFFFF" cx="16" cy="16" r="13"></circle>
                </g>
                <g id="icon/normal/train-station" transform="translate(8.000000, 8.000000)" fill="#7C7CF0">
                    <path d="M9,1 L9,3 L12,3 C12.5522847,3 13,3.44771525 13,4 L13,10 C13,10.5522847 12.5522847,11 12,11 L4,11 C3.44771525,11 3,10.5522847 3,10 L3,4 C3,3.44771525 3.44771525,3 4,3 L7,3 L7,1 L6,1 L6,0 L10,0 L10,1 L9,1 Z M4,4 L4,7 L12,7 L12,4 L4,4 Z M4,10 L6,10 L6,8 L4,8 L4,10 Z M10,10 L12,10 L12,8 L10,8 L10,10 Z M5,12 L11,12 L11,13 L5,13 L5,12 Z M4.92290374,9.98985009 L5.88882957,10.2486691 L4.3359153,16.0442241 L3.36998947,15.785405 L4.92290374,9.98985009 Z M11.3842857,15 L4,15 L4,14 L11.1163365,14 L10.1111704,10.2486691 L11.0770963,9.98985009 L12.6300105,15.785405 L11.6640847,16.0442241 L11.3842857,15 Z" id="icon"></path>
                </g>
            </g>
        </g>
    </g>
</svg>