<?xml version="1.0" encoding="UTF-8"?>
<svg width="44px" height="56px" viewBox="0 0 44 56" version="1.1" xmlns="http://www.w3.org/2000/svg" xmlns:xlink="http://www.w3.org/1999/xlink">
    <!-- Generator: Sketch 53.2 (72643) - https://sketchapp.com -->
    <title>normal/tree</title>
    <desc>Created with Sketch.</desc>
    <defs>
        <filter x="-37.5%" y="-27.3%" width="175.0%" height="154.5%" filterUnits="objectBoundingBox" id="filter-1">
            <feOffset dx="0" dy="0" in="SourceAlpha" result="shadowOffsetOuter1"></feOffset>
            <feGaussianBlur stdDeviation="3" in="shadowOffsetOuter1" result="shadowBlurOuter1"></feGaussianBlur>
            <feColorMatrix values="0 0 0 0 0   0 0 0 0 0   0 0 0 0 0  0 0 0 0.4 0" type="matrix" in="shadowBlurOuter1" result="shadowMatrixOuter1"></feColorMatrix>
            <feMerge>
                <feMergeNode in="shadowMatrixOuter1"></feMergeNode>
                <feMergeNode in="SourceGraphic"></feMergeNode>
            </feMerge>
        </filter>
    </defs>
    <g id="Icons" stroke="none" stroke-width="1" fill="none" fill-rule="evenodd">
        <g id="new-icons-normal" transform="translate(-539.000000, -240.000000)" fill-rule="nonzero">
            <g id="normal/tree" filter="url(#filter-1)" transform="translate(545.000000, 246.000000)">
                <g id="pin/normal">
                    <path d="M16,-3.55271368e-15 C7.17755235,-3.55271368e-15 0,7.14846184 0,15.9350663 C0,26.8395171 14.3184326,42.8478882 14.9280525,43.5240452 C15.5006552,44.1592101 16.5003802,44.1580929 17.0719475,43.5240452 C17.6815674,42.8478882 32,26.8395171 32,15.9350663 C31.9998274,7.14846184 24.8223614,-3.55271368e-15 16,-3.55271368e-15 Z" id="Path" fill="#7C7CF0"></path>
                    <circle id="Oval" fill="#FFFFFF" cx="16" cy="16" r="13"></circle>
                </g>
                <g id="icon/normal/tree" transform="translate(8.000000, 8.000000)" fill="#7C7CF0">
                    <path d="M14.5852183,4.72928596 C14.5852183,3.51718443 13.6653942,2.52023012 12.4856717,2.39778003 C12.1545719,1.5048934 11.297665,0.867248731 10.289313,0.867248731 C9.84791878,0.867248731 9.43654822,0.99151269 9.08419628,1.20354653 C8.68346531,0.485928934 7.91744162,0 7.03698139,0 C5.86968528,0 4.9042978,0.854307953 4.72515736,1.97114044 C4.62988832,1.95949915 4.53359052,1.95145854 4.43520812,1.95145854 C3.14053469,1.95145854 2.09076142,3.00098816 2.09076142,4.29590525 C2.09076142,4.35933672 2.09541794,4.4214687 2.10034518,4.48360068 C1.4438308,4.89911337 1.00682234,5.62967174 1.00682234,6.46405415 C1.00682234,7.20162437 1.34804738,7.85865313 1.88054146,8.28840609 C1.8782132,8.33061252 1.87407107,8.37252115 1.87407107,8.41526904 C1.87407107,9.70994247 2.92360068,10.7597157 4.21851777,10.7597157 C4.60657868,10.7597157 4.97160068,10.6639323 5.29392893,10.4972183 C5.74049408,10.8179763 6.37995262,11.2192487 6.68955668,11.1392487 C6.68955668,11.1392487 6.80475127,12.9234788 6.77989848,13.3765415 C6.73252115,14.2386193 6.47389509,15.1982944 6.29191201,15.9749577 L9.11064636,15.9749577 C9.11064636,15.9749577 8.69513367,14.2435465 8.67699492,13.6654619 C8.65888325,13.0873503 8.85770558,12.0228223 8.85770558,12.0228223 L9.83551946,11.0113841 C10.211912,11.2687107 10.6665178,11.4149848 11.1568596,11.4149848 C12.368934,11.4149848 13.3659154,10.4928325 13.4883655,9.31308291 C14.381225,8.98198308 15.0188697,8.12274788 15.0188697,7.11439594 C15.0188697,6.5189577 14.7951946,5.97736717 14.4296311,5.56369543 C14.5285279,5.30425719 14.5852183,5.02364805 14.5852183,4.72928596 Z M5.83549239,10.1101591 C6.02343147,9.93074788 6.18110321,9.72106937 6.3014687,9.48832487 L6.76175973,10.4526565 C6.76151607,10.4526836 6.51117428,10.5632217 5.83549239,10.1101591 Z M7.55656176,10.7055973 C7.31837563,10.7488325 6.91271743,10.0154044 6.62482572,9.41918105 C6.94404061,9.58202369 7.30440609,9.67574958 7.68753976,9.67574958 C7.78592217,9.67574958 7.88249069,9.66773604 7.97775973,9.65582403 C7.90371574,10.1329543 7.77325212,10.6659898 7.55656176,10.7055973 Z M8.56854146,11.1749577 C8.01761083,11.3279459 8.34743824,10.186775 8.50535364,9.52611844 C8.61954653,9.48366836 8.7300846,9.43371912 8.83518105,9.37440271 C8.89861252,9.85591878 9.10777665,10.2903283 9.41767851,10.6338545 C9.14919797,10.8723384 8.84008122,11.0996142 8.56854146,11.1749577 Z" id="icon"></path>
                </g>
            </g>
        </g>
    </g>
</svg>