<?xml version="1.0" encoding="UTF-8" standalone="no"?>
<!DOCTYPE svg PUBLIC "-//W3C//DTD SVG 1.1//EN"
 "http://www.w3.org/Graphics/SVG/1.1/DTD/svg11.dtd">
<!-- Generated by graphviz version 2.40.1 (20161225.0304)
 -->
<!-- Title: dependencies Pages: 1 -->
<svg width="577pt" height="211pt"
 viewBox="0.00 0.00 577.00 211.00" xmlns="http://www.w3.org/2000/svg" xmlns:xlink="http://www.w3.org/1999/xlink">
<g id="graph0" class="graph" transform="scale(1 1) rotate(0) translate(4 207)">
<title>dependencies</title>
<polygon fill="#ffffff" stroke="transparent" points="-4,4 -4,-207 573,-207 573,4 -4,4"/>
<text text-anchor="start" x="263.5091" y="-42.4" font-family="sans-serif" font-weight="bold" font-size="14.00" fill="#000000">Legend</text>
<polygon fill="#ffffb3" stroke="transparent" points="50.5,-10 50.5,-30 70.5,-30 70.5,-10 50.5,-10"/>
<text text-anchor="start" x="74.129" y="-15.4" font-family="sans-serif" font-size="14.00" fill="#000000"> &#160;Declarations</text>
<polygon fill="#8dd3c7" stroke="transparent" points="163.5,-10 163.5,-30 183.5,-30 183.5,-10 163.5,-10"/>
<text text-anchor="start" x="187.2251" y="-15.4" font-family="sans-serif" font-size="14.00" fill="#000000"> &#160;Module</text>
<polygon fill="#80b1d3" stroke="transparent" points="249.5,-10 249.5,-30 269.5,-30 269.5,-10 249.5,-10"/>
<text text-anchor="start" x="273.2812" y="-15.4" font-family="sans-serif" font-size="14.00" fill="#000000"> &#160;Bootstrap</text>
<polygon fill="#fdb462" stroke="transparent" points="346.5,-10 346.5,-30 366.5,-30 366.5,-10 346.5,-10"/>
<text text-anchor="start" x="370.1732" y="-15.4" font-family="sans-serif" font-size="14.00" fill="#000000"> &#160;Providers</text>
<polygon fill="#fb8072" stroke="transparent" points="442.5,-10 442.5,-30 462.5,-30 462.5,-10 442.5,-10"/>
<text text-anchor="start" x="466.2258" y="-15.4" font-family="sans-serif" font-size="14.00" fill="#000000"> &#160;Exports</text>
<g id="clust1" class="cluster">
<title>cluster_UserStatusModule</title>
<polygon fill="none" stroke="#000000" stroke-dasharray="1,5" points="8,-70 8,-195 561,-195 561,-70 8,-70"/>
</g>
<g id="clust6" class="cluster">
<title>cluster_UserStatusModule_providers</title>
<polygon fill="none" stroke="#000000" points="16,-78 16,-130 553,-130 553,-78 16,-78"/>
</g>
<!-- LocationService -->
<g id="node1" class="node">
<title>LocationService</title>
<ellipse fill="#fdb462" stroke="#000000" cx="471" cy="-104" rx="74.1354" ry="18"/>
<text text-anchor="middle" x="471" y="-99.8" font-family="Times,serif" font-size="14.00" fill="#000000">LocationService</text>
</g>
<!-- UserStatusModule -->
<g id="node4" class="node">
<title>UserStatusModule</title>
<polygon fill="#8dd3c7" stroke="#000000" points="358.1994,-187 355.1994,-191 334.1994,-191 331.1994,-187 237.8006,-187 237.8006,-151 358.1994,-151 358.1994,-187"/>
<text text-anchor="middle" x="298" y="-164.8" font-family="Times,serif" font-size="14.00" fill="#000000">UserStatusModule</text>
</g>
<!-- LocationService&#45;&gt;UserStatusModule -->
<g id="edge1" class="edge">
<title>LocationService&#45;&gt;UserStatusModule</title>
<path fill="none" stroke="#000000" d="M471,-122.1061C471,-141.3391 471,-169 471,-169 471,-169 368.507,-169 368.507,-169"/>
<polygon fill="#000000" stroke="#000000" points="368.507,-165.5001 358.507,-169 368.507,-172.5001 368.507,-165.5001"/>
</g>
<!-- UserStatusEffects -->
<g id="node2" class="node">
<title>UserStatusEffects</title>
<ellipse fill="#fdb462" stroke="#000000" cx="298" cy="-104" rx="80.4267" ry="18"/>
<text text-anchor="middle" x="298" y="-99.8" font-family="Times,serif" font-size="14.00" fill="#000000">UserStatusEffects</text>
</g>
<!-- UserStatusEffects&#45;&gt;UserStatusModule -->
<g id="edge2" class="edge">
<title>UserStatusEffects&#45;&gt;UserStatusModule</title>
<path fill="none" stroke="#000000" d="M298,-122.1061C298,-122.1061 298,-140.991 298,-140.991"/>
<polygon fill="#000000" stroke="#000000" points="294.5001,-140.9909 298,-150.991 301.5001,-140.991 294.5001,-140.9909"/>
</g>
<!-- UserStatusSelectors -->
<g id="node3" class="node">
<title>UserStatusSelectors</title>
<ellipse fill="#fdb462" stroke="#000000" cx="112" cy="-104" rx="88.0326" ry="18"/>
<text text-anchor="middle" x="112" y="-99.8" font-family="Times,serif" font-size="14.00" fill="#000000">UserStatusSelectors</text>
</g>
<!-- UserStatusSelectors&#45;&gt;UserStatusModule -->
<g id="edge3" class="edge">
<title>UserStatusSelectors&#45;&gt;UserStatusModule</title>
<path fill="none" stroke="#000000" d="M112,-122.1061C112,-141.3391 112,-169 112,-169 112,-169 227.868,-169 227.868,-169"/>
<polygon fill="#000000" stroke="#000000" points="227.868,-172.5001 237.868,-169 227.868,-165.5001 227.868,-172.5001"/>
</g>
</g>
</svg>
