<?xml version="1.0" encoding="UTF-8" standalone="no"?>
<!DOCTYPE svg PUBLIC "-//W3C//DTD SVG 1.1//EN"
 "http://www.w3.org/Graphics/SVG/1.1/DTD/svg11.dtd">
<!-- Generated by graphviz version 2.40.1 (20161225.0304)
 -->
<!-- Title: dependencies Pages: 1 -->
<svg width="504pt" height="284pt"
 viewBox="0.00 0.00 504.00 284.00" xmlns="http://www.w3.org/2000/svg" xmlns:xlink="http://www.w3.org/1999/xlink">
<g id="graph0" class="graph" transform="scale(1 1) rotate(0) translate(4 280)">
<title>dependencies</title>
<polygon fill="#ffffff" stroke="transparent" points="-4,4 -4,-280 500,-280 500,4 -4,4"/>
<text text-anchor="start" x="227.0091" y="-42.4" font-family="sans-serif" font-weight="bold" font-size="14.00" fill="#000000">Legend</text>
<polygon fill="#ffffb3" stroke="transparent" points="14,-10 14,-30 34,-30 34,-10 14,-10"/>
<text text-anchor="start" x="37.629" y="-15.4" font-family="sans-serif" font-size="14.00" fill="#000000"> &#160;Declarations</text>
<polygon fill="#8dd3c7" stroke="transparent" points="127,-10 127,-30 147,-30 147,-10 127,-10"/>
<text text-anchor="start" x="150.7251" y="-15.4" font-family="sans-serif" font-size="14.00" fill="#000000"> &#160;Module</text>
<polygon fill="#80b1d3" stroke="transparent" points="213,-10 213,-30 233,-30 233,-10 213,-10"/>
<text text-anchor="start" x="236.7812" y="-15.4" font-family="sans-serif" font-size="14.00" fill="#000000"> &#160;Bootstrap</text>
<polygon fill="#fdb462" stroke="transparent" points="310,-10 310,-30 330,-30 330,-10 310,-10"/>
<text text-anchor="start" x="333.6732" y="-15.4" font-family="sans-serif" font-size="14.00" fill="#000000"> &#160;Providers</text>
<polygon fill="#fb8072" stroke="transparent" points="406,-10 406,-30 426,-30 426,-10 406,-10"/>
<text text-anchor="start" x="429.7258" y="-15.4" font-family="sans-serif" font-size="14.00" fill="#000000"> &#160;Exports</text>
<g id="clust1" class="cluster">
<title>cluster_AuthenticationComponentsModule</title>
<polygon fill="none" stroke="#000000" stroke-dasharray="1,5" points="51,-70 51,-268 445,-268 445,-70 51,-70"/>
</g>
<g id="clust2" class="cluster">
<title>cluster_AuthenticationComponentsModule_declarations</title>
<polygon fill="none" stroke="#000000" points="247,-78 247,-130 437,-130 437,-78 247,-78"/>
</g>
<g id="clust4" class="cluster">
<title>cluster_AuthenticationComponentsModule_imports</title>
<polygon fill="none" stroke="#000000" points="59,-78 59,-130 239,-130 239,-78 59,-78"/>
</g>
<g id="clust5" class="cluster">
<title>cluster_AuthenticationComponentsModule_exports</title>
<polygon fill="none" stroke="#000000" points="151,-208 151,-260 345,-260 345,-208 151,-208"/>
</g>
<!-- FacebookButtonComponent -->
<g id="node1" class="node">
<title>FacebookButtonComponent</title>
<polygon fill="#ffffb3" stroke="#000000" points="428.8766,-122 255.1234,-122 255.1234,-86 428.8766,-86 428.8766,-122"/>
<text text-anchor="middle" x="342" y="-99.8" font-family="Times,serif" font-size="14.00" fill="#000000">FacebookButtonComponent</text>
</g>
<!-- AuthenticationComponentsModule -->
<g id="node2" class="node">
<title>AuthenticationComponentsModule</title>
<polygon fill="#8dd3c7" stroke="#000000" points="354.5307,-187 351.5307,-191 330.5307,-191 327.5307,-187 141.4693,-187 141.4693,-151 354.5307,-151 354.5307,-187"/>
<text text-anchor="middle" x="248" y="-164.8" font-family="Times,serif" font-size="14.00" fill="#000000">AuthenticationComponentsModule</text>
</g>
<!-- FacebookButtonComponent&#45;&gt;AuthenticationComponentsModule -->
<g id="edge1" class="edge">
<title>FacebookButtonComponent&#45;&gt;AuthenticationComponentsModule</title>
<path fill="none" stroke="#000000" d="M304.9134,-122.1061C304.9134,-122.1061 304.9134,-140.991 304.9134,-140.991"/>
<polygon fill="#000000" stroke="#000000" points="301.4135,-140.9909 304.9134,-150.991 308.4135,-140.991 301.4135,-140.9909"/>
</g>
<!-- FacebookButtonComponent  -->
<g id="node4" class="node">
<title>FacebookButtonComponent </title>
<polygon fill="#fb8072" stroke="#000000" points="336.877,-252 159.123,-252 159.123,-216 336.877,-216 336.877,-252"/>
<text text-anchor="middle" x="248" y="-229.8" font-family="Times,serif" font-size="14.00" fill="#000000">FacebookButtonComponent </text>
</g>
<!-- AuthenticationComponentsModule&#45;&gt;FacebookButtonComponent  -->
<g id="edge3" class="edge">
<title>AuthenticationComponentsModule&#45;&gt;FacebookButtonComponent </title>
<path fill="none" stroke="#000000" stroke-dasharray="5,2" d="M248,-187.1061C248,-187.1061 248,-205.991 248,-205.991"/>
<polygon fill="#000000" stroke="#000000" points="244.5001,-205.9909 248,-215.991 251.5001,-205.991 244.5001,-205.9909"/>
</g>
<!-- AuthenticationApiModule -->
<g id="node3" class="node">
<title>AuthenticationApiModule</title>
<polygon fill="#8dd3c7" stroke="#000000" points="230.7506,-122 227.7506,-126 206.7506,-126 203.7506,-122 67.2494,-122 67.2494,-86 230.7506,-86 230.7506,-122"/>
<text text-anchor="middle" x="149" y="-99.8" font-family="Times,serif" font-size="14.00" fill="#000000">AuthenticationApiModule</text>
</g>
<!-- AuthenticationApiModule&#45;&gt;AuthenticationComponentsModule -->
<g id="edge2" class="edge">
<title>AuthenticationApiModule&#45;&gt;AuthenticationComponentsModule</title>
<path fill="none" stroke="#000000" d="M186.0551,-122.1061C186.0551,-122.1061 186.0551,-140.991 186.0551,-140.991"/>
<polygon fill="#000000" stroke="#000000" points="182.5551,-140.9909 186.0551,-150.991 189.5551,-140.991 182.5551,-140.9909"/>
</g>
</g>
</svg>
