<?xml version="1.0" encoding="UTF-8" standalone="no"?>
<!DOCTYPE svg PUBLIC "-//W3C//DTD SVG 1.1//EN"
 "http://www.w3.org/Graphics/SVG/1.1/DTD/svg11.dtd">
<!-- Generated by graphviz version 2.40.1 (20161225.0304)
 -->
<!-- Title: dependencies Pages: 1 -->
<svg width="3808pt" height="284pt"
 viewBox="0.00 0.00 3808.00 284.00" xmlns="http://www.w3.org/2000/svg" xmlns:xlink="http://www.w3.org/1999/xlink">
<g id="graph0" class="graph" transform="scale(1 1) rotate(0) translate(4 280)">
<title>dependencies</title>
<polygon fill="#ffffff" stroke="transparent" points="-4,4 -4,-280 3804,-280 3804,4 -4,4"/>
<text text-anchor="start" x="1879.0091" y="-42.4" font-family="sans-serif" font-weight="bold" font-size="14.00" fill="#000000">Legend</text>
<polygon fill="#ffffb3" stroke="transparent" points="1666,-10 1666,-30 1686,-30 1686,-10 1666,-10"/>
<text text-anchor="start" x="1689.629" y="-15.4" font-family="sans-serif" font-size="14.00" fill="#000000"> &#160;Declarations</text>
<polygon fill="#8dd3c7" stroke="transparent" points="1779,-10 1779,-30 1799,-30 1799,-10 1779,-10"/>
<text text-anchor="start" x="1802.7251" y="-15.4" font-family="sans-serif" font-size="14.00" fill="#000000"> &#160;Module</text>
<polygon fill="#80b1d3" stroke="transparent" points="1865,-10 1865,-30 1885,-30 1885,-10 1865,-10"/>
<text text-anchor="start" x="1888.7812" y="-15.4" font-family="sans-serif" font-size="14.00" fill="#000000"> &#160;Bootstrap</text>
<polygon fill="#fdb462" stroke="transparent" points="1962,-10 1962,-30 1982,-30 1982,-10 1962,-10"/>
<text text-anchor="start" x="1985.6732" y="-15.4" font-family="sans-serif" font-size="14.00" fill="#000000"> &#160;Providers</text>
<polygon fill="#fb8072" stroke="transparent" points="2058,-10 2058,-30 2078,-30 2078,-10 2058,-10"/>
<text text-anchor="start" x="2081.7258" y="-15.4" font-family="sans-serif" font-size="14.00" fill="#000000"> &#160;Exports</text>
<g id="clust1" class="cluster">
<title>cluster_AppModule</title>
<polygon fill="none" stroke="#000000" stroke-dasharray="1,5" points="8,-70 8,-268 3792,-268 3792,-70 8,-70"/>
</g>
<g id="clust2" class="cluster">
<title>cluster_AppModule_declarations</title>
<polygon fill="none" stroke="#000000" points="3662,-78 3662,-130 3784,-130 3784,-78 3662,-78"/>
</g>
<g id="clust4" class="cluster">
<title>cluster_AppModule_imports</title>
<polygon fill="none" stroke="#000000" points="2840,-78 2840,-130 3654,-130 3654,-78 2840,-78"/>
</g>
<g id="clust6" class="cluster">
<title>cluster_AppModule_bootstrap</title>
<polygon fill="none" stroke="#000000" points="2171,-208 2171,-260 2295,-260 2295,-208 2171,-208"/>
</g>
<g id="clust7" class="cluster">
<title>cluster_AppModule_providers</title>
<polygon fill="none" stroke="#000000" points="16,-78 16,-130 2832,-130 2832,-78 16,-78"/>
</g>
<!-- AppComponent -->
<g id="node1" class="node">
<title>AppComponent</title>
<polygon fill="#ffffb3" stroke="#000000" points="3775.9399,-122 3670.0601,-122 3670.0601,-86 3775.9399,-86 3775.9399,-122"/>
<text text-anchor="middle" x="3723" y="-99.8" font-family="Times,serif" font-size="14.00" fill="#000000">AppComponent</text>
</g>
<!-- AppModule -->
<g id="node2" class="node">
<title>AppModule</title>
<polygon fill="#8dd3c7" stroke="#000000" points="2274.6571,-187 2271.6571,-191 2250.6571,-191 2247.6571,-187 2191.3429,-187 2191.3429,-151 2274.6571,-151 2274.6571,-187"/>
<text text-anchor="middle" x="2233" y="-164.8" font-family="Times,serif" font-size="14.00" fill="#000000">AppModule</text>
</g>
<!-- AppComponent&#45;&gt;AppModule -->
<g id="edge1" class="edge">
<title>AppComponent&#45;&gt;AppModule</title>
<path fill="none" stroke="#000000" d="M3723,-122.1532C3723,-145.7566 3723,-184 3723,-184 3723,-184 2284.7986,-184 2284.7986,-184"/>
<polygon fill="#000000" stroke="#000000" points="2284.7986,-180.5001 2274.7986,-184 2284.7986,-187.5001 2284.7986,-180.5001"/>
</g>
<!-- AppComponent  -->
<g id="node10" class="node">
<title>AppComponent </title>
<polygon fill="#80b1d3" stroke="#000000" points="2287.439,-252 2178.561,-252 2178.561,-216 2287.439,-216 2287.439,-252"/>
<text text-anchor="middle" x="2233" y="-229.8" font-family="Times,serif" font-size="14.00" fill="#000000">AppComponent </text>
</g>
<!-- AppModule&#45;&gt;AppComponent  -->
<g id="edge9" class="edge">
<title>AppModule&#45;&gt;AppComponent </title>
<path fill="none" stroke="#000000" stroke-dasharray="1,5" d="M2233,-187.1061C2233,-187.1061 2233,-205.991 2233,-205.991"/>
<polygon fill="#000000" stroke="#000000" points="2229.5001,-205.9909 2233,-215.991 2236.5001,-205.991 2229.5001,-205.9909"/>
</g>
<!-- store -->
<g id="node3" class="node">
<title>store</title>
<polygon fill="#8dd3c7" stroke="#000000" points="3646,-122 3643,-126 3622,-126 3619,-122 3592,-122 3592,-86 3646,-86 3646,-122"/>
<text text-anchor="middle" x="3619" y="-99.8" font-family="Times,serif" font-size="14.00" fill="#000000">store</text>
</g>
<!-- store&#45;&gt;AppModule -->
<g id="edge2" class="edge">
<title>store&#45;&gt;AppModule</title>
<path fill="none" stroke="#000000" d="M3619,-122.2479C3619,-145.0179 3619,-181 3619,-181 3619,-181 2284.8578,-181 2284.8578,-181"/>
<polygon fill="#000000" stroke="#000000" points="2284.8579,-177.5001 2274.8578,-181 2284.8578,-184.5001 2284.8579,-177.5001"/>
</g>
<!-- routing -->
<g id="node4" class="node">
<title>routing</title>
<polygon fill="#8dd3c7" stroke="#000000" points="3574.4435,-122 3571.4435,-126 3550.4435,-126 3547.4435,-122 3517.5565,-122 3517.5565,-86 3574.4435,-86 3574.4435,-122"/>
<text text-anchor="middle" x="3546" y="-99.8" font-family="Times,serif" font-size="14.00" fill="#000000">routing</text>
</g>
<!-- routing&#45;&gt;AppModule -->
<g id="edge3" class="edge">
<title>routing&#45;&gt;AppModule</title>
<path fill="none" stroke="#000000" d="M3546,-122.2921C3546,-144.2057 3546,-178 3546,-178 3546,-178 2284.8307,-178 2284.8307,-178"/>
<polygon fill="#000000" stroke="#000000" points="2284.8307,-174.5001 2274.8307,-178 2284.8306,-181.5001 2284.8307,-174.5001"/>
</g>
<!-- DynamicModalModule -->
<g id="node5" class="node">
<title>DynamicModalModule</title>
<polygon fill="#8dd3c7" stroke="#000000" points="3499.9172,-122 3496.9172,-126 3475.9172,-126 3472.9172,-122 3352.0828,-122 3352.0828,-86 3499.9172,-86 3499.9172,-122"/>
<text text-anchor="middle" x="3426" y="-99.8" font-family="Times,serif" font-size="14.00" fill="#000000">DynamicModalModule</text>
</g>
<!-- DynamicModalModule&#45;&gt;AppModule -->
<g id="edge4" class="edge">
<title>DynamicModalModule&#45;&gt;AppModule</title>
<path fill="none" stroke="#000000" d="M3426,-122.0267C3426,-142.7672 3426,-174 3426,-174 3426,-174 2284.76,-174 2284.76,-174"/>
<polygon fill="#000000" stroke="#000000" points="2284.76,-170.5001 2274.76,-174 2284.7599,-177.5001 2284.76,-170.5001"/>
</g>
<!-- CoreLayoutModule -->
<g id="node6" class="node">
<title>CoreLayoutModule</title>
<polygon fill="#8dd3c7" stroke="#000000" points="3334.4201,-122 3331.4201,-126 3310.4201,-126 3307.4201,-122 3207.5799,-122 3207.5799,-86 3334.4201,-86 3334.4201,-122"/>
<text text-anchor="middle" x="3271" y="-99.8" font-family="Times,serif" font-size="14.00" fill="#000000">CoreLayoutModule</text>
</g>
<!-- CoreLayoutModule&#45;&gt;AppModule -->
<g id="edge5" class="edge">
<title>CoreLayoutModule&#45;&gt;AppModule</title>
<path fill="none" stroke="#000000" d="M3271,-122.308C3271,-142.1455 3271,-171 3271,-171 3271,-171 2284.9764,-171 2284.9764,-171"/>
<polygon fill="#000000" stroke="#000000" points="2284.9765,-167.5001 2274.9764,-171 2284.9764,-174.5001 2284.9765,-167.5001"/>
</g>
<!-- AuthModule -->
<g id="node7" class="node">
<title>AuthModule</title>
<polygon fill="#8dd3c7" stroke="#000000" points="3189.5482,-122 3186.5482,-126 3165.5482,-126 3162.5482,-122 3102.4518,-122 3102.4518,-86 3189.5482,-86 3189.5482,-122"/>
<text text-anchor="middle" x="3146" y="-99.8" font-family="Times,serif" font-size="14.00" fill="#000000">AuthModule</text>
</g>
<!-- AuthModule&#45;&gt;AppModule -->
<g id="edge6" class="edge">
<title>AuthModule&#45;&gt;AppModule</title>
<path fill="none" stroke="#000000" d="M3146,-122.1686C3146,-141.0898 3146,-168 3146,-168 3146,-168 2284.903,-168 2284.903,-168"/>
<polygon fill="#000000" stroke="#000000" points="2284.903,-164.5001 2274.903,-168 2284.903,-171.5001 2284.903,-164.5001"/>
</g>
<!-- HikeListModule -->
<g id="node8" class="node">
<title>HikeListModule</title>
<polygon fill="#8dd3c7" stroke="#000000" points="3084.041,-122 3081.041,-126 3060.041,-126 3057.041,-122 2975.959,-122 2975.959,-86 3084.041,-86 3084.041,-122"/>
<text text-anchor="middle" x="3030" y="-99.8" font-family="Times,serif" font-size="14.00" fill="#000000">HikeListModule</text>
</g>
<!-- HikeListModule&#45;&gt;AppModule -->
<g id="edge7" class="edge">
<title>HikeListModule&#45;&gt;AppModule</title>
<path fill="none" stroke="#000000" d="M3030,-122.302C3030,-140.2699 3030,-165 3030,-165 3030,-165 2284.728,-165 2284.728,-165"/>
<polygon fill="#000000" stroke="#000000" points="2284.7281,-161.5001 2274.728,-165 2284.728,-168.5001 2284.7281,-161.5001"/>
</g>
<!-- HikeEditModule -->
<g id="node9" class="node">
<title>HikeEditModule</title>
<polygon fill="#8dd3c7" stroke="#000000" points="2958.0954,-122 2955.0954,-126 2934.0954,-126 2931.0954,-122 2847.9046,-122 2847.9046,-86 2958.0954,-86 2958.0954,-122"/>
<text text-anchor="middle" x="2903" y="-99.8" font-family="Times,serif" font-size="14.00" fill="#000000">HikeEditModule</text>
</g>
<!-- HikeEditModule&#45;&gt;AppModule -->
<g id="edge8" class="edge">
<title>HikeEditModule&#45;&gt;AppModule</title>
<path fill="none" stroke="#000000" d="M2903,-122.0352C2903,-138.7344 2903,-161 2903,-161 2903,-161 2284.6584,-161 2284.6584,-161"/>
<polygon fill="#000000" stroke="#000000" points="2284.6584,-157.5001 2274.6584,-161 2284.6583,-164.5001 2284.6584,-157.5001"/>
</g>
<!-- HikeDataService -->
<g id="node11" class="node">
<title>HikeDataService</title>
<ellipse fill="#fdb462" stroke="#000000" cx="2747" cy="-104" rx="76.9811" ry="18"/>
<text text-anchor="middle" x="2747" y="-99.8" font-family="Times,serif" font-size="14.00" fill="#000000">HikeDataService</text>
</g>
<!-- HikeDataService&#45;&gt;AppModule -->
<g id="edge10" class="edge">
<title>HikeDataService&#45;&gt;AppModule</title>
<path fill="none" stroke="#000000" d="M2747,-122.2819C2747,-137.9478 2747,-158 2747,-158 2747,-158 2285.0628,-158 2285.0628,-158"/>
<polygon fill="#000000" stroke="#000000" points="2285.0628,-154.5001 2275.0628,-158 2285.0627,-161.5001 2285.0628,-154.5001"/>
</g>
<!-- ReverseGeocodingService -->
<g id="node12" class="node">
<title>ReverseGeocodingService</title>
<ellipse fill="#fdb462" stroke="#000000" cx="2539" cy="-104" rx="113.4239" ry="18"/>
<text text-anchor="middle" x="2539" y="-99.8" font-family="Times,serif" font-size="14.00" fill="#000000">ReverseGeocodingService</text>
</g>
<!-- ReverseGeocodingService&#45;&gt;AppModule -->
<g id="edge11" class="edge">
<title>ReverseGeocodingService&#45;&gt;AppModule</title>
<path fill="none" stroke="#000000" d="M2539,-122.1243C2539,-136.7832 2539,-155 2539,-155 2539,-155 2284.9064,-155 2284.9064,-155"/>
<polygon fill="#000000" stroke="#000000" points="2284.9064,-151.5001 2274.9064,-155 2284.9063,-158.5001 2284.9064,-151.5001"/>
</g>
<!-- AdminMapService -->
<g id="node13" class="node">
<title>AdminMapService</title>
<ellipse fill="#fdb462" stroke="#000000" cx="2323" cy="-104" rx="84.5305" ry="18"/>
<text text-anchor="middle" x="2323" y="-99.8" font-family="Times,serif" font-size="14.00" fill="#000000">AdminMapService</text>
</g>
<!-- AdminMapService&#45;&gt;AppModule -->
<g id="edge12" class="edge">
<title>AdminMapService&#45;&gt;AppModule</title>
<path fill="none" stroke="#000000" d="M2256.6565,-115.3221C2256.6565,-115.3221 2256.6565,-140.9424 2256.6565,-140.9424"/>
<polygon fill="#000000" stroke="#000000" points="2253.1566,-140.9424 2256.6565,-150.9424 2260.1566,-140.9425 2253.1566,-140.9424"/>
</g>
<!-- PoiEditorService -->
<g id="node14" class="node">
<title>PoiEditorService</title>
<ellipse fill="#fdb462" stroke="#000000" cx="2143" cy="-104" rx="77.0216" ry="18"/>
<text text-anchor="middle" x="2143" y="-99.8" font-family="Times,serif" font-size="14.00" fill="#000000">PoiEditorService</text>
</g>
<!-- PoiEditorService&#45;&gt;AppModule -->
<g id="edge13" class="edge">
<title>PoiEditorService&#45;&gt;AppModule</title>
<path fill="none" stroke="#000000" d="M2205.5913,-114.7334C2205.5913,-114.7334 2205.5913,-140.8723 2205.5913,-140.8723"/>
<polygon fill="#000000" stroke="#000000" points="2202.0914,-140.8722 2205.5913,-150.8723 2209.0914,-140.8723 2202.0914,-140.8722"/>
</g>
<!-- WikipediaPoiService -->
<g id="node15" class="node">
<title>WikipediaPoiService</title>
<ellipse fill="#fdb462" stroke="#000000" cx="1955" cy="-104" rx="93.1948" ry="18"/>
<text text-anchor="middle" x="1955" y="-99.8" font-family="Times,serif" font-size="14.00" fill="#000000">WikipediaPoiService</text>
</g>
<!-- WikipediaPoiService&#45;&gt;AppModule -->
<g id="edge14" class="edge">
<title>WikipediaPoiService&#45;&gt;AppModule</title>
<path fill="none" stroke="#000000" d="M1955,-122.1243C1955,-136.7832 1955,-155 1955,-155 1955,-155 2181.0796,-155 2181.0796,-155"/>
<polygon fill="#000000" stroke="#000000" points="2181.0796,-158.5001 2191.0796,-155 2181.0796,-151.5001 2181.0796,-158.5001"/>
</g>
<!-- OsmPoiService -->
<g id="node16" class="node">
<title>OsmPoiService</title>
<ellipse fill="#fdb462" stroke="#000000" cx="1773" cy="-104" rx="71.223" ry="18"/>
<text text-anchor="middle" x="1773" y="-99.8" font-family="Times,serif" font-size="14.00" fill="#000000">OsmPoiService</text>
</g>
<!-- OsmPoiService&#45;&gt;AppModule -->
<g id="edge15" class="edge">
<title>OsmPoiService&#45;&gt;AppModule</title>
<path fill="none" stroke="#000000" d="M1773,-122.2819C1773,-137.9478 1773,-158 1773,-158 1773,-158 2180.9586,-158 2180.9586,-158"/>
<polygon fill="#000000" stroke="#000000" points="2180.9587,-161.5001 2190.9586,-158 2180.9586,-154.5001 2180.9587,-161.5001"/>
</g>
<!-- OsmRoutePoiService -->
<g id="node17" class="node">
<title>OsmRoutePoiService</title>
<ellipse fill="#fdb462" stroke="#000000" cx="1590" cy="-104" rx="94.3582" ry="18"/>
<text text-anchor="middle" x="1590" y="-99.8" font-family="Times,serif" font-size="14.00" fill="#000000">OsmRoutePoiService</text>
</g>
<!-- OsmRoutePoiService&#45;&gt;AppModule -->
<g id="edge16" class="edge">
<title>OsmRoutePoiService&#45;&gt;AppModule</title>
<path fill="none" stroke="#000000" d="M1590,-122.0352C1590,-138.7344 1590,-161 1590,-161 1590,-161 2181.3064,-161 2181.3064,-161"/>
<polygon fill="#000000" stroke="#000000" points="2181.3064,-164.5001 2191.3064,-161 2181.3064,-157.5001 2181.3064,-164.5001"/>
</g>
<!-- GooglePoiService -->
<g id="node18" class="node">
<title>GooglePoiService</title>
<ellipse fill="#fdb462" stroke="#000000" cx="1397" cy="-104" rx="81.0994" ry="18"/>
<text text-anchor="middle" x="1397" y="-99.8" font-family="Times,serif" font-size="14.00" fill="#000000">GooglePoiService</text>
</g>
<!-- GooglePoiService&#45;&gt;AppModule -->
<g id="edge17" class="edge">
<title>GooglePoiService&#45;&gt;AppModule</title>
<path fill="none" stroke="#000000" d="M1397,-122.302C1397,-140.2699 1397,-165 1397,-165 1397,-165 2181.2566,-165 2181.2566,-165"/>
<polygon fill="#000000" stroke="#000000" points="2181.2566,-168.5001 2191.2566,-165 2181.2566,-161.5001 2181.2566,-168.5001"/>
</g>
<!-- LanguageService -->
<g id="node19" class="node">
<title>LanguageService</title>
<ellipse fill="#fdb462" stroke="#000000" cx="1220" cy="-104" rx="78.1308" ry="18"/>
<text text-anchor="middle" x="1220" y="-99.8" font-family="Times,serif" font-size="14.00" fill="#000000">LanguageService</text>
</g>
<!-- LanguageService&#45;&gt;AppModule -->
<g id="edge18" class="edge">
<title>LanguageService&#45;&gt;AppModule</title>
<path fill="none" stroke="#000000" d="M1220,-122.1686C1220,-141.0898 1220,-168 1220,-168 1220,-168 2181.082,-168 2181.082,-168"/>
<polygon fill="#000000" stroke="#000000" points="2181.0821,-171.5001 2191.082,-168 2181.082,-164.5001 2181.0821,-171.5001"/>
</g>
<!-- HikeEditGeneralInfoSelectors -->
<g id="node20" class="node">
<title>HikeEditGeneralInfoSelectors</title>
<ellipse fill="#fdb462" stroke="#000000" cx="996" cy="-104" rx="127.8831" ry="18"/>
<text text-anchor="middle" x="996" y="-99.8" font-family="Times,serif" font-size="14.00" fill="#000000">HikeEditGeneralInfoSelectors</text>
</g>
<!-- HikeEditGeneralInfoSelectors&#45;&gt;AppModule -->
<g id="edge19" class="edge">
<title>HikeEditGeneralInfoSelectors&#45;&gt;AppModule</title>
<path fill="none" stroke="#000000" d="M996,-122.308C996,-142.1455 996,-171 996,-171 996,-171 2181.134,-171 2181.134,-171"/>
<polygon fill="#000000" stroke="#000000" points="2181.134,-174.5001 2191.134,-171 2181.134,-167.5001 2181.134,-174.5001"/>
</g>
<!-- HikeEditPoiSelectors -->
<g id="node21" class="node">
<title>HikeEditPoiSelectors</title>
<ellipse fill="#fdb462" stroke="#000000" cx="756" cy="-104" rx="94.3543" ry="18"/>
<text text-anchor="middle" x="756" y="-99.8" font-family="Times,serif" font-size="14.00" fill="#000000">HikeEditPoiSelectors</text>
</g>
<!-- HikeEditPoiSelectors&#45;&gt;AppModule -->
<g id="edge20" class="edge">
<title>HikeEditPoiSelectors&#45;&gt;AppModule</title>
<path fill="none" stroke="#000000" d="M756,-122.0267C756,-142.7672 756,-174 756,-174 756,-174 2181.1755,-174 2181.1755,-174"/>
<polygon fill="#000000" stroke="#000000" points="2181.1755,-177.5001 2191.1755,-174 2181.1754,-170.5001 2181.1755,-177.5001"/>
</g>
<!-- HikeEditMapSelectors -->
<g id="node22" class="node">
<title>HikeEditMapSelectors</title>
<ellipse fill="#fdb462" stroke="#000000" cx="545" cy="-104" rx="98.9916" ry="18"/>
<text text-anchor="middle" x="545" y="-99.8" font-family="Times,serif" font-size="14.00" fill="#000000">HikeEditMapSelectors</text>
</g>
<!-- HikeEditMapSelectors&#45;&gt;AppModule -->
<g id="edge21" class="edge">
<title>HikeEditMapSelectors&#45;&gt;AppModule</title>
<path fill="none" stroke="#000000" d="M545,-122.2921C545,-144.2057 545,-178 545,-178 545,-178 2181.2739,-178 2181.2739,-178"/>
<polygon fill="#000000" stroke="#000000" points="2181.274,-181.5001 2191.2739,-178 2181.2739,-174.5001 2181.274,-181.5001"/>
</g>
<!-- HikeEditRoutePlannerSelectors -->
<g id="node23" class="node">
<title>HikeEditRoutePlannerSelectors</title>
<ellipse fill="#fdb462" stroke="#000000" cx="294" cy="-104" rx="133.7227" ry="18"/>
<text text-anchor="middle" x="294" y="-99.8" font-family="Times,serif" font-size="14.00" fill="#000000">HikeEditRoutePlannerSelectors</text>
</g>
<!-- HikeEditRoutePlannerSelectors&#45;&gt;AppModule -->
<g id="edge22" class="edge">
<title>HikeEditRoutePlannerSelectors&#45;&gt;AppModule</title>
<path fill="none" stroke="#000000" d="M294,-122.2479C294,-145.0179 294,-181 294,-181 294,-181 2181.1522,-181 2181.1522,-181"/>
<polygon fill="#000000" stroke="#000000" points="2181.1523,-184.5001 2191.1522,-181 2181.1522,-177.5001 2181.1523,-184.5001"/>
</g>
<!-- PoiSelectors -->
<g id="node24" class="node">
<title>PoiSelectors</title>
<ellipse fill="#fdb462" stroke="#000000" cx="83" cy="-104" rx="59.1237" ry="18"/>
<text text-anchor="middle" x="83" y="-99.8" font-family="Times,serif" font-size="14.00" fill="#000000">PoiSelectors</text>
</g>
<!-- PoiSelectors&#45;&gt;AppModule -->
<g id="edge23" class="edge">
<title>PoiSelectors&#45;&gt;AppModule</title>
<path fill="none" stroke="#000000" d="M83,-122.1532C83,-145.7566 83,-184 83,-184 83,-184 2181.017,-184 2181.017,-184"/>
<polygon fill="#000000" stroke="#000000" points="2181.017,-187.5001 2191.017,-184 2181.0169,-180.5001 2181.017,-187.5001"/>
</g>
</g>
</svg>
