<?xml version="1.0" encoding="UTF-8" standalone="no"?>
<!DOCTYPE svg PUBLIC "-//W3C//DTD SVG 1.1//EN"
 "http://www.w3.org/Graphics/SVG/1.1/DTD/svg11.dtd">
<!-- Generated by graphviz version 2.40.1 (20161225.0304)
 -->
<!-- Title: dependencies Pages: 1 -->
<svg width="590pt" height="211pt"
 viewBox="0.00 0.00 590.00 211.00" xmlns="http://www.w3.org/2000/svg" xmlns:xlink="http://www.w3.org/1999/xlink">
<g id="graph0" class="graph" transform="scale(1 1) rotate(0) translate(4 207)">
<title>dependencies</title>
<polygon fill="#ffffff" stroke="transparent" points="-4,4 -4,-207 586,-207 586,4 -4,4"/>
<text text-anchor="start" x="270.0091" y="-42.4" font-family="sans-serif" font-weight="bold" font-size="14.00" fill="#000000">Legend</text>
<polygon fill="#ffffb3" stroke="transparent" points="57,-10 57,-30 77,-30 77,-10 57,-10"/>
<text text-anchor="start" x="80.629" y="-15.4" font-family="sans-serif" font-size="14.00" fill="#000000"> &#160;Declarations</text>
<polygon fill="#8dd3c7" stroke="transparent" points="170,-10 170,-30 190,-30 190,-10 170,-10"/>
<text text-anchor="start" x="193.7251" y="-15.4" font-family="sans-serif" font-size="14.00" fill="#000000"> &#160;Module</text>
<polygon fill="#80b1d3" stroke="transparent" points="256,-10 256,-30 276,-30 276,-10 256,-10"/>
<text text-anchor="start" x="279.7812" y="-15.4" font-family="sans-serif" font-size="14.00" fill="#000000"> &#160;Bootstrap</text>
<polygon fill="#fdb462" stroke="transparent" points="353,-10 353,-30 373,-30 373,-10 353,-10"/>
<text text-anchor="start" x="376.6732" y="-15.4" font-family="sans-serif" font-size="14.00" fill="#000000"> &#160;Providers</text>
<polygon fill="#fb8072" stroke="transparent" points="449,-10 449,-30 469,-30 469,-10 449,-10"/>
<text text-anchor="start" x="472.7258" y="-15.4" font-family="sans-serif" font-size="14.00" fill="#000000"> &#160;Exports</text>
<g id="clust1" class="cluster">
<title>cluster_GoogleModule</title>
<polygon fill="none" stroke="#000000" stroke-dasharray="1,5" points="8,-70 8,-195 574,-195 574,-70 8,-70"/>
</g>
<g id="clust3" class="cluster">
<title>cluster_GoogleModule_imports</title>
<polygon fill="none" stroke="#000000" points="176,-78 176,-130 566,-130 566,-78 176,-78"/>
</g>
<g id="clust6" class="cluster">
<title>cluster_GoogleModule_providers</title>
<polygon fill="none" stroke="#000000" points="16,-78 16,-130 168,-130 168,-78 16,-78"/>
</g>
<!-- OauthWindowModule -->
<g id="node1" class="node">
<title>OauthWindowModule</title>
<polygon fill="#8dd3c7" stroke="#000000" points="557.9734,-122 554.9734,-126 533.9734,-126 530.9734,-122 416.0266,-122 416.0266,-86 557.9734,-86 557.9734,-122"/>
<text text-anchor="middle" x="487" y="-99.8" font-family="Times,serif" font-size="14.00" fill="#000000">OauthWindowModule</text>
</g>
<!-- GoogleModule -->
<g id="node4" class="node">
<title>GoogleModule</title>
<polygon fill="#8dd3c7" stroke="#000000" points="336.2619,-187 333.2619,-191 312.2619,-191 309.2619,-187 235.7381,-187 235.7381,-151 336.2619,-151 336.2619,-187"/>
<text text-anchor="middle" x="286" y="-164.8" font-family="Times,serif" font-size="14.00" fill="#000000">GoogleModule</text>
</g>
<!-- OauthWindowModule&#45;&gt;GoogleModule -->
<g id="edge1" class="edge">
<title>OauthWindowModule&#45;&gt;GoogleModule</title>
<path fill="none" stroke="#000000" d="M487,-122.1061C487,-141.3391 487,-169 487,-169 487,-169 346.4613,-169 346.4613,-169"/>
<polygon fill="#000000" stroke="#000000" points="346.4614,-165.5001 336.4613,-169 346.4613,-172.5001 346.4614,-165.5001"/>
</g>
<!-- WindowModule -->
<g id="node2" class="node">
<title>WindowModule</title>
<polygon fill="#8dd3c7" stroke="#000000" points="397.7619,-122 394.7619,-126 373.7619,-126 370.7619,-122 290.2381,-122 290.2381,-86 397.7619,-86 397.7619,-122"/>
<text text-anchor="middle" x="344" y="-99.8" font-family="Times,serif" font-size="14.00" fill="#000000">WindowModule</text>
</g>
<!-- WindowModule&#45;&gt;GoogleModule -->
<g id="edge2" class="edge">
<title>WindowModule&#45;&gt;GoogleModule</title>
<path fill="none" stroke="#000000" d="M313.25,-122.1061C313.25,-122.1061 313.25,-140.991 313.25,-140.991"/>
<polygon fill="#000000" stroke="#000000" points="309.7501,-140.9909 313.25,-150.991 316.7501,-140.991 309.7501,-140.9909"/>
</g>
<!-- AuthModule -->
<g id="node3" class="node">
<title>AuthModule</title>
<polygon fill="#8dd3c7" stroke="#000000" points="271.5482,-122 268.5482,-126 247.5482,-126 244.5482,-122 184.4518,-122 184.4518,-86 271.5482,-86 271.5482,-122"/>
<text text-anchor="middle" x="228" y="-99.8" font-family="Times,serif" font-size="14.00" fill="#000000">AuthModule</text>
</g>
<!-- AuthModule&#45;&gt;GoogleModule -->
<g id="edge3" class="edge">
<title>AuthModule&#45;&gt;GoogleModule</title>
<path fill="none" stroke="#000000" d="M253.6964,-122.1061C253.6964,-122.1061 253.6964,-140.991 253.6964,-140.991"/>
<polygon fill="#000000" stroke="#000000" points="250.1964,-140.9909 253.6964,-150.991 257.1964,-140.991 250.1964,-140.9909"/>
</g>
<!-- GoogleService -->
<g id="node5" class="node">
<title>GoogleService</title>
<ellipse fill="#fdb462" stroke="#000000" cx="92" cy="-104" rx="68.3382" ry="18"/>
<text text-anchor="middle" x="92" y="-99.8" font-family="Times,serif" font-size="14.00" fill="#000000">GoogleService</text>
</g>
<!-- GoogleService&#45;&gt;GoogleModule -->
<g id="edge4" class="edge">
<title>GoogleService&#45;&gt;GoogleModule</title>
<path fill="none" stroke="#000000" d="M92,-122.1061C92,-141.3391 92,-169 92,-169 92,-169 225.5352,-169 225.5352,-169"/>
<polygon fill="#000000" stroke="#000000" points="225.5353,-172.5001 235.5352,-169 225.5352,-165.5001 225.5353,-172.5001"/>
</g>
</g>
</svg>
