<?xml version="1.0" encoding="UTF-8"?>
<svg width="44px" height="44px" viewBox="0 0 44 44" version="1.1" xmlns="http://www.w3.org/2000/svg" xmlns:xlink="http://www.w3.org/1999/xlink">
    <!-- Generator: Sketch 53.2 (72643) - https://sketchapp.com -->
    <title>normal/bicycle-parking</title>
    <desc>Created with Sketch.</desc>
    <defs>
        <filter x="-37.5%" y="-27.3%" width="175.0%" height="154.5%" filterUnits="objectBoundingBox" id="filter-1">
            <feOffset dx="0" dy="0" in="SourceAlpha" result="shadowOffsetOuter1"></feOffset>
            <feGaussianBlur stdDeviation="3" in="shadowOffsetOuter1" result="shadowBlurOuter1"></feGaussianBlur>
            <feColorMatrix values="0 0 0 0 0   0 0 0 0 0   0 0 0 0 0  0 0 0 0.4 0" type="matrix" in="shadowBlurOuter1" result="shadowMatrixOuter1"></feColorMatrix>
            <feMerge>
                <feMergeNode in="shadowMatrixOuter1"></feMergeNode>
                <feMergeNode in="SourceGraphic"></feMergeNode>
            </feMerge>
        </filter>
    </defs>
    <g id="Icons" stroke="none" stroke-width="1" fill="none" fill-rule="evenodd">
        <g id="new-icons-normal" transform="translate(-219.000000, -12.000000)" fill-rule="nonzero">
            <g id="normal/bicycle-parking" filter="url(#filter-1)" transform="translate(225.000000, 18.000000)">
                <g id="pin/normal">
                    <circle id="Oval" fill="#FFFFFF" stroke="#7C7CF0" stroke-width="4" cx="16" cy="16" r="17"></circle>
                </g>
                <g id="icon/normal/bicycle-parking" transform="translate(8.000000, 8.000000)" fill="#7C7CF0">
                    <path d="M6.97171784,5.98935296 C6.11202817,6.78204877 4.8337185,7.13813755 3.34411797,7.13813755 C3.01353582,7.13813755 2.73049411,7.12177555 2.47958622,7.08948213 L2.47958622,11 L-1.0658141e-14,11 L-1.0658141e-14,0.226915098 C0.780015407,0.0973108388 1.8646418,1.24344979e-14 3.40354352,1.24344979e-14 C4.95917244,1.24344979e-14 6.06492792,0.291501938 6.81016837,0.874505813 C7.52107406,1.42435511 8,2.33115434 8,3.3989901 C8,4.46811759 7.6346429,5.37491682 6.97171784,5.98935296 Z M3.52635633,1.86182331 C3.01309563,1.86182331 2.67459007,1.91004815 2.47958622,1.95870357 L2.47958622,5.17943398 C2.702322,5.2280894 2.96379443,5.24402082 3.32783097,5.24402082 C4.66820733,5.24402082 5.49532299,4.58006811 5.49532299,3.46400752 C5.49576318,2.46032802 4.78353692,1.86182331 3.52635633,1.86182331 Z M13.1001565,10.8611359 C14.5415601,10.8611359 15.7142857,12.0137358 15.7142857,13.4305471 C15.7142857,14.8473584 14.5416026,16 13.1001565,16 C11.6587105,16 10.4860273,14.8473167 10.4860273,13.4305471 C10.4860273,12.4115118 11.0927689,11.5291678 11.9698002,11.11405 L11.5710031,9.7723168 L8.9465679,13.878264 C8.86870004,14.0001146 8.73277058,14.0734001 8.58751055,14.0734001 C8.57936751,14.0734001 8.57118205,14.07315 8.56295419,14.0726915 L7.16430155,13.9931529 C6.9024942,15.1401252 5.85886981,16 4.61408678,16 C3.17268316,16 2,14.8473584 2,13.4305471 C2,12.0137358 3.17268316,10.8611359 4.61408678,10.8610942 C4.88857522,10.8610942 5.15322415,10.9031562 5.4019687,10.9806104 L5.87205984,10.0690022 L5.70173451,9.79349372 C5.68027419,9.75881026 5.66487875,9.72225088 5.65469994,9.68494114 L5.57840132,9.68494114 C5.34416157,9.68494114 5.15428444,9.49826739 5.15428444,9.26807256 C5.15428444,9.03787772 5.34416157,8.85120397 5.57840132,8.85120397 L6.60009887,8.85120397 C6.83433862,8.85120397 7.02421575,9.03787772 7.02421575,9.26807256 C7.02421575,9.39721844 6.96441527,9.51269104 6.8705582,9.58914474 L10.6580067,9.53516026 C10.6784492,9.53461833 10.6988492,9.53603568 10.7187403,9.5385369 L11.1692372,8.83373717 L10.0612319,8.83373717 C9.82703454,8.83373717 9.637115,8.64706342 9.637115,8.41686859 C9.637115,8.18667375 9.82703454,8 10.0612319,8 L11.8106716,8 C12.0448689,8 12.2347885,8.18667375 12.2347885,8.41686859 C12.2347885,8.52046043 12.196109,8.61504791 12.132449,8.68795823 L12.7841046,10.8806036 C12.8878012,10.8682226 12.9931094,10.8611359 13.1001565,10.8611359 Z M6.39050031,10.9077418 L6.15787221,11.3587936 C6.73670692,11.7766627 7.13495266,12.4225588 7.21366876,13.1608331 L7.80403945,13.194391 L6.39050031,10.9077418 Z M2.84823375,13.4305471 C2.84823375,14.3876357 3.64039925,15.1662628 4.61408678,15.1662628 C5.4059554,15.1662628 6.07775653,14.6512634 6.30101165,13.9440875 L4.58957282,13.8467487 C4.44677267,13.8386197 4.31775632,13.7602901 4.24641986,13.6383978 C4.1750834,13.5165054 4.1710967,13.3675166 4.23577452,13.2421225 L5.01059364,11.7395614 C4.8830617,11.7106307 4.75044035,11.694873 4.61408678,11.694873 C3.64039925,11.694873 2.84823375,12.4735002 2.84823375,13.4305471 Z M5.28520932,13.0511133 L6.34957303,13.1116426 C6.2747164,12.7172849 6.06388791,12.3696165 5.76675162,12.117286 L5.28520932,13.0511133 Z M8.59272719,12.864648 L10.1835472,10.3757341 L7.08147153,10.4199638 L8.59272719,12.864648 Z M13.1001565,15.1662628 C14.0738865,15.1662628 14.866052,14.3876357 14.866052,13.4305888 C14.866052,12.4735419 14.0738865,11.6949147 13.1001565,11.6949147 C13.0755153,11.6949147 13.0510438,11.6957485 13.0266571,11.6967489 L13.5072239,13.3136988 C13.5729196,13.5346392 13.4439033,13.7661263 13.2190365,13.8306992 C12.9944242,13.8953139 12.7587849,13.7684608 12.6930467,13.547437 L12.2126071,11.9309874 C11.6878473,12.232175 11.3342611,12.7913625 11.3342611,13.4305471 C11.3342611,14.3876357 12.1264266,15.1662628 13.1001565,15.1662628 Z" id="icon"></path>
                </g>
            </g>
        </g>
    </g>
</svg>