<?xml version="1.0" encoding="UTF-8"?>
<svg width="44px" height="44px" viewBox="0 0 44 44" version="1.1" xmlns="http://www.w3.org/2000/svg" xmlns:xlink="http://www.w3.org/1999/xlink">
    <!-- Generator: Sketch 53.2 (72643) - https://sketchapp.com -->
    <title>normal/cliff</title>
    <desc>Created with Sketch.</desc>
    <defs>
        <filter x="-37.5%" y="-27.3%" width="175.0%" height="154.5%" filterUnits="objectBoundingBox" id="filter-1">
            <feOffset dx="0" dy="0" in="SourceAlpha" result="shadowOffsetOuter1"></feOffset>
            <feGaussianBlur stdDeviation="3" in="shadowOffsetOuter1" result="shadowBlurOuter1"></feGaussianBlur>
            <feColorMatrix values="0 0 0 0 0   0 0 0 0 0   0 0 0 0 0  0 0 0 0.4 0" type="matrix" in="shadowBlurOuter1" result="shadowMatrixOuter1"></feColorMatrix>
            <feMerge>
                <feMergeNode in="shadowMatrixOuter1"></feMergeNode>
                <feMergeNode in="SourceGraphic"></feMergeNode>
            </feMerge>
        </filter>
    </defs>
    <g id="Icons" stroke="none" stroke-width="1" fill="none" fill-rule="evenodd">
        <g id="new-icons-normal" transform="translate(-667.000000, -12.000000)" fill-rule="nonzero">
            <g id="normal/cliff" filter="url(#filter-1)" transform="translate(673.000000, 18.000000)">
                <g id="pin/normal">
                    <circle id="Oval" fill="#FFFFFF" stroke="#7C7CF0" stroke-width="4" cx="16" cy="16" r="17"></circle>
                </g>
                <g id="icon/normal/cliff" transform="translate(8.000000, 8.000000)" fill="#7C7CF0">
                    <path d="M1.40625,1.90625 C2.1816875,1.90625 2.8125,2.5370625 2.8125,3.3125 C2.8125,4.0879375 2.1816875,4.71875 1.40625,4.71875 C0.6308125,4.71875 0,4.0879375 0,3.3125 C0,2.5370625 0.6308125,1.90625 1.40625,1.90625 Z M8.28003125,12.6362187 C8.56796875,13.0685937 8.44934375,13.6503437 8.02003125,13.9362812 C7.58965625,14.2235937 7.00715625,14.106625 6.71996875,13.6762812 L5.12328125,11.28125 L1.875,11.28125 C1.3581875,11.28125 0.9375,10.8605625 0.9375,10.34375 L0.9375,6.59375 C0.9375,6.16253125 1.22909375,5.78853125 1.64703125,5.6841875 L4.6875,4.92384375 L4.6875,3.78125 C4.6875,3.2644375 5.1081875,2.84375 5.625,2.84375 C6.1418125,2.84375 6.5625,3.2644375 6.5625,3.78125 L6.5625,5.65625 C6.5625,6.08746875 6.27090625,6.46146875 5.85296875,6.5658125 L2.8125,7.32615625 L2.8125,9.40625 L5.625,9.40625 C5.93903125,9.40625 6.230625,9.56234375 6.40503125,9.82371875 L8.28003125,12.6362187 Z M15.53125,0 C15.7903437,0 16,0.20965625 16,0.46875 L16,15.53125 C16,15.7042813 15.9047812,15.863125 15.7523125,15.944625 C15.6831875,15.9816875 15.6072187,16 15.5312187,16 C15.440125,16 15.3495,15.9734375 15.2712187,15.92125 L12.3962187,14.015 C12.3097187,13.9573438 12.2447187,13.8721875 12.21175,13.7733125 L11.3809062,11.28125 L13.59375,11.28125 C13.8528437,11.28125 14.0625,11.0715938 14.0625,10.8125 C14.0625,10.5534063 13.8528437,10.34375 13.59375,10.34375 L10.842875,10.34375 L9.6521875,8.55765625 L12.8045625,7.507 C12.9959062,7.443375 13.125,7.264375 13.125,7.0625 L13.125,5.1875 C13.125,4.92840625 12.9153437,4.71875 12.65625,4.71875 C12.3971562,4.71875 12.1875,4.92840625 12.1875,5.1875 L12.1875,6.72465625 L9.3029375,7.6861875 L8.56675,4.00634375 L10.9909062,2.7943125 C11.2225312,2.6785 11.316375,2.39696875 11.2005625,2.16534375 C11.0842812,1.93371875 10.8036875,1.84125 10.5715937,1.9556875 L7.6841875,3.39940625 L7.43459375,3.31615625 C7.2263125,2.50775 6.497625,1.90625 5.625,1.90625 C5.4264375,1.90625 5.23871875,1.9456875 5.059,2.00309375 L3.88734375,0.8001875 C3.75321875,0.6660625 3.7129375,0.464625 3.78571875,0.2893125 C3.85803125,0.11396875 4.02925,0 4.21875,0 L15.53125,0 Z M4.5305,12.6366875 C4.63303125,12.7900313 4.6875,12.9699375 4.6875,13.15625 L4.6875,15.0625 C4.6875,15.5793125 4.2668125,16 3.75,16 C3.2331875,16 2.8125,15.5793125 2.8125,15.0625 L2.8125,13.4400625 L1.9983125,12.21875 L4.25278125,12.21875 L4.5305,12.6366875 Z" id="Combined-Shape"></path>
                </g>
            </g>
        </g>
    </g>
</svg>