<?xml version="1.0" encoding="UTF-8"?>
<svg width="44px" height="44px" viewBox="0 0 44 44" version="1.1" xmlns="http://www.w3.org/2000/svg" xmlns:xlink="http://www.w3.org/1999/xlink">
    <!-- Generator: Sketch 53.2 (72643) - https://sketchapp.com -->
    <title>normal/hunting-stand</title>
    <desc>Created with Sketch.</desc>
    <defs>
        <filter x="-37.5%" y="-27.3%" width="175.0%" height="154.5%" filterUnits="objectBoundingBox" id="filter-1">
            <feOffset dx="0" dy="0" in="SourceAlpha" result="shadowOffsetOuter1"></feOffset>
            <feGaussianBlur stdDeviation="3" in="shadowOffsetOuter1" result="shadowBlurOuter1"></feGaussianBlur>
            <feColorMatrix values="0 0 0 0 0   0 0 0 0 0   0 0 0 0 0  0 0 0 0.4 0" type="matrix" in="shadowBlurOuter1" result="shadowMatrixOuter1"></feColorMatrix>
            <feMerge>
                <feMergeNode in="shadowMatrixOuter1"></feMergeNode>
                <feMergeNode in="SourceGraphic"></feMergeNode>
            </feMerge>
        </filter>
    </defs>
    <g id="Icons" stroke="none" stroke-width="1" fill="none" fill-rule="evenodd">
        <g id="new-icons-normal" transform="translate(-283.000000, -88.000000)" fill-rule="nonzero">
            <g id="normal/hunting-stand" filter="url(#filter-1)" transform="translate(289.000000, 94.000000)">
                <g id="pin/normal">
                    <circle id="Oval" fill="#FFFFFF" stroke="#7C7CF0" stroke-width="4" cx="16" cy="16" r="17"></circle>
                </g>
                <g id="icon/normal/hunting-stand" transform="translate(8.000000, 8.000000)" fill="#7C7CF0">
                    <path d="M13,5 L13,9 L12,9 L12,16 L10,16 L10,14.8 L8,12.8 L6,14.8 L6,16 L4,16 L4,9 L3,9 L3,5 L3,2 L1,2 L1,0 L15,0 L15,2 L13,2 L13,5 Z M11,5 L11,2 L5,2 L5,5 L11,5 Z M10,10.8 L8.8,12 L10,13.2 L10,10.8 Z M10,9 L6,9 L6,9.2 L8,11.2 L10,9.2 L10,9 Z M6,10.8 L6,13.2 L7.2,12 L6,10.8 Z" id="icon"></path>
                </g>
            </g>
        </g>
    </g>
</svg>