<?xml version="1.0" encoding="UTF-8"?>
<svg width="44px" height="44px" viewBox="0 0 44 44" version="1.1" xmlns="http://www.w3.org/2000/svg" xmlns:xlink="http://www.w3.org/1999/xlink">
    <!-- Generator: Sketch 53.2 (72643) - https://sketchapp.com -->
    <title>normal/lodging</title>
    <desc>Created with Sketch.</desc>
    <defs>
        <filter x="-37.5%" y="-27.3%" width="175.0%" height="154.5%" filterUnits="objectBoundingBox" id="filter-1">
            <feOffset dx="0" dy="0" in="SourceAlpha" result="shadowOffsetOuter1"></feOffset>
            <feGaussianBlur stdDeviation="3" in="shadowOffsetOuter1" result="shadowBlurOuter1"></feGaussianBlur>
            <feColorMatrix values="0 0 0 0 0   0 0 0 0 0   0 0 0 0 0  0 0 0 0.4 0" type="matrix" in="shadowBlurOuter1" result="shadowMatrixOuter1"></feColorMatrix>
            <feMerge>
                <feMergeNode in="shadowMatrixOuter1"></feMergeNode>
                <feMergeNode in="SourceGraphic"></feMergeNode>
            </feMerge>
        </filter>
    </defs>
    <g id="Icons" stroke="none" stroke-width="1" fill="none" fill-rule="evenodd">
        <g id="new-icons-normal" transform="translate(-347.000000, -88.000000)" fill-rule="nonzero">
            <g id="normal/lodging" filter="url(#filter-1)" transform="translate(353.000000, 94.000000)">
                <g id="pin/normal">
                    <circle id="Oval" fill="#FFFFFF" stroke="#7C7CF0" stroke-width="4" cx="16" cy="16" r="17"></circle>
                </g>
                <g id="icon/normal/lodging" transform="translate(8.000000, 8.000000)" fill="#7C7CF0">
                    <path d="M14,11 L2,11 L2,14 L0,14 L0,2 L2,2 L2,9 L16,9 L16,11 L16,14 L14,14 L14,11 Z M5,8 C3.8954305,8 3,7.1045695 3,6 C3,4.8954305 3.8954305,4 5,4 C6.1045695,4 7,4.8954305 7,6 C7,7.1045695 6.1045695,8 5,8 Z M10,5 L14,5 C15.1045695,5 16,5.8954305 16,7 L16,8 L8,8 L8,7 C8,5.8954305 8.8954305,5 10,5 Z" id="icon"></path>
                </g>
            </g>
        </g>
    </g>
</svg>