<?xml version="1.0" encoding="UTF-8"?>
<svg width="44px" height="44px" viewBox="0 0 44 44" version="1.1" xmlns="http://www.w3.org/2000/svg" xmlns:xlink="http://www.w3.org/1999/xlink">
    <!-- Generator: Sketch 53.2 (72643) - https://sketchapp.com -->
    <title>normal/pharmacy</title>
    <desc>Created with Sketch.</desc>
    <defs>
        <filter x="-37.5%" y="-27.3%" width="175.0%" height="154.5%" filterUnits="objectBoundingBox" id="filter-1">
            <feOffset dx="0" dy="0" in="SourceAlpha" result="shadowOffsetOuter1"></feOffset>
            <feGaussianBlur stdDeviation="3" in="shadowOffsetOuter1" result="shadowBlurOuter1"></feGaussianBlur>
            <feColorMatrix values="0 0 0 0 0   0 0 0 0 0   0 0 0 0 0  0 0 0 0.4 0" type="matrix" in="shadowBlurOuter1" result="shadowMatrixOuter1"></feColorMatrix>
            <feMerge>
                <feMergeNode in="shadowMatrixOuter1"></feMergeNode>
                <feMergeNode in="SourceGraphic"></feMergeNode>
            </feMerge>
        </filter>
    </defs>
    <g id="Icons" stroke="none" stroke-width="1" fill="none" fill-rule="evenodd">
        <g id="new-icons-normal" transform="translate(-667.000000, -88.000000)" fill-rule="nonzero">
            <g id="normal/pharmacy" filter="url(#filter-1)" transform="translate(673.000000, 94.000000)">
                <g id="pin/normal">
                    <circle id="Oval" fill="#FFFFFF" stroke="#7C7CF0" stroke-width="4" cx="16" cy="16" r="17"></circle>
                </g>
                <g id="icon/normal/pharmacy" transform="translate(8.000000, 8.000000)" fill="#7C7CF0">
                    <path d="M11,7 L11,4 L9,4 L9,7 L6,7 L6,9 L9,9 L9,12 L11,12 L11,9 L14,9 L14,7 L11,7 Z M4,4 C4,2.8954305 4.8954305,2 6,2 L14,2 C15.1045695,2 16,2.8954305 16,4 L16,12 C16,13.1045695 15.1045695,14 14,14 L6,14 C4.8954305,14 4,13.1045695 4,12 L3,12 L3,16 L0,16 L0,0 L3,0 L3,4 L4,4 Z M4,6 L3,6 L3,10 L4,10 L4,6 Z" id="icon"></path>
                </g>
            </g>
        </g>
    </g>
</svg>