<?xml version="1.0" encoding="UTF-8"?>
<svg width="44px" height="44px" viewBox="0 0 44 44" version="1.1" xmlns="http://www.w3.org/2000/svg" xmlns:xlink="http://www.w3.org/1999/xlink">
    <!-- Generator: Sketch 53.2 (72643) - https://sketchapp.com -->
    <title>normal/photo</title>
    <desc>Created with Sketch.</desc>
    <defs>
        <filter x="-37.5%" y="-27.3%" width="175.0%" height="154.5%" filterUnits="objectBoundingBox" id="filter-1">
            <feOffset dx="0" dy="0" in="SourceAlpha" result="shadowOffsetOuter1"></feOffset>
            <feGaussianBlur stdDeviation="3" in="shadowOffsetOuter1" result="shadowBlurOuter1"></feGaussianBlur>
            <feColorMatrix values="0 0 0 0 0   0 0 0 0 0   0 0 0 0 0  0 0 0 0.4 0" type="matrix" in="shadowBlurOuter1" result="shadowMatrixOuter1"></feColorMatrix>
            <feMerge>
                <feMergeNode in="shadowMatrixOuter1"></feMergeNode>
                <feMergeNode in="SourceGraphic"></feMergeNode>
            </feMerge>
        </filter>
    </defs>
    <g id="Icons" stroke="none" stroke-width="1" fill="none" fill-rule="evenodd">
        <g id="new-icons-normal" transform="translate(-27.000000, -164.000000)" fill-rule="nonzero">
            <g id="normal/photo" filter="url(#filter-1)" transform="translate(33.000000, 170.000000)">
                <g id="pin/normal">
                    <circle id="Oval" fill="#FFFFFF" stroke="#7C7CF0" stroke-width="4" cx="16" cy="16" r="17"></circle>
                </g>
                <g id="icon/normal/photo" transform="translate(8.000000, 8.000000)" fill="#7C7CF0">
                    <path d="M8,7 C6.89533333,7 6,7.89573333 6,9 C6,10.1046667 6.89533333,11 8,11 C9.1044,11 10,10.1046667 10,9 C10,7.89573333 9.1044,7 8,7 Z M14.0204361,4.00640869 C13.4337694,4.00640869 12.9202907,4.00640869 12.48,4.00640869 C12.216,4.00640869 11.93152,3.80160869 11.84816,3.55104869 L11.35184,2.4552 C11.26816,2.2048 10.984,2 10.72,2 L5.28,2 C5.016,2 4.73152,2.2048 4.64816,2.45536 L4.15184,3.55120869 C4.06816,3.80160869 3.784,4.00640869 3.52,4.00640869 L2.00890277,4.00640869 C1.12890277,4.00640869 0,5.12 0,6 L0,13.4042877 C0,14.2842877 0.72,15.0042877 1.6,15.0042877 L14.4,15.0042877 C15.28,15.0042877 16,14.2842877 16,13.4042877 L16,6 C16,5.12 14.9004361,4.00640869 14.0204361,4.00640869 Z M8,13 C5.79088,13 4,11.20912 4,9 C4,6.79104 5.79088,5 8,5 C10.2088,5 12,6.79104 12,9 C12,11.20912 10.2088,13 8,13 Z M14,8 C13.448,8 13,7.55257143 13,7 C13,6.448 13.448,6 14,6 C14.5525714,6 15,6.448 15,7 C15,7.55257143 14.5522857,8 14,8 Z" id="icon"></path>
                </g>
            </g>
        </g>
    </g>
</svg>