<?xml version="1.0" encoding="UTF-8"?>
<svg width="44px" height="44px" viewBox="0 0 44 44" version="1.1" xmlns="http://www.w3.org/2000/svg" xmlns:xlink="http://www.w3.org/1999/xlink">
    <!-- Generator: Sketch 53.2 (72643) - https://sketchapp.com -->
    <title>normal/police</title>
    <desc>Created with Sketch.</desc>
    <defs>
        <filter x="-37.5%" y="-27.3%" width="175.0%" height="154.5%" filterUnits="objectBoundingBox" id="filter-1">
            <feOffset dx="0" dy="0" in="SourceAlpha" result="shadowOffsetOuter1"></feOffset>
            <feGaussianBlur stdDeviation="3" in="shadowOffsetOuter1" result="shadowBlurOuter1"></feGaussianBlur>
            <feColorMatrix values="0 0 0 0 0   0 0 0 0 0   0 0 0 0 0  0 0 0 0.4 0" type="matrix" in="shadowBlurOuter1" result="shadowMatrixOuter1"></feColorMatrix>
            <feMerge>
                <feMergeNode in="shadowMatrixOuter1"></feMergeNode>
                <feMergeNode in="SourceGraphic"></feMergeNode>
            </feMerge>
        </filter>
    </defs>
    <g id="Icons" stroke="none" stroke-width="1" fill="none" fill-rule="evenodd">
        <g id="new-icons-normal" transform="translate(-219.000000, -164.000000)" fill-rule="nonzero">
            <g id="normal/police" filter="url(#filter-1)" transform="translate(225.000000, 170.000000)">
                <g id="pin/normal">
                    <circle id="Oval" fill="#FFFFFF" stroke="#7C7CF0" stroke-width="4" cx="16" cy="16" r="17"></circle>
                </g>
                <g id="icon/normal/police" transform="translate(8.000000, 8.000000)" fill="#7C7CF0">
                    <path d="M13.7980835,5.87207031 L14.8222174,9.30114747 C15.2225549,10.6416016 14.937584,12.1060791 14.0600831,13.2188721 C13.1827098,14.3314209 11.7888668,14.9958496 10.33147,14.9958496 C9.93342966,14.9958496 9.5480235,15.1074219 9.21711021,15.3184814 L8.27171657,15.9212647 C8.18940301,15.9737549 8.09471049,16 7.99989036,16 C7.90519787,16 7.81037774,15.9737549 7.72806418,15.9212647 L6.7830534,15.3184814 C6.45201247,15.1074219 6.06673396,14.9958496 5.66856601,14.9958496 C4.2111692,14.9958496 2.81732616,14.3314209 1.93995287,13.21875 C1.06232436,12.105835 0.777353526,10.6413574 1.17794619,9.30114747 L2.20208012,5.87219238 C2.52495347,4.79113769 2.20922672,3.62573244 1.37817875,2.83093263 C1.36745884,2.82055663 1.36095032,2.81445313 1.35980177,2.8133545 C1.26574733,2.72595216 1.21214783,2.60595703 1.2112545,2.48046875 C1.21036116,2.35498047 1.26191881,2.234375 1.35456941,2.14562988 L3.45426727,0.137329094 C3.54615218,0.0493164063 3.67070728,2.84217094e-14 3.80074993,2.84217094e-14 C3.930665,2.84217094e-14 4.05585818,0.049682625 4.14774309,0.13757325 C4.61571806,0.585327156 5.2381107,0.831909188 5.90032018,0.831909188 C6.56265723,0.831909188 7.18517748,0.585327156 7.65302484,0.13757325 C7.65978858,0.1311035 7.66680758,0.124755875 7.67408179,0.118652344 C7.7637972,0.0423584063 7.87992954,2.84217094e-14 7.99989036,2.84217094e-14 C8.12993304,2.84217094e-14 8.25512623,0.049682625 8.34701114,0.13757325 C8.8149861,0.585327156 9.43725114,0.831909188 10.0995882,0.831909188 C10.7619253,0.831909188 11.3844456,0.585327156 11.8522929,0.13757325 C11.8590566,0.1311035 11.8660756,0.124755875 11.8732222,0.118652344 C12.0672015,-0.0462646562 12.3622541,-0.038208 12.5456411,0.137329094 L14.6452113,2.14562988 C14.7372239,2.2335205 14.7887815,2.35278319 14.7887815,2.47717284 C14.7887815,2.60144044 14.7370962,2.72070313 14.6452113,2.80859375 L14.6218573,2.83093263 C13.7906816,3.62597656 13.4749549,4.79125975 13.7980835,5.87207031 Z M8,5 L10,6 L12,5 L8,3 L6,4 L4,5 L6,6 L8,5 Z M8,8 L10,9 L12,8 L8,6 L6,7 L4,8 L6,9 L8,8 Z" id="icon"></path>
                </g>
            </g>
        </g>
    </g>
</svg>