<?xml version="1.0" encoding="UTF-8"?>
<svg width="44px" height="44px" viewBox="0 0 44 44" version="1.1" xmlns="http://www.w3.org/2000/svg" xmlns:xlink="http://www.w3.org/1999/xlink">
    <!-- Generator: Sketch 53.2 (72643) - https://sketchapp.com -->
    <title>normal/waste-basket</title>
    <desc>Created with Sketch.</desc>
    <defs>
        <filter x="-37.5%" y="-27.3%" width="175.0%" height="154.5%" filterUnits="objectBoundingBox" id="filter-1">
            <feOffset dx="0" dy="0" in="SourceAlpha" result="shadowOffsetOuter1"></feOffset>
            <feGaussianBlur stdDeviation="3" in="shadowOffsetOuter1" result="shadowBlurOuter1"></feGaussianBlur>
            <feColorMatrix values="0 0 0 0 0   0 0 0 0 0   0 0 0 0 0  0 0 0 0.4 0" type="matrix" in="shadowBlurOuter1" result="shadowMatrixOuter1"></feColorMatrix>
            <feMerge>
                <feMergeNode in="shadowMatrixOuter1"></feMergeNode>
                <feMergeNode in="SourceGraphic"></feMergeNode>
            </feMerge>
        </filter>
    </defs>
    <g id="Icons" stroke="none" stroke-width="1" fill="none" fill-rule="evenodd">
        <g id="new-icons-normal" transform="translate(-603.000000, -240.000000)" fill-rule="nonzero">
            <g id="normal/waste-basket" filter="url(#filter-1)" transform="translate(609.000000, 246.000000)">
                <g id="pin/normal">
                    <circle id="Oval" fill="#FFFFFF" stroke="#7C7CF0" stroke-width="4" cx="16" cy="16" r="17"></circle>
                </g>
                <g id="icon/normal/waste-basket" transform="translate(8.000000, 8.000000)" fill="#7C7CF0">
                    <path d="M10,1 L14,1 C14.5522847,1 15,1.44771525 15,2 L15,3 L1,3 L1,2 C1,1.44771525 1.44771525,1 2,1 L6,1 L6,0 L10,0 L10,1 Z M2,4 L14,4 L13,16 L3,16 L2,4 Z M4,6 L5,14 L6,14 L6,6 L4,6 Z M7,6 L7,14 L9,14 L9,6 L7,6 Z M10,6 L10,14 L11,14 L12,6 L10,6 Z" id="icon"></path>
                </g>
            </g>
        </g>
    </g>
</svg>