<?xml version="1.0" encoding="UTF-8"?>
<svg width="44px" height="44px" viewBox="0 0 44 44" version="1.1" xmlns="http://www.w3.org/2000/svg" xmlns:xlink="http://www.w3.org/1999/xlink">
    <!-- Generator: Sketch 53.2 (72643) - https://sketchapp.com -->
    <title>normal/water</title>
    <desc>Created with Sketch.</desc>
    <defs>
        <filter x="-37.5%" y="-27.3%" width="175.0%" height="154.5%" filterUnits="objectBoundingBox" id="filter-1">
            <feOffset dx="0" dy="0" in="SourceAlpha" result="shadowOffsetOuter1"></feOffset>
            <feGaussianBlur stdDeviation="3" in="shadowOffsetOuter1" result="shadowBlurOuter1"></feGaussianBlur>
            <feColorMatrix values="0 0 0 0 0   0 0 0 0 0   0 0 0 0 0  0 0 0 0.4 0" type="matrix" in="shadowBlurOuter1" result="shadowMatrixOuter1"></feColorMatrix>
            <feMerge>
                <feMergeNode in="shadowMatrixOuter1"></feMergeNode>
                <feMergeNode in="SourceGraphic"></feMergeNode>
            </feMerge>
        </filter>
    </defs>
    <g id="Icons" stroke="none" stroke-width="1" fill="none" fill-rule="evenodd">
        <g id="new-icons-normal" transform="translate(-667.000000, -240.000000)" fill-rule="nonzero">
            <g id="normal/water" filter="url(#filter-1)" transform="translate(673.000000, 246.000000)">
                <g id="pin/normal">
                    <circle id="Oval" fill="#FFFFFF" stroke="#7C7CF0" stroke-width="4" cx="16" cy="16" r="17"></circle>
                </g>
                <g id="icon/normal/water" transform="translate(8.000000, 8.000000)" fill="#7C7CF0">
                    <path d="M1.46115556,4.34044444 C3.01422222,3.00675556 4.24106667,1.95235556 7.56942222,3.83306667 C9.16835556,4.73635556 10.4581333,5.07733333 11.5319111,5.07715556 C13.4119111,5.07715556 14.6298667,4.03128889 15.6833778,3.12604444 C16.0590222,2.80355556 16.1073778,2.23093333 15.7912889,1.84711111 C15.4752,1.46328889 14.9144889,1.41368889 14.5388444,1.73671111 C12.9859556,3.07093333 11.7592889,4.12497778 8.42986667,2.24391111 C4.03182222,-0.240533333 1.97191111,1.52924444 0.316622222,2.95093333 C-0.0588444444,3.2736 -0.107377778,3.84622222 0.208711111,4.23004444 C0.524622222,4.61368889 1.08533333,4.66328889 1.46115556,4.34044444 Z M14.5388444,6.27608889 C12.9859556,7.60995556 11.7592889,8.66417778 8.42986667,6.78328889 C4.03182222,4.29866667 1.97191111,6.06844444 0.316622222,7.49031111 C-0.0588444444,7.81315556 -0.107377778,8.38577778 0.208711111,8.76906667 C0.524622222,9.15288889 1.08551111,9.20248889 1.46115556,8.87964444 C3.01422222,7.54577778 4.24106667,6.49155556 7.56942222,8.37208889 C9.16835556,9.27537778 10.4581333,9.61653333 11.5319111,9.61653333 C13.4119111,9.61653333 14.6298667,8.57048889 15.6833778,7.66542222 C16.0590222,7.34257778 16.1073778,6.76995556 15.7912889,6.38648889 C15.4753778,6.00231111 14.9146667,5.95306667 14.5388444,6.27608889 Z M14.5388444,10.8149333 C12.9859556,12.1489778 11.7592889,13.2030222 8.42986667,11.3223111 C4.03182222,8.83768889 1.97191111,10.6074667 0.316622222,12.0293333 C-0.0588444444,12.352 -0.107377778,12.9248 0.208711111,13.3086222 C0.524622222,13.6919111 1.08551111,13.7416889 1.46115556,13.4188444 C3.01422222,12.0846222 4.24088889,11.0309333 7.56942222,12.9111111 C9.16835556,13.8147556 10.4581333,14.1555556 11.5319111,14.1555556 C13.4119111,14.1555556 14.6298667,13.1095111 15.6833778,12.2046222 C16.0590222,11.8819556 16.1073778,11.3089778 15.7912889,10.9253333 C15.4752,10.5416889 14.9146667,10.4924444 14.5388444,10.8149333 Z" id="icon"></path>
                </g>
            </g>
        </g>
    </g>
</svg>