<?xml version="1.0" encoding="UTF-8" standalone="no"?>
<!DOCTYPE svg PUBLIC "-//W3C//DTD SVG 1.1//EN"
 "http://www.w3.org/Graphics/SVG/1.1/DTD/svg11.dtd">
<!-- Generated by graphviz version 2.40.1 (20161225.0304)
 -->
<!-- Title: dependencies Pages: 1 -->
<svg width="504pt" height="211pt"
 viewBox="0.00 0.00 504.00 211.00" xmlns="http://www.w3.org/2000/svg" xmlns:xlink="http://www.w3.org/1999/xlink">
<g id="graph0" class="graph" transform="scale(1 1) rotate(0) translate(4 207)">
<title>dependencies</title>
<polygon fill="#ffffff" stroke="transparent" points="-4,4 -4,-207 500,-207 500,4 -4,4"/>
<text text-anchor="start" x="227.0091" y="-42.4" font-family="sans-serif" font-weight="bold" font-size="14.00" fill="#000000">Legend</text>
<polygon fill="#ffffb3" stroke="transparent" points="14,-10 14,-30 34,-30 34,-10 14,-10"/>
<text text-anchor="start" x="37.629" y="-15.4" font-family="sans-serif" font-size="14.00" fill="#000000"> &#160;Declarations</text>
<polygon fill="#8dd3c7" stroke="transparent" points="127,-10 127,-30 147,-30 147,-10 127,-10"/>
<text text-anchor="start" x="150.7251" y="-15.4" font-family="sans-serif" font-size="14.00" fill="#000000"> &#160;Module</text>
<polygon fill="#80b1d3" stroke="transparent" points="213,-10 213,-30 233,-30 233,-10 213,-10"/>
<text text-anchor="start" x="236.7812" y="-15.4" font-family="sans-serif" font-size="14.00" fill="#000000"> &#160;Bootstrap</text>
<polygon fill="#fdb462" stroke="transparent" points="310,-10 310,-30 330,-30 330,-10 310,-10"/>
<text text-anchor="start" x="333.6732" y="-15.4" font-family="sans-serif" font-size="14.00" fill="#000000"> &#160;Providers</text>
<polygon fill="#fb8072" stroke="transparent" points="406,-10 406,-30 426,-30 426,-10 406,-10"/>
<text text-anchor="start" x="429.7258" y="-15.4" font-family="sans-serif" font-size="14.00" fill="#000000"> &#160;Exports</text>
<g id="clust1" class="cluster">
<title>cluster_DeepstreamModule</title>
<polygon fill="none" stroke="#000000" stroke-dasharray="1,5" points="43.5,-70 43.5,-195 452.5,-195 452.5,-70 43.5,-70"/>
</g>
<g id="clust6" class="cluster">
<title>cluster_DeepstreamModule_providers</title>
<polygon fill="none" stroke="#000000" points="51.5,-78 51.5,-130 444.5,-130 444.5,-78 51.5,-78"/>
</g>
<!-- Effects -->
<g id="node1" class="node">
<title>Effects</title>
<ellipse fill="#fdb462" stroke="#000000" cx="398.5" cy="-104" rx="38.2568" ry="18"/>
<text text-anchor="middle" x="398.5" y="-99.8" font-family="Times,serif" font-size="14.00" fill="#000000">Effects</text>
</g>
<!-- DeepstreamModule -->
<g id="node4" class="node">
<title>DeepstreamModule</title>
<polygon fill="#8dd3c7" stroke="#000000" points="319.9018,-187 316.9018,-191 295.9018,-191 292.9018,-187 193.0982,-187 193.0982,-151 319.9018,-151 319.9018,-187"/>
<text text-anchor="middle" x="256.5" y="-164.8" font-family="Times,serif" font-size="14.00" fill="#000000">DeepstreamModule</text>
</g>
<!-- Effects&#45;&gt;DeepstreamModule -->
<g id="edge1" class="edge">
<title>Effects&#45;&gt;DeepstreamModule</title>
<path fill="none" stroke="#000000" d="M398.5,-122.1061C398.5,-141.3391 398.5,-169 398.5,-169 398.5,-169 330.0241,-169 330.0241,-169"/>
<polygon fill="#000000" stroke="#000000" points="330.0241,-165.5001 320.0241,-169 330.024,-172.5001 330.0241,-165.5001"/>
</g>
<!-- DeepstreamService -->
<g id="node2" class="node">
<title>DeepstreamService</title>
<ellipse fill="#fdb462" stroke="#000000" cx="256.5" cy="-104" rx="86.2097" ry="18"/>
<text text-anchor="middle" x="256.5" y="-99.8" font-family="Times,serif" font-size="14.00" fill="#000000">DeepstreamService</text>
</g>
<!-- DeepstreamService&#45;&gt;DeepstreamModule -->
<g id="edge2" class="edge">
<title>DeepstreamService&#45;&gt;DeepstreamModule</title>
<path fill="none" stroke="#000000" d="M256.5,-122.1061C256.5,-122.1061 256.5,-140.991 256.5,-140.991"/>
<polygon fill="#000000" stroke="#000000" points="253.0001,-140.9909 256.5,-150.991 260.0001,-140.991 253.0001,-140.9909"/>
</g>
<!-- Selectors -->
<g id="node3" class="node">
<title>Selectors</title>
<ellipse fill="#fdb462" stroke="#000000" cx="105.5" cy="-104" rx="46.3624" ry="18"/>
<text text-anchor="middle" x="105.5" y="-99.8" font-family="Times,serif" font-size="14.00" fill="#000000">Selectors</text>
</g>
<!-- Selectors&#45;&gt;DeepstreamModule -->
<g id="edge3" class="edge">
<title>Selectors&#45;&gt;DeepstreamModule</title>
<path fill="none" stroke="#000000" d="M105.5,-122.1061C105.5,-141.3391 105.5,-169 105.5,-169 105.5,-169 182.9,-169 182.9,-169"/>
<polygon fill="#000000" stroke="#000000" points="182.9001,-172.5001 192.9,-169 182.9,-165.5001 182.9001,-172.5001"/>
</g>
</g>
</svg>
