<?xml version="1.0" encoding="UTF-8" standalone="no"?>
<!DOCTYPE svg PUBLIC "-//W3C//DTD SVG 1.1//EN"
 "http://www.w3.org/Graphics/SVG/1.1/DTD/svg11.dtd">
<!-- Generated by graphviz version 2.40.1 (20161225.0304)
 -->
<!-- Title: dependencies Pages: 1 -->
<svg width="901pt" height="284pt"
 viewBox="0.00 0.00 901.00 284.00" xmlns="http://www.w3.org/2000/svg" xmlns:xlink="http://www.w3.org/1999/xlink">
<g id="graph0" class="graph" transform="scale(1 1) rotate(0) translate(4 280)">
<title>dependencies</title>
<polygon fill="#ffffff" stroke="transparent" points="-4,4 -4,-280 897,-280 897,4 -4,4"/>
<text text-anchor="start" x="425.5091" y="-42.4" font-family="sans-serif" font-weight="bold" font-size="14.00" fill="#000000">Legend</text>
<polygon fill="#ffffb3" stroke="transparent" points="212.5,-10 212.5,-30 232.5,-30 232.5,-10 212.5,-10"/>
<text text-anchor="start" x="236.129" y="-15.4" font-family="sans-serif" font-size="14.00" fill="#000000"> &#160;Declarations</text>
<polygon fill="#8dd3c7" stroke="transparent" points="325.5,-10 325.5,-30 345.5,-30 345.5,-10 325.5,-10"/>
<text text-anchor="start" x="349.2251" y="-15.4" font-family="sans-serif" font-size="14.00" fill="#000000"> &#160;Module</text>
<polygon fill="#80b1d3" stroke="transparent" points="411.5,-10 411.5,-30 431.5,-30 431.5,-10 411.5,-10"/>
<text text-anchor="start" x="435.2812" y="-15.4" font-family="sans-serif" font-size="14.00" fill="#000000"> &#160;Bootstrap</text>
<polygon fill="#fdb462" stroke="transparent" points="508.5,-10 508.5,-30 528.5,-30 528.5,-10 508.5,-10"/>
<text text-anchor="start" x="532.1732" y="-15.4" font-family="sans-serif" font-size="14.00" fill="#000000"> &#160;Providers</text>
<polygon fill="#fb8072" stroke="transparent" points="604.5,-10 604.5,-30 624.5,-30 624.5,-10 604.5,-10"/>
<text text-anchor="start" x="628.2258" y="-15.4" font-family="sans-serif" font-size="14.00" fill="#000000"> &#160;Exports</text>
<g id="clust1" class="cluster">
<title>cluster_CoreLayoutModule</title>
<polygon fill="none" stroke="#000000" stroke-dasharray="1,5" points="8,-70 8,-268 885,-268 885,-70 8,-70"/>
</g>
<g id="clust2" class="cluster">
<title>cluster_CoreLayoutModule_declarations</title>
<polygon fill="none" stroke="#000000" points="138,-78 138,-130 877,-130 877,-78 138,-78"/>
</g>
<g id="clust8" class="cluster">
<title>cluster_CoreLayoutModule_imports</title>
<polygon fill="none" stroke="#000000" points="16,-78 16,-130 130,-130 130,-78 16,-78"/>
</g>
<g id="clust9" class="cluster">
<title>cluster_CoreLayoutModule_exports</title>
<polygon fill="none" stroke="#000000" points="68,-208 68,-260 824,-260 824,-208 68,-208"/>
</g>
<!-- FooterComponent -->
<g id="node1" class="node">
<title>FooterComponent</title>
<polygon fill="#ffffb3" stroke="#000000" points="868.8809,-122 751.1191,-122 751.1191,-86 868.8809,-86 868.8809,-122"/>
<text text-anchor="middle" x="810" y="-99.8" font-family="Times,serif" font-size="14.00" fill="#000000">FooterComponent</text>
</g>
<!-- CoreLayoutModule -->
<g id="node6" class="node">
<title>CoreLayoutModule</title>
<polygon fill="#8dd3c7" stroke="#000000" points="534.4201,-187 531.4201,-191 510.4201,-191 507.4201,-187 407.5799,-187 407.5799,-151 534.4201,-151 534.4201,-187"/>
<text text-anchor="middle" x="471" y="-164.8" font-family="Times,serif" font-size="14.00" fill="#000000">CoreLayoutModule</text>
</g>
<!-- FooterComponent&#45;&gt;CoreLayoutModule -->
<g id="edge1" class="edge">
<title>FooterComponent&#45;&gt;CoreLayoutModule</title>
<path fill="none" stroke="#000000" d="M783.375,-122.2667C783.375,-140.5552 783.375,-166 783.375,-166 783.375,-166 544.2137,-166 544.2137,-166"/>
<polygon fill="#000000" stroke="#000000" points="544.2138,-162.5001 534.2137,-166 544.2137,-169.5001 544.2138,-162.5001"/>
</g>
<!-- LayoutComponent -->
<g id="node2" class="node">
<title>LayoutComponent</title>
<polygon fill="#ffffb3" stroke="#000000" points="733.4902,-122 612.5098,-122 612.5098,-86 733.4902,-86 733.4902,-122"/>
<text text-anchor="middle" x="673" y="-99.8" font-family="Times,serif" font-size="14.00" fill="#000000">LayoutComponent</text>
</g>
<!-- LayoutComponent&#45;&gt;CoreLayoutModule -->
<g id="edge2" class="edge">
<title>LayoutComponent&#45;&gt;CoreLayoutModule</title>
<path fill="none" stroke="#000000" d="M644.375,-122.0091C644.375,-138.0494 644.375,-159 644.375,-159 644.375,-159 544.574,-159 544.574,-159"/>
<polygon fill="#000000" stroke="#000000" points="544.574,-155.5001 534.574,-159 544.5739,-162.5001 544.574,-155.5001"/>
</g>
<!-- NavbarComponent -->
<g id="node3" class="node">
<title>NavbarComponent</title>
<polygon fill="#ffffb3" stroke="#000000" points="594.0297,-122 471.9703,-122 471.9703,-86 594.0297,-86 594.0297,-122"/>
<text text-anchor="middle" x="533" y="-99.8" font-family="Times,serif" font-size="14.00" fill="#000000">NavbarComponent</text>
</g>
<!-- NavbarComponent&#45;&gt;CoreLayoutModule -->
<g id="edge3" class="edge">
<title>NavbarComponent&#45;&gt;CoreLayoutModule</title>
<path fill="none" stroke="#000000" d="M502.9727,-122.1061C502.9727,-122.1061 502.9727,-140.991 502.9727,-140.991"/>
<polygon fill="#000000" stroke="#000000" points="499.4727,-140.9909 502.9727,-150.991 506.4727,-140.991 499.4727,-140.9909"/>
</g>
<!-- PageNotFoundComponent -->
<g id="node4" class="node">
<title>PageNotFoundComponent</title>
<polygon fill="#ffffb3" stroke="#000000" points="453.8243,-122 288.1757,-122 288.1757,-86 453.8243,-86 453.8243,-122"/>
<text text-anchor="middle" x="371" y="-99.8" font-family="Times,serif" font-size="14.00" fill="#000000">PageNotFoundComponent</text>
</g>
<!-- PageNotFoundComponent&#45;&gt;CoreLayoutModule -->
<g id="edge4" class="edge">
<title>PageNotFoundComponent&#45;&gt;CoreLayoutModule</title>
<path fill="none" stroke="#000000" d="M430.7262,-122.1061C430.7262,-122.1061 430.7262,-140.991 430.7262,-140.991"/>
<polygon fill="#000000" stroke="#000000" points="427.2262,-140.9909 430.7262,-150.991 434.2262,-140.991 427.2262,-140.9909"/>
</g>
<!-- SidebarComponent -->
<g id="node5" class="node">
<title>SidebarComponent</title>
<polygon fill="#ffffb3" stroke="#000000" points="270.0954,-122 145.9046,-122 145.9046,-86 270.0954,-86 270.0954,-122"/>
<text text-anchor="middle" x="208" y="-99.8" font-family="Times,serif" font-size="14.00" fill="#000000">SidebarComponent</text>
</g>
<!-- SidebarComponent&#45;&gt;CoreLayoutModule -->
<g id="edge5" class="edge">
<title>SidebarComponent&#45;&gt;CoreLayoutModule</title>
<path fill="none" stroke="#000000" d="M245.8179,-122.0091C245.8179,-138.0494 245.8179,-159 245.8179,-159 245.8179,-159 397.675,-159 397.675,-159"/>
<polygon fill="#000000" stroke="#000000" points="397.675,-162.5001 407.675,-159 397.6749,-155.5001 397.675,-162.5001"/>
</g>
<!-- FooterComponent  -->
<g id="node8" class="node">
<title>FooterComponent </title>
<polygon fill="#fb8072" stroke="#000000" points="815.8814,-252 694.1186,-252 694.1186,-216 815.8814,-216 815.8814,-252"/>
<text text-anchor="middle" x="755" y="-229.8" font-family="Times,serif" font-size="14.00" fill="#000000">FooterComponent </text>
</g>
<!-- CoreLayoutModule&#45;&gt;FooterComponent  -->
<g id="edge7" class="edge">
<title>CoreLayoutModule&#45;&gt;FooterComponent </title>
<path fill="none" stroke="#000000" stroke-dasharray="5,2" d="M534.5025,-173C606.4722,-173 713.9024,-173 713.9024,-173 713.9024,-173 713.9024,-205.698 713.9024,-205.698"/>
<polygon fill="#000000" stroke="#000000" points="710.4024,-205.698 713.9024,-215.698 717.4024,-205.698 710.4024,-205.698"/>
</g>
<!-- LayoutComponent  -->
<g id="node9" class="node">
<title>LayoutComponent </title>
<polygon fill="#fb8072" stroke="#000000" points="676.4912,-252 551.5088,-252 551.5088,-216 676.4912,-216 676.4912,-252"/>
<text text-anchor="middle" x="614" y="-229.8" font-family="Times,serif" font-size="14.00" fill="#000000">LayoutComponent </text>
</g>
<!-- CoreLayoutModule&#45;&gt;LayoutComponent  -->
<g id="edge8" class="edge">
<title>CoreLayoutModule&#45;&gt;LayoutComponent </title>
<path fill="none" stroke="#000000" stroke-dasharray="5,2" d="M534.4442,-180C555.1888,-180 573.0097,-180 573.0097,-180 573.0097,-180 573.0097,-205.7181 573.0097,-205.7181"/>
<polygon fill="#000000" stroke="#000000" points="569.5097,-205.718 573.0097,-215.7181 576.5097,-205.7181 569.5097,-205.718"/>
</g>
<!-- NavbarComponent  -->
<g id="node10" class="node">
<title>NavbarComponent </title>
<polygon fill="#fb8072" stroke="#000000" points="534.0288,-252 407.9712,-252 407.9712,-216 534.0288,-216 534.0288,-252"/>
<text text-anchor="middle" x="471" y="-229.8" font-family="Times,serif" font-size="14.00" fill="#000000">NavbarComponent </text>
</g>
<!-- CoreLayoutModule&#45;&gt;NavbarComponent  -->
<g id="edge9" class="edge">
<title>CoreLayoutModule&#45;&gt;NavbarComponent </title>
<path fill="none" stroke="#000000" stroke-dasharray="5,2" d="M471,-187.1061C471,-187.1061 471,-205.991 471,-205.991"/>
<polygon fill="#000000" stroke="#000000" points="467.5001,-205.9909 471,-215.991 474.5001,-205.991 467.5001,-205.9909"/>
</g>
<!-- PageNotFoundComponent  -->
<g id="node11" class="node">
<title>PageNotFoundComponent </title>
<polygon fill="#fb8072" stroke="#000000" points="390.3241,-252 221.6759,-252 221.6759,-216 390.3241,-216 390.3241,-252"/>
<text text-anchor="middle" x="306" y="-229.8" font-family="Times,serif" font-size="14.00" fill="#000000">PageNotFoundComponent </text>
</g>
<!-- CoreLayoutModule&#45;&gt;PageNotFoundComponent  -->
<g id="edge10" class="edge">
<title>CoreLayoutModule&#45;&gt;PageNotFoundComponent </title>
<path fill="none" stroke="#000000" stroke-dasharray="5,2" d="M407.5008,-180C373.8418,-180 339.375,-180 339.375,-180 339.375,-180 339.375,-205.7181 339.375,-205.7181"/>
<polygon fill="#000000" stroke="#000000" points="335.8751,-205.718 339.375,-215.7181 342.8751,-205.7181 335.8751,-205.718"/>
</g>
<!-- SidebarComponent  -->
<g id="node12" class="node">
<title>SidebarComponent </title>
<polygon fill="#fb8072" stroke="#000000" points="203.596,-252 76.404,-252 76.404,-216 203.596,-216 203.596,-252"/>
<text text-anchor="middle" x="140" y="-229.8" font-family="Times,serif" font-size="14.00" fill="#000000">SidebarComponent </text>
</g>
<!-- CoreLayoutModule&#45;&gt;SidebarComponent  -->
<g id="edge11" class="edge">
<title>CoreLayoutModule&#45;&gt;SidebarComponent </title>
<path fill="none" stroke="#000000" stroke-dasharray="5,2" d="M407.4738,-173C320.4625,-173 174.875,-173 174.875,-173 174.875,-173 174.875,-205.698 174.875,-205.698"/>
<polygon fill="#000000" stroke="#000000" points="171.3751,-205.698 174.875,-215.698 178.3751,-205.698 171.3751,-205.698"/>
</g>
<!-- RouterModule -->
<g id="node7" class="node">
<title>RouterModule</title>
<polygon fill="#8dd3c7" stroke="#000000" points="121.6528,-122 118.6528,-126 97.6528,-126 94.6528,-122 24.3472,-122 24.3472,-86 121.6528,-86 121.6528,-122"/>
<text text-anchor="middle" x="73" y="-99.8" font-family="Times,serif" font-size="14.00" fill="#000000">RouterModule</text>
</g>
<!-- RouterModule&#45;&gt;CoreLayoutModule -->
<g id="edge6" class="edge">
<title>RouterModule&#45;&gt;CoreLayoutModule</title>
<path fill="none" stroke="#000000" d="M99.0142,-122.2667C99.0142,-140.5552 99.0142,-166 99.0142,-166 99.0142,-166 397.476,-166 397.476,-166"/>
<polygon fill="#000000" stroke="#000000" points="397.4761,-169.5001 407.476,-166 397.476,-162.5001 397.4761,-169.5001"/>
</g>
</g>
</svg>
