<?xml version="1.0" encoding="UTF-8" standalone="no"?>
<!DOCTYPE svg PUBLIC "-//W3C//DTD SVG 1.1//EN"
 "http://www.w3.org/Graphics/SVG/1.1/DTD/svg11.dtd">
<!-- Generated by graphviz version 2.40.1 (20161225.0304)
 -->
<!-- Title: dependencies Pages: 1 -->
<svg width="765pt" height="284pt"
 viewBox="0.00 0.00 765.00 284.00" xmlns="http://www.w3.org/2000/svg" xmlns:xlink="http://www.w3.org/1999/xlink">
<g id="graph0" class="graph" transform="scale(1 1) rotate(0) translate(4 280)">
<title>dependencies</title>
<polygon fill="#ffffff" stroke="transparent" points="-4,4 -4,-280 761,-280 761,4 -4,4"/>
<text text-anchor="start" x="357.5091" y="-42.4" font-family="sans-serif" font-weight="bold" font-size="14.00" fill="#000000">Legend</text>
<polygon fill="#ffffb3" stroke="transparent" points="144.5,-10 144.5,-30 164.5,-30 164.5,-10 144.5,-10"/>
<text text-anchor="start" x="168.129" y="-15.4" font-family="sans-serif" font-size="14.00" fill="#000000"> &#160;Declarations</text>
<polygon fill="#8dd3c7" stroke="transparent" points="257.5,-10 257.5,-30 277.5,-30 277.5,-10 257.5,-10"/>
<text text-anchor="start" x="281.2251" y="-15.4" font-family="sans-serif" font-size="14.00" fill="#000000"> &#160;Module</text>
<polygon fill="#80b1d3" stroke="transparent" points="343.5,-10 343.5,-30 363.5,-30 363.5,-10 343.5,-10"/>
<text text-anchor="start" x="367.2812" y="-15.4" font-family="sans-serif" font-size="14.00" fill="#000000"> &#160;Bootstrap</text>
<polygon fill="#fdb462" stroke="transparent" points="440.5,-10 440.5,-30 460.5,-30 460.5,-10 440.5,-10"/>
<text text-anchor="start" x="464.1732" y="-15.4" font-family="sans-serif" font-size="14.00" fill="#000000"> &#160;Providers</text>
<polygon fill="#fb8072" stroke="transparent" points="536.5,-10 536.5,-30 556.5,-30 556.5,-10 536.5,-10"/>
<text text-anchor="start" x="560.2258" y="-15.4" font-family="sans-serif" font-size="14.00" fill="#000000"> &#160;Exports</text>
<g id="clust1" class="cluster">
<title>cluster_AuthenticationApiModule</title>
<polygon fill="none" stroke="#000000" stroke-dasharray="1,5" points="8,-70 8,-268 749,-268 749,-70 8,-70"/>
</g>
<g id="clust3" class="cluster">
<title>cluster_AuthenticationApiModule_imports</title>
<polygon fill="none" stroke="#000000" points="116,-78 116,-130 741,-130 741,-78 116,-78"/>
</g>
<g id="clust4" class="cluster">
<title>cluster_AuthenticationApiModule_exports</title>
<polygon fill="none" stroke="#000000" points="285,-208 285,-260 505,-260 505,-208 285,-208"/>
</g>
<g id="clust6" class="cluster">
<title>cluster_AuthenticationApiModule_providers</title>
<polygon fill="none" stroke="#000000" points="16,-78 16,-130 108,-130 108,-78 16,-78"/>
</g>
<!-- AuthModule -->
<g id="node1" class="node">
<title>AuthModule</title>
<polygon fill="#8dd3c7" stroke="#000000" points="732.5482,-122 729.5482,-126 708.5482,-126 705.5482,-122 645.4518,-122 645.4518,-86 732.5482,-86 732.5482,-122"/>
<text text-anchor="middle" x="689" y="-99.8" font-family="Times,serif" font-size="14.00" fill="#000000">AuthModule</text>
</g>
<!-- AuthenticationApiModule -->
<g id="node6" class="node">
<title>AuthenticationApiModule</title>
<polygon fill="#8dd3c7" stroke="#000000" points="476.7506,-187 473.7506,-191 452.7506,-191 449.7506,-187 313.2494,-187 313.2494,-151 476.7506,-151 476.7506,-187"/>
<text text-anchor="middle" x="395" y="-164.8" font-family="Times,serif" font-size="14.00" fill="#000000">AuthenticationApiModule</text>
</g>
<!-- AuthModule&#45;&gt;AuthenticationApiModule -->
<g id="edge1" class="edge">
<title>AuthModule&#45;&gt;AuthenticationApiModule</title>
<path fill="none" stroke="#000000" d="M689,-122.2843C689,-143.3211 689,-175 689,-175 689,-175 486.8954,-175 486.8954,-175"/>
<polygon fill="#000000" stroke="#000000" points="486.8954,-171.5001 476.8954,-175 486.8954,-178.5001 486.8954,-171.5001"/>
</g>
<!-- TwitterModule -->
<g id="node2" class="node">
<title>TwitterModule</title>
<polygon fill="#8dd3c7" stroke="#000000" points="627.2563,-122 624.2563,-126 603.2563,-126 600.2563,-122 526.7437,-122 526.7437,-86 627.2563,-86 627.2563,-122"/>
<text text-anchor="middle" x="577" y="-99.8" font-family="Times,serif" font-size="14.00" fill="#000000">TwitterModule</text>
</g>
<!-- TwitterModule&#45;&gt;AuthenticationApiModule -->
<g id="edge2" class="edge">
<title>TwitterModule&#45;&gt;AuthenticationApiModule</title>
<path fill="none" stroke="#000000" d="M577,-122.0225C577,-139.3734 577,-163 577,-163 577,-163 486.9489,-163 486.9489,-163"/>
<polygon fill="#000000" stroke="#000000" points="486.9489,-159.5001 476.9489,-163 486.9488,-166.5001 486.9489,-159.5001"/>
</g>
<!-- GoogleModule -->
<g id="node3" class="node">
<title>GoogleModule</title>
<polygon fill="#8dd3c7" stroke="#000000" points="508.2619,-122 505.2619,-126 484.2619,-126 481.2619,-122 407.7381,-122 407.7381,-86 508.2619,-86 508.2619,-122"/>
<text text-anchor="middle" x="458" y="-99.8" font-family="Times,serif" font-size="14.00" fill="#000000">GoogleModule</text>
</g>
<!-- GoogleModule&#45;&gt;AuthenticationApiModule -->
<g id="edge3" class="edge">
<title>GoogleModule&#45;&gt;AuthenticationApiModule</title>
<path fill="none" stroke="#000000" d="M442.2472,-122.1061C442.2472,-122.1061 442.2472,-140.991 442.2472,-140.991"/>
<polygon fill="#000000" stroke="#000000" points="438.7473,-140.9909 442.2472,-150.991 445.7473,-140.991 438.7473,-140.9909"/>
</g>
<!-- FacebookModule -->
<g id="node4" class="node">
<title>FacebookModule</title>
<polygon fill="#8dd3c7" stroke="#000000" points="389.9762,-122 386.9762,-126 365.9762,-126 362.9762,-122 276.0238,-122 276.0238,-86 389.9762,-86 389.9762,-122"/>
<text text-anchor="middle" x="333" y="-99.8" font-family="Times,serif" font-size="14.00" fill="#000000">FacebookModule</text>
</g>
<!-- FacebookModule&#45;&gt;AuthenticationApiModule -->
<g id="edge4" class="edge">
<title>FacebookModule&#45;&gt;AuthenticationApiModule</title>
<path fill="none" stroke="#000000" d="M351.5565,-122.1061C351.5565,-122.1061 351.5565,-140.991 351.5565,-140.991"/>
<polygon fill="#000000" stroke="#000000" points="348.0565,-140.9909 351.5565,-150.991 355.0565,-140.991 348.0565,-140.9909"/>
</g>
<!-- PasswordlessModule -->
<g id="node5" class="node">
<title>PasswordlessModule</title>
<polygon fill="#8dd3c7" stroke="#000000" points="258.1979,-122 255.1979,-126 234.1979,-126 231.1979,-122 123.8021,-122 123.8021,-86 258.1979,-86 258.1979,-122"/>
<text text-anchor="middle" x="191" y="-99.8" font-family="Times,serif" font-size="14.00" fill="#000000">PasswordlessModule</text>
</g>
<!-- PasswordlessModule&#45;&gt;AuthenticationApiModule -->
<g id="edge5" class="edge">
<title>PasswordlessModule&#45;&gt;AuthenticationApiModule</title>
<path fill="none" stroke="#000000" d="M191,-122.0225C191,-139.3734 191,-163 191,-163 191,-163 303.2008,-163 303.2008,-163"/>
<polygon fill="#000000" stroke="#000000" points="303.2009,-166.5001 313.2008,-163 303.2008,-159.5001 303.2009,-166.5001"/>
</g>
<!-- PasswordlessSuccessComponent  -->
<g id="node7" class="node">
<title>PasswordlessSuccessComponent </title>
<polygon fill="#fb8072" stroke="#000000" points="496.7961,-252 293.2039,-252 293.2039,-216 496.7961,-216 496.7961,-252"/>
<text text-anchor="middle" x="395" y="-229.8" font-family="Times,serif" font-size="14.00" fill="#000000">PasswordlessSuccessComponent </text>
</g>
<!-- AuthenticationApiModule&#45;&gt;PasswordlessSuccessComponent  -->
<g id="edge6" class="edge">
<title>AuthenticationApiModule&#45;&gt;PasswordlessSuccessComponent </title>
<path fill="none" stroke="#000000" stroke-dasharray="5,2" d="M395,-187.1061C395,-187.1061 395,-205.991 395,-205.991"/>
<polygon fill="#000000" stroke="#000000" points="391.5001,-205.9909 395,-215.991 398.5001,-205.991 391.5001,-205.9909"/>
</g>
<!-- Effects -->
<g id="node8" class="node">
<title>Effects</title>
<ellipse fill="#fdb462" stroke="#000000" cx="62" cy="-104" rx="38.2568" ry="18"/>
<text text-anchor="middle" x="62" y="-99.8" font-family="Times,serif" font-size="14.00" fill="#000000">Effects</text>
</g>
<!-- Effects&#45;&gt;AuthenticationApiModule -->
<g id="edge7" class="edge">
<title>Effects&#45;&gt;AuthenticationApiModule</title>
<path fill="none" stroke="#000000" d="M62,-122.2843C62,-143.3211 62,-175 62,-175 62,-175 303.1125,-175 303.1125,-175"/>
<polygon fill="#000000" stroke="#000000" points="303.1126,-178.5001 313.1125,-175 303.1125,-171.5001 303.1126,-178.5001"/>
</g>
</g>
</svg>
