<?xml version="1.0" encoding="UTF-8" standalone="no"?>
<!DOCTYPE svg PUBLIC "-//W3C//DTD SVG 1.1//EN"
 "http://www.w3.org/Graphics/SVG/1.1/DTD/svg11.dtd">
<!-- Generated by graphviz version 2.40.1 (20161225.0304)
 -->
<!-- Title: dependencies Pages: 1 -->
<svg width="504pt" height="284pt"
 viewBox="0.00 0.00 504.00 284.00" xmlns="http://www.w3.org/2000/svg" xmlns:xlink="http://www.w3.org/1999/xlink">
<g id="graph0" class="graph" transform="scale(1 1) rotate(0) translate(4 280)">
<title>dependencies</title>
<polygon fill="#ffffff" stroke="transparent" points="-4,4 -4,-280 500,-280 500,4 -4,4"/>
<text text-anchor="start" x="227.0091" y="-42.4" font-family="sans-serif" font-weight="bold" font-size="14.00" fill="#000000">Legend</text>
<polygon fill="#ffffb3" stroke="transparent" points="14,-10 14,-30 34,-30 34,-10 14,-10"/>
<text text-anchor="start" x="37.629" y="-15.4" font-family="sans-serif" font-size="14.00" fill="#000000"> &#160;Declarations</text>
<polygon fill="#8dd3c7" stroke="transparent" points="127,-10 127,-30 147,-30 147,-10 127,-10"/>
<text text-anchor="start" x="150.7251" y="-15.4" font-family="sans-serif" font-size="14.00" fill="#000000"> &#160;Module</text>
<polygon fill="#80b1d3" stroke="transparent" points="213,-10 213,-30 233,-30 233,-10 213,-10"/>
<text text-anchor="start" x="236.7812" y="-15.4" font-family="sans-serif" font-size="14.00" fill="#000000"> &#160;Bootstrap</text>
<polygon fill="#fdb462" stroke="transparent" points="310,-10 310,-30 330,-30 330,-10 310,-10"/>
<text text-anchor="start" x="333.6732" y="-15.4" font-family="sans-serif" font-size="14.00" fill="#000000"> &#160;Providers</text>
<polygon fill="#fb8072" stroke="transparent" points="406,-10 406,-30 426,-30 426,-10 406,-10"/>
<text text-anchor="start" x="429.7258" y="-15.4" font-family="sans-serif" font-size="14.00" fill="#000000"> &#160;Exports</text>
<g id="clust1" class="cluster">
<title>cluster_MapComponentsModule</title>
<polygon fill="none" stroke="#000000" stroke-dasharray="1,5" points="54.5,-70 54.5,-268 441.5,-268 441.5,-70 54.5,-70"/>
</g>
<g id="clust2" class="cluster">
<title>cluster_MapComponentsModule_declarations</title>
<polygon fill="none" stroke="#000000" points="172.5,-78 172.5,-130 433.5,-130 433.5,-78 172.5,-78"/>
</g>
<g id="clust5" class="cluster">
<title>cluster_MapComponentsModule_imports</title>
<polygon fill="none" stroke="#000000" points="62.5,-78 62.5,-130 164.5,-130 164.5,-78 62.5,-78"/>
</g>
<g id="clust6" class="cluster">
<title>cluster_MapComponentsModule_exports</title>
<polygon fill="none" stroke="#000000" points="113.5,-208 113.5,-260 381.5,-260 381.5,-208 113.5,-208"/>
</g>
<!-- LeafletComponent -->
<g id="node1" class="node">
<title>LeafletComponent</title>
<polygon fill="#ffffb3" stroke="#000000" points="425.9706,-122 305.0294,-122 305.0294,-86 425.9706,-86 425.9706,-122"/>
<text text-anchor="middle" x="365.5" y="-99.8" font-family="Times,serif" font-size="14.00" fill="#000000">LeafletComponent</text>
</g>
<!-- MapComponentsModule -->
<g id="node3" class="node">
<title>MapComponentsModule</title>
<polygon fill="#8dd3c7" stroke="#000000" points="311.486,-187 308.486,-191 287.486,-191 284.486,-187 155.514,-187 155.514,-151 311.486,-151 311.486,-187"/>
<text text-anchor="middle" x="233.5" y="-164.8" font-family="Times,serif" font-size="14.00" fill="#000000">MapComponentsModule</text>
</g>
<!-- LeafletComponent&#45;&gt;MapComponentsModule -->
<g id="edge1" class="edge">
<title>LeafletComponent&#45;&gt;MapComponentsModule</title>
<path fill="none" stroke="#000000" d="M304.9201,-104C299.3865,-104 295.8093,-104 295.8093,-104 295.8093,-104 295.8093,-140.8939 295.8093,-140.8939"/>
<polygon fill="#000000" stroke="#000000" points="292.3093,-140.8938 295.8093,-150.8939 299.3093,-140.8939 292.3093,-140.8938"/>
</g>
<!-- IconComponent -->
<g id="node2" class="node">
<title>IconComponent</title>
<polygon fill="#ffffb3" stroke="#000000" points="286.7078,-122 180.2922,-122 180.2922,-86 286.7078,-86 286.7078,-122"/>
<text text-anchor="middle" x="233.5" y="-99.8" font-family="Times,serif" font-size="14.00" fill="#000000">IconComponent</text>
</g>
<!-- IconComponent&#45;&gt;MapComponentsModule -->
<g id="edge2" class="edge">
<title>IconComponent&#45;&gt;MapComponentsModule</title>
<path fill="none" stroke="#000000" d="M233.5,-122.1061C233.5,-122.1061 233.5,-140.991 233.5,-140.991"/>
<polygon fill="#000000" stroke="#000000" points="230.0001,-140.9909 233.5,-150.991 237.0001,-140.991 230.0001,-140.9909"/>
</g>
<!-- LeafletComponent  -->
<g id="node5" class="node">
<title>LeafletComponent </title>
<polygon fill="#fb8072" stroke="#000000" points="373.9715,-252 249.0285,-252 249.0285,-216 373.9715,-216 373.9715,-252"/>
<text text-anchor="middle" x="311.5" y="-229.8" font-family="Times,serif" font-size="14.00" fill="#000000">LeafletComponent </text>
</g>
<!-- MapComponentsModule&#45;&gt;LeafletComponent  -->
<g id="edge4" class="edge">
<title>MapComponentsModule&#45;&gt;LeafletComponent </title>
<path fill="none" stroke="#000000" stroke-dasharray="5,2" d="M280.3789,-187.1061C280.3789,-187.1061 280.3789,-205.991 280.3789,-205.991"/>
<polygon fill="#000000" stroke="#000000" points="276.8789,-205.9909 280.3789,-215.991 283.8789,-205.991 276.8789,-205.9909"/>
</g>
<!-- IconComponent  -->
<g id="node6" class="node">
<title>IconComponent </title>
<polygon fill="#fb8072" stroke="#000000" points="231.208,-252 121.792,-252 121.792,-216 231.208,-216 231.208,-252"/>
<text text-anchor="middle" x="176.5" y="-229.8" font-family="Times,serif" font-size="14.00" fill="#000000">IconComponent </text>
</g>
<!-- MapComponentsModule&#45;&gt;IconComponent  -->
<g id="edge5" class="edge">
<title>MapComponentsModule&#45;&gt;IconComponent </title>
<path fill="none" stroke="#000000" stroke-dasharray="5,2" d="M193.4304,-187.1061C193.4304,-187.1061 193.4304,-205.991 193.4304,-205.991"/>
<polygon fill="#000000" stroke="#000000" points="189.9305,-205.9909 193.4304,-215.991 196.9305,-205.991 189.9305,-205.9909"/>
</g>
<!-- MapModule -->
<g id="node4" class="node">
<title>MapModule</title>
<polygon fill="#8dd3c7" stroke="#000000" points="156.2093,-122 153.2093,-126 132.2093,-126 129.2093,-122 70.7907,-122 70.7907,-86 156.2093,-86 156.2093,-122"/>
<text text-anchor="middle" x="113.5" y="-99.8" font-family="Times,serif" font-size="14.00" fill="#000000">MapModule</text>
</g>
<!-- MapModule&#45;&gt;MapComponentsModule -->
<g id="edge3" class="edge">
<title>MapModule&#45;&gt;MapComponentsModule</title>
<path fill="none" stroke="#000000" d="M156.3703,-104C163.2971,-104 168.2504,-104 168.2504,-104 168.2504,-104 168.2504,-140.8939 168.2504,-140.8939"/>
<polygon fill="#000000" stroke="#000000" points="164.7504,-140.8938 168.2504,-150.8939 171.7504,-140.8939 164.7504,-140.8938"/>
</g>
</g>
</svg>
